<svg xmlns="http://www.w3.org/2000/svg" width="78.438" height="100" viewBox="0 0 78.438 100"><g data-name="Group 12002"><g data-name="Group 11981"><path data-name="Path 1210" d="M62.667 0h-28.48l-5.5 7.29v86.346l5.5 6.364h28.48a4.268 4.268 0 0 0 4.268-4.268V4.268A4.267 4.267 0 0 0 62.667 0z" fill="#f4fbff"/><path data-name="Path 1211" d="M74.17 0H61.424a4.268 4.268 0 0 1 4.268 4.268v91.464A4.268 4.268 0 0 1 61.424 100H74.17a4.268 4.268 0 0 0 4.268-4.268V4.268A4.268 4.268 0 0 0 74.17 0z" fill="#e4f6ff"/><path data-name="Path 1212" d="M34.187 0H4.268A4.268 4.268 0 0 0 .001 4.268v91.464A4.268 4.268 0 0 0 4.268 100h29.92z" fill="#21937f"/></g><g data-name="Group 11989"><path data-name="Path 1213" d="M50.128 29.384a7.533 7.533 0 1 1 4.213-13.778 1.51 1.51 0 1 1-1.69 2.5 4.514 4.514 0 1 0-2.523 8.258 3.235 3.235 0 0 0 2.638-1.161 1.51 1.51 0 1 1 2.314 1.94 6.25 6.25 0 0 1-4.951 2.24z" fill="#21937f"/><path data-name="Path 1214" d="M65.156 29.384a1.783 1.783 0 0 1-1.679-1.185l-4.122-11.876a1.51 1.51 0 0 1 2.852-.99l2.923 8.421 2.784-8.38a1.51 1.51 0 0 1 2.865.952l-3.933 11.84a1.786 1.786 0 0 1-1.678 1.218h-.012z" fill="#21937f"/></g><g data-name="Group 11990" transform="translate(6.654 11.393)"><circle data-name="Ellipse 150" cx="10.459" cy="10.459" r="10.459" fill="#f4fbff"/><path data-name="Path 1215" d="M10.459 12.926a7.35 7.35 0 0 0-7.046 5.262 10.458 10.458 0 0 0 14.092 0 7.35 7.35 0 0 0-7.046-5.262z" fill="#407093"/><circle data-name="Ellipse 151" cx="3.701" cy="3.701" r="3.701" transform="translate(6.758 6.454)" fill="#365e7d"/></g><g data-name="Group 11992" fill="#86e2a3"><path data-name="Path 1216" d="M25.859 54.37H8.366a1.751 1.751 0 0 1-1.751-1.751v-4.313a1.751 1.751 0 0 1 1.751-1.751h17.493a1.751 1.751 0 0 1 1.751 1.751v4.313a1.751 1.751 0 0 1-1.751 1.751z"/><path data-name="Path 1217" d="M25.859 70.369H8.366a1.751 1.751 0 0 1-1.751-1.751v-4.312a1.751 1.751 0 0 1 1.751-1.751h17.493a1.751 1.751 0 0 1 1.751 1.751v4.313a1.751 1.751 0 0 1-1.751 1.75z"/><path data-name="Path 1218" d="M25.859 86.367H8.366a1.751 1.751 0 0 1-1.751-1.751v-4.313a1.751 1.751 0 0 1 1.751-1.751h17.493a1.751 1.751 0 0 1 1.751 1.751v4.313a1.751 1.751 0 0 1-1.751 1.751z"/></g><g data-name="Group 12001"><g data-name="Group 11998"><path data-name="Path 1219" d="M70.39 50.592H42.079a1.51 1.51 0 1 1 0-3.019H70.39a1.51 1.51 0 0 1 0 3.019z" fill="#407093"/><path data-name="Path 1220" d="M56.234 50.594H42.079a1.51 1.51 0 1 1 0-3.019h14.156a1.51 1.51 0 1 1 0 3.019z" fill="#407093"/><path data-name="Path 1221" d="M70.39 69.111H42.079a1.51 1.51 0 0 1 0-3.019H70.39a1.51 1.51 0 0 1 0 3.019z" fill="#407093"/><path data-name="Path 1222" d="M70.39 78.371H42.079a1.51 1.51 0 1 1 0-3.019H70.39a1.51 1.51 0 0 1 0 3.019z" fill="#407093"/><path data-name="Path 1223" d="M56.234 87.878H42.079a1.51 1.51 0 1 1 0-3.019h14.156a1.51 1.51 0 1 1 0 3.019z" fill="#407093"/></g><path data-name="Path 1224" d="M70.39 41.332H42.079a1.51 1.51 0 1 1 0-3.019H70.39a1.51 1.51 0 0 1 0 3.019z" fill="#407093"/></g></g></svg>