<svg xmlns="http://www.w3.org/2000/svg" width="13.753" height="13.753" viewBox="0 0 13.753 13.753"><g fill="#21937f"><path data-name="Path 1205" d="M7.772 10.342H6.166a1.937 1.937 0 0 1-1.9-1.97.48.48 0 1 1 .96 0 .979.979 0 0 0 .94 1.011h1.606a.8.8 0 0 0 .761-.819c0-.557-.2-.665-.525-.78L5.43 6.876a1.6 1.6 0 0 1-1.17-1.69 1.751 1.751 0 0 1 1.721-1.778h1.606a1.937 1.937 0 0 1 1.9 1.97.48.48 0 0 1-.96 0 .979.979 0 0 0-.94-1.011H5.981a.8.8 0 0 0-.761.819c0 .557.2.665.525.78l2.578.908a1.6 1.6 0 0 1 1.171 1.689 1.759 1.759 0 0 1-1.722 1.779z"/><path data-name="Path 1206" d="M6.877 11.195a.483.483 0 0 1-.48-.48V3.039a.48.48 0 1 1 .96 0v7.676a.483.483 0 0 1-.48.48z"/><path data-name="Path 1207" d="M6.876 13.75a6.876 6.876 0 1 1 6.874-6.874 6.882 6.882 0 0 1-6.874 6.874zm0-12.793a5.917 5.917 0 1 0 5.917 5.917A5.924 5.924 0 0 0 6.876.96z"/></g></svg>