<svg xmlns="http://www.w3.org/2000/svg" width="18.607" height="18.607" viewBox="0 0 18.607 18.607"><g fill="#21937f"><path data-name="Path 1205" d="M10.516 13.993H8.343a2.62 2.62 0 0 1-2.57-2.666.65.65 0 0 1 1.3 0 1.325 1.325 0 0 0 1.272 1.367h2.172a1.079 1.079 0 0 0 1.03-1.108c0-.753-.268-.9-.71-1.056L7.348 9.302a2.166 2.166 0 0 1-1.584-2.285 2.369 2.369 0 0 1 2.328-2.406h2.172a2.62 2.62 0 0 1 2.57 2.666.65.65 0 0 1-1.3 0 1.325 1.325 0 0 0-1.272-1.367h-2.17a1.079 1.079 0 0 0-1.03 1.108c0 .753.268.9.71 1.056l3.488 1.229a2.166 2.166 0 0 1 1.584 2.285 2.38 2.38 0 0 1-2.328 2.405z"/><path data-name="Path 1206" d="M9.305 15.146a.654.654 0 0 1-.649-.649V4.112a.65.65 0 1 1 1.3 0v10.384a.654.654 0 0 1-.651.65z"/><path data-name="Path 1207" d="M9.304 18.607a9.3 9.3 0 1 1 9.3-9.3 9.311 9.311 0 0 1-9.3 9.3zm0-17.309a8.005 8.005 0 1 0 8.005 8.005 8.015 8.015 0 0 0-8.005-8.005z"/></g></svg>