<svg xmlns="http://www.w3.org/2000/svg" width="99.666" height="100.167" viewBox="0 0 99.666 100.167"><g transform="translate(-.001 .5)"><path data-name="Path 1288" d="M86.667 39L49.834 62.834 13.002 39V2.168A2.121 2.121 0 0 1 15.076 0h69.426a2.121 2.121 0 0 1 2.167 2.075v.092z" fill="#fff" stroke="#d6f6f1"/><g data-name="Group 12068"><path data-name="Path 1289" d="M13 38.998L0 30.334l13-13z" fill="#21937f"/><path data-name="Path 1290" d="M99.667 30.334l-13 8.667V17.334z" fill="#f6b445"/></g><path data-name="Path 1291" d="M86.667 38.806l13-8.472v60.664a8.72 8.72 0 0 1-2.535 6.132l-14.8-14.8-23.831-23.832-.607-.932z" fill="#1ea28b"/><path data-name="Path 1292" d="M82.334 82.334l14.8 14.8a8.72 8.72 0 0 1-6.132 2.535H8.668a8.72 8.72 0 0 1-6.132-2.535l14.8-14.8 23.833-23.833.607-.932 8.06 5.265 8.06-5.265.607.932z" fill="#21937f"/><path data-name="Path 1293" d="M41.774 57.569l-.607.932-23.833 23.832-14.8 14.8a8.72 8.72 0 0 1-2.535-6.135V30.334z" fill="#1ea28b"/><circle data-name="Ellipse 157" cx="26" cy="26" r="26" transform="translate(47.667 .001)" fill="#86e2a3"/><path data-name="Path 1294" d="M73.667 39.001a2.167 2.167 0 0 1-2.167-2.167V21.382l-3.131 2.089a2.167 2.167 0 0 1-2.4-3.605l6.5-4.333a2.167 2.167 0 0 1 3.369 1.8v19.5a2.167 2.167 0 0 1-2.171 2.168z" fill="#fff"/></g></svg>