<svg xmlns="http://www.w3.org/2000/svg" width="100.211" height="100" viewBox="0 0 100.211 100"><path data-name="Path 1295" d="M18.271 39.544a2.341 2.341 0 0 1 1.754 2.774l-.683 3.155-5.777 25.658-.639 2.556a2.341 2.341 0 0 1-2.768 1.72L1.845 73.6A2.341 2.341 0 0 1 .06 70.79l6.977-31.41a2.341 2.341 0 0 1 2.816-1.756z" fill="#21937f"/><path data-name="Path 1296" d="M54.081 3.178h-11.4a2.746 2.746 0 0 0-2.743 2.743v3.843a1.238 1.238 0 0 0 1.237 1.237h1.237v-5.08a.269.269 0 0 1 .269-.269h11.4a.269.269 0 0 1 .269.269v5.081h1.237a1.238 1.238 0 0 0 1.237-1.237V5.921a2.746 2.746 0 0 0-2.743-2.743z" fill="#8ebac5"/><path data-name="Path 1297" d="M62.812 11.834l2.6 10.534s-3.813 11.577-4.955 11.577H32.83a2.064 2.064 0 0 1-2.065-2.065v-8.607l.586-1.169a6.159 6.159 0 0 1-.586-2.706V11.83a2.064 2.064 0 0 1 2.065-2.065h27.624c1.142 0 2.358 2.067 2.358 2.069z" fill="#bc7c63"/><path data-name="Path 1298" d="M65.995 19.61v3.7a4.524 4.524 0 0 1-1.946.437H32.778a4.53 4.53 0 0 1-2.019-.471v-3.875a2 2 0 0 0 2.019 1.873h31.266a1.92 1.92 0 0 0 1.951-1.664z" fill="#aa6a51"/><path data-name="Path 1299" d="M63.692 9.765h-8.185v4.849a3.189 3.189 0 0 0 3.189 3.189 1.228 1.228 0 0 1 1.228 1.228V31.64a2.3 2.3 0 0 1-2.3 2.3h6.072a2.3 2.3 0 0 0 2.3-2.3V12.069a2.3 2.3 0 0 0-2.304-2.304z" fill="#aa6a51"/><g data-name="Group 12073"><path data-name="Path 1300" d="M41.562 23.744a1.237 1.237 0 0 1-1.237-1.237v-4.152a1.237 1.237 0 0 1 2.474 0v4.153a1.237 1.237 0 0 1-1.237 1.236z" fill="#d9b1ee"/><path data-name="Path 1301" d="M55.196 23.744a1.237 1.237 0 0 1-1.239-1.236v-4.153a1.237 1.237 0 1 1 2.474 0v4.153a1.237 1.237 0 0 1-1.235 1.236z" fill="#d9b1ee"/></g><path data-name="Path 1302" d="M65.367 87.562L78.66 73.068l7.986-1.966-5.777-25.658-25.827-2.719-4.936 14.9z" fill="#ffeee6"/><path data-name="Path 1303" d="M86.646 71.103l-6.287 1.549-6.287-27.921 8.567.9z" fill="#ffdfcf"/><path data-name="Path 1304" d="M65.994 19.611v3.7a4.523 4.523 0 0 1-1.946.437h-4.126v-2.474h4.126a1.92 1.92 0 0 0 1.946-1.663z" fill="#935b44"/><path data-name="Path 1305" d="M81.94 39.516a2.341 2.341 0 0 0-1.754 2.774l.683 3.155 5.777 25.658.639 2.556a2.341 2.341 0 0 0 2.768 1.72l8.313-1.807a2.341 2.341 0 0 0 1.785-2.81l-6.977-31.41a2.341 2.341 0 0 0-2.816-1.756z" fill="#6c7fd8"/><path data-name="Path 1306" d="M98.368 73.572l-6 1.305a2.339 2.339 0 0 0 1.15-2.573l-6.977-31.41a2.4 2.4 0 0 0-2.858-1.774l6.678-1.526a2.342 2.342 0 0 1 2.816 1.756l6.977 31.41a2.34 2.34 0 0 1-1.786 2.812z" fill="#4f66d0"/><path data-name="Path 1307" d="M77.033 76.074l-.013.027a4.184 4.184 0 0 1-3.8 2.285.471.471 0 0 0-.387.759 4.184 4.184 0 0 1 .38 4.413l-.013.027a4.184 4.184 0 0 1-3.8 2.285.471.471 0 0 0-.387.759 4.18 4.18 0 0 1 .383 4.413l-.015.029a4.183 4.183 0 0 1-4.592 2.19.624.624 0 0 0-.142-.015.645.645 0 0 0-.6.9 4.2 4.2 0 0 1-5.765 5.4l-6.3-3.214h-.011l-.06-.031-12.47-6.355a28.654 28.654 0 0 1-8.1-6.159l-9.8-10.684-7.974-1.982 3.523-25.419 28.042-2.951 3.785 11.3a9.213 9.213 0 0 0 4.537 5.283l6.251 3.2 7.477 3.811 1.657.845 6.364 3.245a4.186 4.186 0 0 1 1.829 5.629z" fill="#ffcebf"/><path data-name="Path 1308" d="M53.338 59.297l-6.252-3.2a9.213 9.213 0 0 1-4.537-5.283l-10.488 5.139a4.784 4.784 0 0 1-4.88-8.192l5.134-3.657 12.815-1.349z" fill="#ffb09e"/><path data-name="Path 1309" d="M55.041 42.725H45.17l-11.621 8.28a4.783 4.783 0 0 0 4.879 8.19l8.76-4.291a1.875 1.875 0 0 1 2.455.784 9.2 9.2 0 0 0 3.81 3.65l6.251 3.2z" fill="#ffeee6"/><path data-name="Path 1310" d="M75.203 70.444l-6.364-3.245a4.184 4.184 0 0 1 1.827 5.63l-.013.027a.233.233 0 0 1-.013.024 2.548 2.548 0 0 1-3.418 1.06l-3.1-1.58a1.66 1.66 0 1 0-1.507 2.957l3.1 1.575a2.546 2.546 0 0 1 1.155 3.387.233.233 0 0 1-.015.033l-.013.027a.227.227 0 0 1-.013.024 2.545 2.545 0 0 1-3.416 1.06l-3.1-1.58a1.66 1.66 0 1 0-1.507 2.958l3.1 1.575a2.549 2.549 0 0 1 1.157 3.387l-.018.033-.015.027a.225.225 0 0 1-.013.024 2.545 2.545 0 0 1-3.416 1.06l-3.1-1.577a1.659 1.659 0 0 0-1.506 2.956l1.436.73a2.574 2.574 0 0 1 1.17 3.42l-.013.027a4.2 4.2 0 0 1-5.583 1.865l6.3 3.214a4.2 4.2 0 0 0 5.765-5.4.648.648 0 0 1 .739-.883 4.183 4.183 0 0 0 4.592-2.19l.015-.029a4.18 4.18 0 0 0-.383-4.413.471.471 0 0 1 .387-.759 4.184 4.184 0 0 0 3.8-2.285l.013-.027a4.185 4.185 0 0 0-.38-4.413.471.471 0 0 1 .387-.759 4.184 4.184 0 0 0 3.8-2.285l.013-.027a4.186 4.186 0 0 0-1.85-5.628z" fill="#ffb09e"/><g data-name="Group 12077"><path data-name="Path 1311" d="M76.11 17.686H64.278a3.163 3.163 0 0 1-3.163-3.163V3.163A3.163 3.163 0 0 1 64.278 0H76.11a3.163 3.163 0 0 1 3.163 3.163v11.359a3.163 3.163 0 0 1-3.163 3.164z" fill="#86e2a3"/><path data-name="Path 1312" d="M79.274 3.163v11.36a3.165 3.165 0 0 1-3.164 3.164h-5.46a3.164 3.164 0 0 0 3.164-3.164V3.163A3.163 3.163 0 0 0 70.65-.004h5.461a3.163 3.163 0 0 1 3.164 3.162z" fill="#86e2a3"/><path data-name="Path 1313" d="M73.814 8.37l-3.955 3.955a1.365 1.365 0 0 1-1.931 0l-2.432-2.432a1.366 1.366 0 0 1 1.931-1.931l1.465 1.467 3.1-3.1.97-.97a1.363 1.363 0 0 1 .85-.395c.386-.033.741 1.023.741 1.023z" fill="#fff"/><path data-name="Path 1314" d="M74.895 7.29l-1.081 1.081V4.965a1.365 1.365 0 0 1 1.081 2.324z" fill="#fff"/></g><path data-name="Path 1315" d="M20.026 42.313l-.684 3.157-5.776 25.656-.639 2.557a2.342 2.342 0 0 1-2.77 1.719l-7.384-1.606c1.236.27 3.321-.434 3.628-1.661l.639-2.555 5.778-25.658.681-3.155a2.337 2.337 0 0 0-1.287-2.61l6.059 1.383a2.342 2.342 0 0 1 1.754 2.774z" fill="#86e2a3"/></svg>