<svg xmlns="http://www.w3.org/2000/svg" width="19.022" height="13.319" viewBox="0 0 19.022 13.319"><path d="M18.63 2.082A2.383 2.383 0 0 0 16.953.405C15.464-.002 9.51-.002 9.51-.002A57.848 57.848 0 0 0 2.067.39 2.431 2.431 0 0 0 .391 2.082a25.111 25.111 0 0 0-.392 4.577 25.019 25.019 0 0 0 .392 4.576 2.383 2.383 0 0 0 1.677 1.676c1.5.407 7.443.407 7.443.407a57.848 57.848 0 0 0 7.443-.392 2.383 2.383 0 0 0 1.677-1.677 25.119 25.119 0 0 0 .391-4.574 23.837 23.837 0 0 0-.392-4.593zM7.615 9.511v-5.7l4.951 2.848zm0 0" fill="#21937f"/></svg>