<svg xmlns="http://www.w3.org/2000/svg" width="100.004" height="100" viewBox="0 0 100.004 100"><g data-name="Group 12067"><g data-name="Group 12048"><path data-name="Path 1268" d="M74.931 17.77h-6.185a7.483 7.483 0 0 0-7.483 7.483v7.218l1.811 1.09h12.575V19.086z" fill="#efc984"/><path data-name="Path 1269" d="M88.546 68.045a9.216 9.216 0 0 0-6.62-8.843l-10.944-3.214.007-2.345h-4.9l-10.7 3.141a9.007 9.007 0 0 0-6.47 8.642v17.093h39.627z" fill="#4a80aa"/><path data-name="Path 1270" d="M93.535 56.787l-10.7-3.14H70.177l-.009 3.082 10.7 3.14a9.007 9.007 0 0 1 6.469 8.642v14.011h12.671V65.426a9.007 9.007 0 0 0-6.473-8.639z" fill="#407093"/><path data-name="Path 1271" d="M80.516 82.516l-3.93-17.523h-4.257l-3.93 17.523z" fill="#dd636e"/><g data-name="Group 12046"><path data-name="Path 1272" d="M80.337 55.798v-9.446H68.584v9.446c0 3.246 5.877 3.534 5.877 3.534s5.876-.288 5.876-3.534z" fill="#ffddce"/><path data-name="Path 1273" d="M75.392 42.528a11.038 11.038 0 0 0 .256-2.455V27.556a17.692 17.692 0 0 1-6.735-.853 2.388 2.388 0 0 0-3.137 2.268v1.239a2.262 2.262 0 0 1-2.262 2.262h-2.247v3.7a1.712 1.712 0 0 0 1.712 1.712.563.563 0 0 1 .56.531 10.957 10.957 0 0 0 8.393 9.958 11.132 11.132 0 0 0 3.46-5.845z" fill="#ffddce"/><path data-name="Path 1274" d="M84.409 22.119h-.107a1.1 1.1 0 0 1-1.1-1.1 3.251 3.251 0 0 0-3.251-3.251h-5.02v15.791H85.85l1.811-1.09v-7.1a3.251 3.251 0 0 0-3.251-3.251z" fill="#eabc6b"/><path data-name="Path 1275" d="M85.413 32.471a2.262 2.262 0 0 1-2.262-2.262v-1.238a2.388 2.388 0 0 0-3.138-2.268 17.678 17.678 0 0 1-5.083.884v12.107a10.7 10.7 0 0 1-3.948 8.405 10.95 10.95 0 0 0 14.407-9.686.563.563 0 0 1 .56-.531 1.712 1.712 0 0 0 1.712-1.712v-3.7h-2.247z" fill="#ffcbbe"/></g><g data-name="Group 12047" fill="#365e7d"><path data-name="Path 1276" d="M66.294 53.019l-1.674.751a1.5 1.5 0 0 0-.446 2.423l4.635 4.642a1.6 1.6 0 0 0 2.143.082l3.635-3.036-6.2-4.63a2.078 2.078 0 0 0-2.093-.232z"/><path data-name="Path 1277" d="M80.529 53.278l-5.942 4.6 3.416 2.921a1.6 1.6 0 0 0 2.15-.062l4.637-4.516a1.5 1.5 0 0 0-.435-2.439l-1.706-.76a2.08 2.08 0 0 0-2.12.255z"/></g></g><path data-name="Path 1278" d="M88.55 97.924V78.643H23.777v21.265h63.51a2.428 2.428 0 0 0 1.263-1.984z" fill="#ddb7a0"/><path data-name="Path 1279" d="M87.336 78.643v19.064a2.323 2.323 0 0 1-2.28 2.2h10.77a4.178 4.178 0 0 0 4.178-4.178V78.643z" fill="#d6a889"/><g data-name="Group 12063"><path data-name="Path 1280" d="M30.551 72.989v-9.186h-11.43v9.186c0 3.156 5.715 3.437 5.715 3.437s5.715-.28 5.715-3.437z" fill="#ffddce"/><path data-name="Path 1281" d="M25.105 66.951a6.916 6.916 0 0 0 4.647-6.535 16.776 16.776 0 0 0-.706-4.81 27.569 27.569 0 0 1-1.161-7.908v-.007a15.645 15.645 0 0 0-8.729-14.03 15.217 15.217 0 0 0-9.531 14.111v.006a26.791 26.791 0 0 1-1.129 7.686 16.3 16.3 0 0 0-.686 4.675 6.722 6.722 0 0 0 4.517 6.353 38.143 38.143 0 0 0 7.824 1.821 39.191 39.191 0 0 0 4.954-1.362z" fill="#407093"/><path data-name="Path 1282" d="M41.178 55.466a26.8 26.8 0 0 1-1.129-7.686v-.006a15.211 15.211 0 0 0-21.576-13.812 15.211 15.211 0 0 1 8.847 13.811v.006a26.791 26.791 0 0 0 1.129 7.686 16.293 16.293 0 0 1 .686 4.675 6.722 6.722 0 0 1-4.517 6.353 38.143 38.143 0 0 1-6.144 1.574 38.141 38.141 0 0 0 18.874-1.574 6.722 6.722 0 0 0 4.517-6.353 16.309 16.309 0 0 0-.687-4.674z" fill="#365e7d"/></g><path data-name="Path 1283" d="M43.427 21.132V4.427C43.427.356 39.881.002 37.438 0h-26.1a4.427 4.427 0 0 0-4.427 4.427v16.7a4.427 4.427 0 0 0 4.427 4.427h26.8l1.082-.058a4.343 4.343 0 0 0 4.207-4.364z" fill="#1ea28b"/><path data-name="Path 1284" d="M50.273 0H37.438a4.427 4.427 0 0 1 4.427 4.427v16.7a4.428 4.428 0 0 1-3.509 4.331.613.613 0 0 0-.22.1h4.14a.645.645 0 0 1 .456.189l6.627 6.627a.781.781 0 0 0 1.333-.552v-5.733a.638.638 0 0 1 .5-.628 4.428 4.428 0 0 0 3.509-4.331V4.427A4.427 4.427 0 0 0 50.273 0z" fill="#21937f"/><path data-name="Path 1285" d="M37.885 84.738c0-3.887-2.186-5.764-6.292-6.645l-2.32-.442a4.3 4.3 0 0 1-3.359-3.159 6.1 6.1 0 0 1-6.781-3.769l-.013-.033-12.828 2.48A8.759 8.759 0 0 0 0 81.574v14.248A4.178 4.178 0 0 0 4.186 100l32.76-.067.918-.7z" fill="#e28086"/><path data-name="Path 1286" d="M47.791 99.923a1.9 1.9 0 0 0 1.885-1.9V81.574a8.759 8.759 0 0 0-6.292-8.4L30.55 70.73a6.058 6.058 0 0 1-5.674 3.855 4.3 4.3 0 0 0 3.458 3.68l2.32.442c4.105.882 6.292 2.758 6.292 6.645v14.585z" fill="#dd636e"/><path data-name="Path 1287" d="M78.004 60.8l-3.416-2.921-3.63 3.036a1.594 1.594 0 0 1-.793.355l2.17 3.726h4.257l2.145-3.845a1.589 1.589 0 0 1-.733-.351z" fill="#e28086"/></g></svg>