<svg xmlns="http://www.w3.org/2000/svg" width="164" height="57.487" viewBox="0 0 164 57.487"><defs><clipPath id="a"><path data-name="Path 37" d="M60.253 16.616L44.989 7.684a10.847 10.847 0 0 0-9.819 0l-15.395 8.932a10.863 10.863 0 0 0-4.424 5.892v-.019a7.075 7.075 0 0 0-.382 1.74 7.494 7.494 0 0 0-.064.914v18.268a10.783 10.783 0 0 0 4.766 8.527l11.739 6.868 3.526 2.063a9.69 9.69 0 0 0 4.291 1.158 10.3 10.3 0 0 0 5.527-1.158l14.931-8.663.463-.269a10.782 10.782 0 0 0 4.372-5.727c.017-.049.038-.1.054-.145a7.068 7.068 0 0 0 .382-1.74 7.483 7.483 0 0 0 .064-.914V25.142a10.783 10.783 0 0 0-4.767-8.526z" transform="translate(-14.902 -6.51)" opacity=".55"/></clipPath></defs><g data-name="Group 1" fill="#3e3e3e"><path data-name="Path 1" d="M71.006 34.731v3.462h-10.92v.589q0 1.981 1.213 2.409a7.869 7.869 0 0 0 2.141.268h.482a32.524 32.524 0 0 0 6.584-.7h.036v4.889a21.11 21.11 0 0 1-3.069.589 40.555 40.555 0 0 1-4.425.214q-6.423 0-8.3-4.336a9.436 9.436 0 0 1-.7-3.587v-4.671q0-5.139 4.318-6.834a13.065 13.065 0 0 1 4.086-.625q6.049 0 7.851 3.943a11.046 11.046 0 0 1 .703 4.39zm-6.031-.91q0-2.034-.874-2.409a2.8 2.8 0 0 0-1.606-.446q-2.409 0-2.409 2.266v.91h4.889v-.321z"/><path data-name="Path 2" d="M75.313 34.803q0-4.372.732-5.656 1.213-2.712 6.423-2.712a15.254 15.254 0 0 1 4.282.732l.018-.589.018-5.156.036-2.587 5.959-1.053v27.905q-2.32.375-4.175.571-2.052.2-3.836.2-5.264 0-7.476-2.034a5.108 5.108 0 0 1-1.249-1.8q-.732-1.178-.732-5.87v-1.951zm6.031 3.836a4.7 4.7 0 0 0 .143 1.213q.481 1.678 3.1 1.677l2.159-.072v-9.102a5.169 5.169 0 0 0-2.783-.839l-.874.036a1.977 1.977 0 0 0-1.749 2.195z"/><path data-name="Path 3" d="M103.06 20.671a4.552 4.552 0 0 1 .125 1.16 2.612 2.612 0 0 1-.767 2.159 2.2 2.2 0 0 1-1.124.517 7.337 7.337 0 0 1-2.5 0 3 3 0 0 1-1.231-.517 2.063 2.063 0 0 1-.553-1.035 4.931 4.931 0 0 1-.107-1.124 5.235 5.235 0 0 1 .107-1.124 1.994 1.994 0 0 1 .553-1.07 3.976 3.976 0 0 1 2.48-.625 3.381 3.381 0 0 1 2.373.625 1.933 1.933 0 0 1 .644 1.034zm-6.049 25.532h6.031V26.755h-6.031z"/><path data-name="Path 4" d="M124.661 34.802v11.4h-6.031V33.714a2.01 2.01 0 0 0-1.713-2.195 7.017 7.017 0 0 0-1.177-.035 9.878 9.878 0 0 0-1.16.232 5.628 5.628 0 0 0-1.392.607v13.881h-5.995v-19.52h4.978l.357.767a5.388 5.388 0 0 1 .178.517 2.417 2.417 0 0 0 .232-.107l.357-.2a10.9 10.9 0 0 1 1.106-.464 11.069 11.069 0 0 1 1.588-.482 11.532 11.532 0 0 1 2.016-.25 8.757 8.757 0 0 1 3.283.357 5.256 5.256 0 0 1 2.64 2.32q.733 1.36.733 5.66z"/><path data-name="Path 5" d="M146.062 34.731v3.462h-10.92v.589q0 1.981 1.213 2.409a7.869 7.869 0 0 0 2.141.268h.482a32.524 32.524 0 0 0 6.584-.7h.036v4.889a21.11 21.11 0 0 1-3.069.589 40.556 40.556 0 0 1-4.425.214q-6.423 0-8.3-4.336a9.436 9.436 0 0 1-.7-3.587v-4.671q0-5.139 4.318-6.834a13.066 13.066 0 0 1 4.086-.625q6.049 0 7.851 3.943a11.045 11.045 0 0 1 .703 4.39zm-6.031-.91q0-2.034-.874-2.409a2.8 2.8 0 0 0-1.606-.446q-2.409 0-2.409 2.266v.91h4.889z"/><path data-name="Path 6" d="M163.893 46.273h-3.051q-.928 0-1.588-.053a8.089 8.089 0 0 1-2.891-.66 4.506 4.506 0 0 1-2.087-2.016 8.9 8.9 0 0 1-.8-4.1l-.035-7.708h-2.929v-5.017h2.926v-4.853l5.995-1.017v5.87h4.569l-.624 5.014h-3.943v7.369q0 .25.018.428a3.042 3.042 0 0 0 .143.767 1.675 1.675 0 0 0 1.142 1.017 8.12 8.12 0 0 0 1.909.464q.214.036.446.054l.375.035.428.018v4.388z"/></g><g data-name="Group 2" fill="#9f9fa0"><path data-name="Path 7" d="M59.762 54.559a3.29 3.29 0 0 1-2.469.958h-1.871a.436.436 0 0 1-.494-.494v-5.748a.436.436 0 0 1 .494-.493h1.874a3.445 3.445 0 0 1 2.469 5.777zm-.7-4.192a2.352 2.352 0 0 0-1.8-.7h-1.366v4.958h1.363a2.351 2.351 0 0 0 1.8-.7 2.8 2.8 0 0 0 0-3.565z"/><path data-name="Path 8" d="M64.482 49.245a.558.558 0 1 1-.558.558.491.491 0 0 1 .558-.558zm.474 5.876a.476.476 0 0 1-.953 0v-3.6a.476.476 0 0 1 .953 0z"/><path data-name="Path 9" d="M72.881 55.205a2.316 2.316 0 0 1-.548 1.664 2.424 2.424 0 0 1-1.817.617 3.964 3.964 0 0 1-.874-.094 3.452 3.452 0 0 1-.889-.351.433.433 0 0 1-.252-.375.371.371 0 0 1 .2-.346.454.454 0 0 1 .474.035 2.469 2.469 0 0 0 1.274.366 1.522 1.522 0 0 0 1.17-.385 1.545 1.545 0 0 0 .306-1.062v-.647a1.639 1.639 0 0 1-1.536.849 2.008 2.008 0 0 1-1.565-.662 2.475 2.475 0 0 1 0-3.155 2.014 2.014 0 0 1 1.565-.652 1.676 1.676 0 0 1 1.57.849v-.326q0-.484.454-.484a.415.415 0 0 1 .464.474zm-1.323-2.982a1.265 1.265 0 0 0-.983-.42 1.285 1.285 0 0 0-.988.41 1.593 1.593 0 0 0 0 2.054 1.285 1.285 0 0 0 .988.41 1.265 1.265 0 0 0 .983-.42 1.582 1.582 0 0 0 0-2.034z"/><path data-name="Path 10" d="M76.944 49.245a.558.558 0 1 1-.558.558.491.491 0 0 1 .558-.558zm.474 5.876a.476.476 0 0 1-.953 0v-3.6a.476.476 0 0 1 .953 0z"/><path data-name="Path 11" d="M82.489 55.122a.474.474 0 1 1-.948 0v-3.2h-.77a.4.4 0 0 1 0-.79h.77v-1.323a.474.474 0 1 1 .948 0v1.323h.869a.4.4 0 1 1 0 .79h-.869z"/><path data-name="Path 12" d="M90.364 55.121a.465.465 0 1 1-.929 0v-.089a1.707 1.707 0 0 1-1.427.607 1.861 1.861 0 0 1-1.21-.38 1.3 1.3 0 0 1 .025-2.015 2 2 0 0 1 1.224-.346 1.934 1.934 0 0 1 1.368.514v-.435q0-1.165-1.215-1.165a2.719 2.719 0 0 0-.553.054 3.083 3.083 0 0 0-.449.128l-.148.054a.549.549 0 0 1-.163.03.354.354 0 0 1-.4-.4q0-.277.444-.454a3.64 3.64 0 0 1 1.353-.222q2.084 0 2.084 1.911zm-1.289-1.378a1.424 1.424 0 0 0-.741-.188q-1.052 0-1.052.716t1.027.721a1.408 1.408 0 0 0 .775-.2.576.576 0 0 0-.01-1.047z"/><path data-name="Path 13" d="M94.831 55.122a.476.476 0 0 1-.953 0v-5.945a.476.476 0 0 1 .953 0z"/><path data-name="Path 14" d="M109.683 48.994a.462.462 0 0 1 .435-.291.4.4 0 0 1 .454.455v5.975a.406.406 0 0 1-.454.464.412.412 0 0 1-.469-.464V51.04l-2.1 4.276a.461.461 0 0 1-.85 0l-2.1-4.276v4.093a.41.41 0 0 1-.464.464.406.406 0 0 1-.454-.464v-5.975a.4.4 0 0 1 .454-.455.462.462 0 0 1 .434.291l2.558 5.249z"/><path data-name="Path 15" d="M118.092 55.121a.465.465 0 1 1-.929 0v-.089a1.706 1.706 0 0 1-1.427.607 1.861 1.861 0 0 1-1.21-.38 1.3 1.3 0 0 1 .025-2.015 2 2 0 0 1 1.224-.346 1.934 1.934 0 0 1 1.368.514v-.435q0-1.165-1.215-1.165a2.719 2.719 0 0 0-.553.054 3.082 3.082 0 0 0-.449.128l-.148.054a.549.549 0 0 1-.163.03.354.354 0 0 1-.4-.4q0-.277.444-.454a3.641 3.641 0 0 1 1.353-.222q2.084 0 2.084 1.911zm-1.289-1.378a1.424 1.424 0 0 0-.741-.188q-1.052 0-1.052.716t1.027.721a1.408 1.408 0 0 0 .775-.2.576.576 0 0 0-.01-1.047z"/><path data-name="Path 16" d="M123.843 51.917q-1.284 0-1.284 1.545v1.659a.476.476 0 0 1-.953 0v-3.59a.428.428 0 0 1 .487-.48.421.421 0 0 1 .469.484v.434a1.212 1.212 0 0 1 1.284-.938.445.445 0 0 1 0 .889z"/><path data-name="Path 17" d="M128.188 55.122a.476.476 0 0 1-.953 0v-5.945a.476.476 0 0 1 .953 0v3.629l2.123-1.659a.428.428 0 0 1 .292-.1q.434 0 .434.415a.463.463 0 0 1-.222.361l-1.363 1.067 1.556 2a.452.452 0 0 1 .1.272q0 .434-.455.434a.384.384 0 0 1-.321-.178l-1.56-2-.583.474z"/><path data-name="Path 18" d="M137.855 51.685a2.417 2.417 0 0 1 .573 1.649q0 .321-.365.321h-3.022a1.2 1.2 0 0 0 1.363 1.224 1.682 1.682 0 0 0 1.175-.494.434.434 0 0 1 .311-.153.349.349 0 0 1 .395.4.413.413 0 0 1-.123.272 2.523 2.523 0 0 1-3.516.054 2.508 2.508 0 0 1 .054-3.289 2.187 2.187 0 0 1 1.625-.657 1.941 1.941 0 0 1 1.53.673zm-.306 1.2a1.308 1.308 0 0 0-.385-.79 1.256 1.256 0 0 0-2.1.79z"/><path data-name="Path 19" d="M143.227 55.122a.474.474 0 1 1-.948 0v-3.2h-.77a.4.4 0 0 1 0-.79h.77v-1.323a.474.474 0 1 1 .948 0v1.323h.869a.4.4 0 0 1 0 .79h-.869z"/><path data-name="Path 20" d="M147.799 49.245a.558.558 0 1 1-.558.558.491.491 0 0 1 .558-.558zm.474 5.876a.476.476 0 0 1-.953 0v-3.6a.476.476 0 0 1 .953 0z"/><path data-name="Path 21" d="M156.094 55.121a.474.474 0 0 1-.948 0v-2.02q0-1.234-1.146-1.234a1.125 1.125 0 0 0-.879.361 1.271 1.271 0 0 0-.311.884v2.01a.476.476 0 0 1-.953 0v-3.59a.476.476 0 1 1 .953 0v.326a1.511 1.511 0 0 1 1.452-.849 1.686 1.686 0 0 1 1.353.578 2.18 2.18 0 0 1 .479 1.471z"/><path data-name="Path 22" d="M163.974 55.205a2.316 2.316 0 0 1-.548 1.664 2.424 2.424 0 0 1-1.817.617 3.964 3.964 0 0 1-.874-.094 3.451 3.451 0 0 1-.889-.351.433.433 0 0 1-.252-.375.371.371 0 0 1 .2-.346.454.454 0 0 1 .474.035 2.47 2.47 0 0 0 1.274.366 1.522 1.522 0 0 0 1.17-.385 1.545 1.545 0 0 0 .306-1.062v-.647a1.639 1.639 0 0 1-1.536.849 2.008 2.008 0 0 1-1.565-.662 2.475 2.475 0 0 1 0-3.155 2.014 2.014 0 0 1 1.565-.652 1.676 1.676 0 0 1 1.57.849v-.326q0-.484.454-.484a.415.415 0 0 1 .464.474zm-1.323-2.982a1.265 1.265 0 0 0-.983-.42 1.285 1.285 0 0 0-.988.41 1.593 1.593 0 0 0 0 2.054 1.285 1.285 0 0 0 .988.41 1.265 1.265 0 0 0 .983-.42 1.582 1.582 0 0 0 0-2.034z"/></g><path data-name="Path 23" d="M45.352 10.106L30.088 1.174a10.847 10.847 0 0 0-9.819 0L4.874 10.106A10.863 10.863 0 0 0 .45 15.998v-.019a7.075 7.075 0 0 0-.382 1.74 7.494 7.494 0 0 0-.064.914v18.268a10.783 10.783 0 0 0 4.766 8.527l11.739 6.868 3.526 2.063a9.69 9.69 0 0 0 4.291 1.158 10.3 10.3 0 0 0 5.527-1.158l14.931-8.663.463-.269a10.782 10.782 0 0 0 4.372-5.727c.017-.049.038-.1.054-.145a7.068 7.068 0 0 0 .382-1.74 7.483 7.483 0 0 0 .064-.914V18.632a10.783 10.783 0 0 0-4.767-8.526z" fill="#21937f"/><g data-name="Group 3" clip-path="url(#a)" fill="none" stroke="#fff" stroke-miterlimit="10" stroke-width=".109" opacity=".55"><path data-name="Path 24" d="M17.271-1.406h15.486l-6.263 18.973z"/><path data-name="Path 25" d="M17.271-1.406l9.223 18.968-12.421 9.18z"/><path data-name="Path 26" d="M14.074 26.746l3.198-28.152-19.708 15.231z"/><path data-name="Path 27" d="M14.074 26.747L0 44.431l-2.436-30.605z"/><path data-name="Path 28" d="M14.074 26.747l9.725 15.18-23.8 2.5z"/><path data-name="Path 29" d="M26.494 17.567l-12.421 9.18 9.723 15.183z"/><path data-name="Path 30" d="M26.495 17.567l29.844-3.045-23.58-15.928z"/><path data-name="Path 31" d="M26.495 17.567l14.922 16.808 14.922-19.853z"/><path data-name="Path 32" d="M23.797 41.93l17.62-7.555-14.922-16.808z"/><path data-name="Path 33" d="M23.799 41.93l1.218 20.447L-.001 44.431z"/><path data-name="Path 34" d="M41.417 34.375l-16.4 28-1.218-20.447z"/><path data-name="Path 35" d="M41.416 34.375l3.35 20-19.751 8.005z"/><path data-name="Path 36" d="M41.417 34.375l14.922-19.853-3.219 31.41-8.353 8.44z"/></g><path data-name="Path 38" d="M38.276 23.984l-6.44 6.957-.722.78-3.459-4.568-8.27-11.956L-.001 36.032v.865a10.783 10.783 0 0 0 4.766 8.527l11.74 6.873 3.526 2.063a9.69 9.69 0 0 0 4.291 1.158 10.3 10.3 0 0 0 5.527-1.158l14.932-8.663.463-.269a7.8 7.8 0 0 0 1.3-.961l.43-6.874z" fill="#1b7362" opacity=".3"/><path data-name="Path 39" d="M46.495 26.028c-.606-1.676-1.638-3.678-3.608-4.063a4.486 4.486 0 0 0-4.866 2.413c-1.537 2.599-2.183 5.829-2.889 8.729-.562 2.3-1.072 4.614-1.676 6.9-.4-1.793-.715-3.606-1.015-5.413l-.6-3.65a79.994 79.994 0 0 0-2.087-9.569c-.676-2.268-1.529-5.376-3.483-6.934-2.54-2.026-5.253-1.41-7.153 1.087a15.665 15.665 0 0 0-2.316 5.895 74.3 74.3 0 0 0-1.6 19.307 66.956 66.956 0 0 0 1.3 11.561l3.526 2.063a9.69 9.69 0 0 0 4.291 1.158c-.036-.07-.07-.135-.08-.157l-.15-.327c-.217-.546-.418-1.1-.594-1.66a35.577 35.577 0 0 1-1.008-4.083q-.21-1.113-.37-2.235a.041.041 0 0 0 0-.008c-.02-.163-.041-.325-.06-.488-.046-.393-.09-.785-.128-1.179q-.238-2.418-.317-4.849a85.919 85.919 0 0 1 .24-9.872 77.257 77.257 0 0 1 .345-3.31l.059-.408c.191-1.277.414-2.549.709-3.806.085-.362.177-.723.274-1.083.012.04.027.078.04.118a56.309 56.309 0 0 1 1.419 5.461c.894 4.184 1.43 8.43 2.27 12.624a36.331 36.331 0 0 0 1.67 6.332c.725 1.824 1.627 3.61 3.639 4.259 3.84 1.237 5.647-3.395 6.519-6.156 1.023-3.238 1.721-6.576 2.531-9.872q.231-.942.473-1.882c.878 4.237 1.406 8.736 2.987 12.764l.463-.269a10.782 10.782 0 0 0 4.375-5.727c-.4-2.455-.935-5.253-1.415-7.594a45.6 45.6 0 0 0-1.715-6.077z" fill="#fff"/></svg>