<svg xmlns="http://www.w3.org/2000/svg" width="121.576" height="100" viewBox="0 0 121.576 100"><g transform="translate(-1277 -2084)"><rect data-name="Rectangle 83" width="121" height="100" rx="15" transform="translate(1277 2084)" fill="none"/><g transform="translate(1277.423 2039.302)"><circle data-name="Ellipse 153" cx="11.538" cy="11.538" r="11.538" transform="translate(5.769 44.698)" fill="#ffc269"/><path data-name="Path 1248" d="M49.935 71.621c0-11.683-7.483-21.154-19.166-21.154a21.084 21.084 0 0 0-14.7 5.945 57.739 57.739 0 0 0-2.108 13.282c0 9.615 5.125 17.311 16.808 17.311s19.166-5.769 19.166-15.384z" fill="#ffa95f"/><path data-name="Path 1249" d="M23.08 63.929a17.606 17.606 0 0 1-7.01-7.516 21.077 21.077 0 0 0-6.452 15.208c0 9.564 9.372 15.317 20.968 15.379z" fill="#ff8b5a"/><path data-name="Path 1250" d="M36.538 98.544H23.075A15.385 15.385 0 0 0 7.69 113.929v25h38.463v-30.77a9.615 9.615 0 0 0-9.615-9.615z" fill="#86e2a3"/><path data-name="Path 1251" d="M23.077 98.544h-1.923a15.385 15.385 0 0 0-15.385 15.385v25h3.846v-25a11.538 11.538 0 0 1 11.539-11.539h1.923z" fill="#21937f"/><path data-name="Path 1252" d="M28.846 106.236a7.692 7.692 0 0 1-7.692-7.692v-2.563l15.385 1.653v.911a7.692 7.692 0 0 1-7.693 7.691z" fill="#f7d291"/><path data-name="Path 1253" d="M21.157 95.981a19.1 19.1 0 0 0 15.385 1.652v-8.7H21.157z" fill="#ecbd83"/><path data-name="Path 1254" d="M53.846 135.398H21.06a3.846 3.846 0 0 1-3.846-3.846v-17.623l2.017-3.846h34.615a3.846 3.846 0 0 1 3.846 3.846v19.231z" fill="#eceaec"/><path data-name="Path 1255" d="M19.231 110.083a3.846 3.846 0 0 0-3.846 3.846v19.231a3.846 3.846 0 0 0 3.846 3.846h34.615a3.846 3.846 0 0 0 3.846-3.846H25a5.769 5.769 0 0 1-5.769-5.769z" fill="#dad8db"/><path data-name="Path 1256" d="M23.015 63.929c6.114 4.335 14.848 5.74 19.627 6.194a3.828 3.828 0 0 1 3.45 3.825v5.365A15.388 15.388 0 0 1 32.705 94.57a20.8 20.8 0 0 1-2.3-.02c-8.5 0-13.547-6.74-13.547-15.237 0-4.06-.147-7.978 2.371-11.134.231-.29.462-.582.713-.858z" fill="#ffe1a0"/><path data-name="Path 1257" d="M19.231 79.314V68.176a14.861 14.861 0 0 0-3.846 9.976v1.162a15.385 15.385 0 0 0 15.384 15.384 15.653 15.653 0 0 0 1.933-.128 15.392 15.392 0 0 1-13.471-15.256z" fill="#f7d291"/><circle data-name="Ellipse 154" cx="3.846" cy="3.846" r="3.846" transform="translate(32.692 119.698)" fill="#fff"/><path data-name="Path 1258" d="M32.628 87.787a11.353 11.353 0 0 1-4.635-.951 1.922 1.922 0 1 1 1.578-3.506 8.08 8.08 0 0 0 6.115 0 1.923 1.923 0 0 1 1.578 3.508 11.39 11.39 0 0 1-4.636.949z" fill="#fff"/><circle data-name="Ellipse 155" cx="1.923" cy="1.923" r="1.923" transform="translate(25 74.506)" fill="#21937f"/><circle data-name="Ellipse 156" cx="1.923" cy="1.923" r="1.923" transform="translate(36.538 74.506)" fill="#21937f"/><path data-name="Path 1259" d="M69.231 137.006H1.923a1.923 1.923 0 0 0 0 3.846h67.308z" fill="#ecbd83"/><path data-name="Path 1260" d="M111.133 98.339l-7.283-3.641-9.553-1.5-13.527 1.5-11.132 5.566a7.682 7.682 0 0 0-2.684 2.225l2.277 35.043h46.154v-32.313a7.693 7.693 0 0 0-4.252-6.88z" fill="#c3ddff"/><path data-name="Path 1261" d="M78.846 116.627a9.616 9.616 0 0 0-3.609-7.508l-8.284-6.629a7.7 7.7 0 0 0-1.569 4.654v33.707a3.846 3.846 0 0 0 3.846 3.846h9.615v-28.07z" fill="#a4ccff"/><path data-name="Path 1262" d="M113.461 117.775H90.384c-4.248 0-9.892 2.538-10.759 7.921l3.067 19h34.615a3.846 3.846 0 0 0 3.846-3.846v-15.383a7.692 7.692 0 0 0-7.692-7.692z" fill="#21937f"/><path data-name="Path 1263" d="M90.384 117.775H86.54a7.692 7.692 0 0 0-7.692 7.692v19.231h3.846v-19.231a7.692 7.692 0 0 1 7.69-7.692z" fill="#21937f"/><path data-name="Path 1264" d="M82.692 86.89v5.659a1.923 1.923 0 0 1-1.063 1.72l-.86.43h23.076l-1.721-.86a3.846 3.846 0 0 1-2.126-3.44V58.161H72.645v15.385c0 7.165 3.415 11.633 10.047 13.344z" fill="#f5b97d"/><path data-name="Path 1265" d="M75 73.545V58.16h-3.844v15.385a15.388 15.388 0 0 0 13.2 15.228 1.934 1.934 0 0 0 2.186-1.92 1.9 1.9 0 0 0-1.637-1.887A11.541 11.541 0 0 1 75 73.545z" fill="#e3aa75"/><path data-name="Path 1266" d="M92.307 46.621H78.846c-5.31 0-8.687 3.544-8.687 8.855a3.846 3.846 0 0 0 3.846 3.846c3.186 0 4.84 3.344 4.84 6.53v5.769a9.615 9.615 0 0 0 9.618 9.615h9.615a7.692 7.692 0 0 0 7.692-7.692V60.083a13.461 13.461 0 0 0-13.463-13.462z" fill="#9f6e50"/><path data-name="Path 1267" d="M76.922 46.621a9.615 9.615 0 0 0-9.615 9.615 3.846 3.846 0 0 0 3.846 3.846h1.923a5.769 5.769 0 0 1 5.769 5.769v-19.23z" fill="#785353"/></g></g></svg>