<svg xmlns="http://www.w3.org/2000/svg" width="100.392" height="100" viewBox="0 0 100.392 100"><path data-name="Path 1225" d="M100.222 19.608L80.785.172a2.91 2.91 0 0 0-.98-.172h-49.02a6.871 6.871 0 0 0-6.863 6.863v86.274A6.871 6.871 0 0 0 30.785 100H93.53a6.871 6.871 0 0 0 6.863-6.863V20.588a2.941 2.941 0 0 0-.171-.98z" fill="#d6f6f1"/><path data-name="Path 1226" d="M100.221 19.608L80.784.172a2.91 2.91 0 0 0-.98-.172H62.157v100H93.53a6.871 6.871 0 0 0 6.863-6.863V20.588a2.941 2.941 0 0 0-.172-.98z" fill="#86e2a3"/><g data-name="Group 12028"><path data-name="Path 1227" d="M1.723 98.277a5.882 5.882 0 0 0 8.319 0l26.17-26.17-8.319-8.319-26.17 26.17a5.882 5.882 0 0 0 0 8.319z" fill="#219090"/><path data-name="Path 1228" d="M1.723 98.277a5.882 5.882 0 0 0 8.319 0l26.17-26.17-4.159-4.159z" fill="#21937f"/><path data-name="Path 1229" d="M99.53 18.509L81.885.862a2.934 2.934 0 0 0-1.1-.69v16.495a2.941 2.941 0 0 0 2.941 2.941h16.495a2.933 2.933 0 0 0-.691-1.099z" fill="#d6f6f1"/><path data-name="Path 1230" d="M68.039 23.529H38.627a2.941 2.941 0 0 1 0-5.882h29.412a2.941 2.941 0 1 1 0 5.882z" fill="#f2fffd"/><path data-name="Path 1231" d="M85.686 82.353H70a2.941 2.941 0 0 1 0-5.882h15.686a2.941 2.941 0 0 1 0 5.882z" fill="#f6fdfb"/><g data-name="Group 12018"><path data-name="Path 1232" d="M85.686 35.294H44.117a2.941 2.941 0 1 1 0-5.882h41.569a2.941 2.941 0 1 1 0 5.882z" fill="#f6fdfb"/><path data-name="Path 1233" d="M85.686 47.059H44.117a2.941 2.941 0 1 1 0-5.882h41.569a2.941 2.941 0 1 1 0 5.882z" fill="#f6fdfb"/><path data-name="Path 1234" d="M88.627 44.118a2.941 2.941 0 0 0-2.942-2.941H62.156v5.882h23.529a2.941 2.941 0 0 0 2.942-2.941z" fill="#f6fdfb"/><path data-name="Path 1235" d="M85.686 58.823H44.117a2.941 2.941 0 1 1 0-5.882h41.569a2.941 2.941 0 1 1 0 5.882z" fill="#f6fdfb"/><path data-name="Path 1236" d="M85.685 58.823a2.941 2.941 0 0 0 0-5.882H62.156v5.882z" fill="#f6fdfb"/><path data-name="Path 1237" d="M85.686 70.588H44.117a2.941 2.941 0 0 1 0-5.882h41.569a2.941 2.941 0 0 1 0 5.882z" fill="#f6fdfb"/><path data-name="Path 1238" d="M85.685 70.588a2.941 2.941 0 0 0 0-5.882H62.156v5.882z" fill="#f6fdfb"/></g><g data-name="Group 12027"><circle data-name="Ellipse 152" cx="23.5" cy="23.5" r="23.5" fill="#f7fefa" transform="translate(21 32)"/><path data-name="Path 1240" d="M48.039 60.784h-7.843a14.647 14.647 0 0 0-14.492 12.275l7.365 4.577 7.365 3.917h7.365l7.365-3.917 7.365-4.577a14.648 14.648 0 0 0-14.49-12.275z" fill="#ff8493"/><path data-name="Path 1241" d="M48.039 60.784h-3.922v20.769H47.8l7.365-3.917 7.365-4.577a14.647 14.647 0 0 0-14.491-12.275z" fill="#ff1f3d"/><path data-name="Path 1242" d="M44.118 64.706a11.765 11.765 0 1 1 11.765-11.765 11.778 11.778 0 0 1-11.765 11.765z" fill="#ffd7aa"/></g></g><path data-name="Path 1243" d="M44.118 82.353a26.471 26.471 0 1 1 26.471-26.471 26.5 26.5 0 0 1-26.471 26.471zm0-47.059a20.588 20.588 0 1 0 20.588 20.588 20.612 20.612 0 0 0-20.588-20.588z" fill="#21937f"/><path data-name="Path 1244" d="M62.823 37.174l-4.157 4.157a20.579 20.579 0 1 1-29.1 29.1l-4.157 4.158a26.458 26.458 0 1 0 37.414-37.415z" fill="#219090"/><path data-name="Path 1245" d="M44.118 41.176v23.529a11.765 11.765 0 0 0 0-23.529z" fill="#ffc58f"/><g data-name="Group 12033" fill="#f6fdfb"><path data-name="Path 1246" d="M70.981 20.588a2.941 2.941 0 0 0-2.942-2.941h-5.882v5.882h5.882a2.941 2.941 0 0 0 2.942-2.941z"/><path data-name="Path 1247" d="M88.628 32.353a2.941 2.941 0 0 0-2.942-2.941H62.157v5.882h23.529a2.941 2.941 0 0 0 2.942-2.941z"/></g></svg>