<svg xmlns="http://www.w3.org/2000/svg" width="12.891" height="12.891" viewBox="0 0 12.891 12.891"><path d="M12.492 10.153a1.358 1.358 0 0 1-.336 2.165 4.861 4.861 0 0 1-3.529.414C5.479 11.938.953 7.413.161 4.264A4.861 4.861 0 0 1 .575.735 1.358 1.358 0 0 1 2.739.403l1.343 1.339a1.349 1.349 0 0 1 .287 1.5 2.5 2.5 0 0 1-.5.755C2.333 5.533 7.36 10.56 8.895 9.023a2.5 2.5 0 0 1 .756-.5 1.348 1.348 0 0 1 1.5.287zM5.525.503a.644.644 0 1 0 .552 1.16 3.866 3.866 0 0 1 5.151 5.151.645.645 0 0 0 1.164.553A5.155 5.155 0 0 0 5.525.503zm3.121 6.481a.644.644 0 0 0 .911 0 2.579 2.579 0 1 0-3.645-3.649.644.644 0 0 0 .911.911 1.32 1.32 0 0 1 1.823 0 1.289 1.289 0 0 1 0 1.822.644.644 0 0 0 0 .911z" fill="#21937f"/></svg>