<svg xmlns="http://www.w3.org/2000/svg" width="78.438" height="100" viewBox="0 0 78.438 100">
  <g id="cv" transform="translate(-55.199)">
    <g id="Group_12002" data-name="Group 12002" transform="translate(55.199)">
      <g id="Group_11984" data-name="Group 11984">
        <g id="Group_11983" data-name="Group 11983">
          <g id="Group_11982" data-name="Group 11982">
            <g id="Group_11981" data-name="Group 11981">
              <path id="Path_1210" data-name="Path 1210" d="M236.058,0h-28.48l-5.5,7.29V93.636l5.5,6.364h28.48a4.268,4.268,0,0,0,4.268-4.268V4.268A4.267,4.267,0,0,0,236.058,0Z" transform="translate(-173.391)" fill="#f4fbff"/>
              <path id="Path_1211" data-name="Path 1211" d="M382.437,0H369.691a4.268,4.268,0,0,1,4.268,4.268V95.732A4.268,4.268,0,0,1,369.691,100h12.746a4.268,4.268,0,0,0,4.268-4.268V4.268A4.268,4.268,0,0,0,382.437,0Z" transform="translate(-308.267)" fill="#e4f6ff"/>
              <path id="Path_1212" data-name="Path 1212" d="M89.386,0H59.467A4.268,4.268,0,0,0,55.2,4.268V95.732A4.268,4.268,0,0,0,59.467,100h29.92Z" transform="translate(-55.199)" fill="#21937f"/>
            </g>
          </g>
        </g>
      </g>
      <g id="Group_11989" data-name="Group 11989" transform="translate(42.595 14.318)">
        <g id="Group_11986" data-name="Group 11986" transform="translate(0 0)">
          <g id="Group_11985" data-name="Group 11985">
            <path id="Path_1213" data-name="Path 1213" d="M280.818,88.378A7.533,7.533,0,1,1,285.031,74.6a1.51,1.51,0,1,1-1.69,2.5,4.514,4.514,0,1,0-2.523,8.258,3.235,3.235,0,0,0,2.638-1.161,1.51,1.51,0,1,1,2.314,1.94,6.25,6.25,0,0,1-4.951,2.24Z" transform="translate(-273.285 -73.312)" fill="#21937f"/>
          </g>
        </g>
        <g id="Group_11988" data-name="Group 11988" transform="translate(16.676)">
          <g id="Group_11987" data-name="Group 11987">
            <path id="Path_1214" data-name="Path 1214" d="M364.549,88.376a1.783,1.783,0,0,1-1.679-1.185l-4.122-11.876a1.51,1.51,0,0,1,2.852-.99l2.923,8.421,2.784-8.38a1.51,1.51,0,0,1,2.865.952l-3.933,11.84a1.786,1.786,0,0,1-1.678,1.218h-.012Z" transform="translate(-358.664 -73.31)" fill="#21937f"/>
          </g>
        </g>
      </g>
      <g id="Group_11991" data-name="Group 11991" transform="translate(6.654 11.393)">
        <g id="Group_11990" data-name="Group 11990">
          <circle id="Ellipse_150" data-name="Ellipse 150" cx="10.459" cy="10.459" r="10.459" fill="#f4fbff"/>
          <path id="Path_1215" data-name="Path 1215" d="M113.787,124.512a7.35,7.35,0,0,0-7.046,5.262,10.458,10.458,0,0,0,14.092,0A7.35,7.35,0,0,0,113.787,124.512Z" transform="translate(-103.328 -111.586)" fill="#407093"/>
          <circle id="Ellipse_151" data-name="Ellipse 151" cx="3.701" cy="3.701" r="3.701" transform="translate(6.758 6.454)" fill="#365e7d"/>
        </g>
      </g>
      <g id="Group_11992" data-name="Group 11992" transform="translate(6.615 46.556)">
        <path id="Path_1216" data-name="Path 1216" d="M108.314,246.18H90.821a1.751,1.751,0,0,1-1.751-1.751v-4.313a1.751,1.751,0,0,1,1.751-1.751h17.493a1.751,1.751,0,0,1,1.751,1.751v4.313A1.751,1.751,0,0,1,108.314,246.18Z" transform="translate(-89.07 -238.366)" fill="#86e2a3"/>
        <path id="Path_1217" data-name="Path 1217" d="M108.314,328.093H90.821a1.751,1.751,0,0,1-1.751-1.751V322.03a1.751,1.751,0,0,1,1.751-1.751h17.493a1.751,1.751,0,0,1,1.751,1.751v4.313A1.751,1.751,0,0,1,108.314,328.093Z" transform="translate(-89.07 -304.28)" fill="#86e2a3"/>
        <path id="Path_1218" data-name="Path 1218" d="M108.314,410.006H90.821a1.751,1.751,0,0,1-1.751-1.751v-4.313a1.751,1.751,0,0,1,1.751-1.751h17.493a1.751,1.751,0,0,1,1.751,1.751v4.313A1.751,1.751,0,0,1,108.314,410.006Z" transform="translate(-89.07 -370.195)" fill="#86e2a3"/>
      </g>
      <g id="Group_12001" data-name="Group 12001" transform="translate(40.569 38.313)">
        <g id="Group_11998" data-name="Group 11998" transform="translate(0 9.26)">
          <g id="Group_11993" data-name="Group 11993">
            <path id="Path_1219" data-name="Path 1219" d="M292.735,246.589H264.424a1.51,1.51,0,1,1,0-3.019h28.311a1.51,1.51,0,0,1,0,3.019Z" transform="translate(-262.914 -243.57)" fill="#407093"/>
          </g>
          <g id="Group_11994" data-name="Group 11994" transform="translate(0 9.26)">
            <path id="Path_1220" data-name="Path 1220" d="M278.579,294H264.424a1.51,1.51,0,1,1,0-3.019h14.156a1.51,1.51,0,1,1,0,3.019Z" transform="translate(-262.914 -290.979)" fill="#407093"/>
          </g>
          <g id="Group_11995" data-name="Group 11995" transform="translate(0 18.519)">
            <path id="Path_1221" data-name="Path 1221" d="M292.735,341.408H264.424a1.51,1.51,0,0,1,0-3.019h28.311a1.51,1.51,0,0,1,0,3.019Z" transform="translate(-262.914 -338.389)" fill="#407093"/>
          </g>
          <g id="Group_11996" data-name="Group 11996" transform="translate(0 27.779)">
            <path id="Path_1222" data-name="Path 1222" d="M292.735,388.817H264.424a1.51,1.51,0,1,1,0-3.019h28.311a1.51,1.51,0,0,1,0,3.019Z" transform="translate(-262.914 -385.798)" fill="#407093"/>
          </g>
          <g id="Group_11997" data-name="Group 11997" transform="translate(0 37.286)">
            <path id="Path_1223" data-name="Path 1223" d="M278.579,437.491H264.424a1.51,1.51,0,1,1,0-3.019h14.156a1.51,1.51,0,1,1,0,3.019Z" transform="translate(-262.914 -434.472)" fill="#407093"/>
          </g>
        </g>
        <g id="Group_12000" data-name="Group 12000">
          <g id="Group_11999" data-name="Group 11999">
            <path id="Path_1224" data-name="Path 1224" d="M292.735,199.18H264.424a1.51,1.51,0,1,1,0-3.019h28.311a1.51,1.51,0,0,1,0,3.019Z" transform="translate(-262.914 -196.161)" fill="#407093"/>
          </g>
        </g>
      </g>
    </g>
  </g>
</svg>
