<svg xmlns="http://www.w3.org/2000/svg" width="18.607" height="18.607" viewBox="0 0 18.607 18.607">
  <g id="dollar-circle2" transform="translate(-1.25 -1.25)">
    <path id="Path_1205" data-name="Path 1205" d="M12.662,15.96H10.489a2.62,2.62,0,0,1-2.57-2.666.649.649,0,0,1,1.3,0,1.325,1.325,0,0,0,1.272,1.367h2.172a1.079,1.079,0,0,0,1.03-1.108c0-.753-.268-.9-.71-1.056L9.494,11.269A2.166,2.166,0,0,1,7.91,8.984a2.369,2.369,0,0,1,2.328-2.406h2.172a2.62,2.62,0,0,1,2.57,2.666.649.649,0,0,1-1.3,0,1.325,1.325,0,0,0-1.272-1.367H10.238a1.079,1.079,0,0,0-1.03,1.108c0,.753.268.9.71,1.056l3.488,1.229a2.166,2.166,0,0,1,1.584,2.285A2.38,2.38,0,0,1,12.662,15.96Z" transform="translate(-0.896 -0.717)" fill="#21937f"/>
    <path id="Path_1206" data-name="Path 1206" d="M11.9,16.934a.654.654,0,0,1-.649-.649V5.9a.649.649,0,1,1,1.3,0V16.284A.654.654,0,0,1,11.9,16.934Z" transform="translate(-1.345 -0.538)" fill="#21937f"/>
    <path id="Path_1207" data-name="Path 1207" d="M10.554,19.857a9.3,9.3,0,1,1,9.3-9.3A9.311,9.311,0,0,1,10.554,19.857Zm0-17.309a8.005,8.005,0,1,0,8.005,8.005A8.015,8.015,0,0,0,10.554,2.548Z" transform="translate(0 0)" fill="#21937f"/>
  </g>
</svg>
