<svg xmlns="http://www.w3.org/2000/svg" width="13.753" height="13.753" viewBox="0 0 13.753 13.753">
  <g id="dollar-circle" transform="translate(-1.25 -1.25)">
    <path id="Path_1205" data-name="Path 1205" d="M11.422,13.512H9.816a1.937,1.937,0,0,1-1.9-1.97.48.48,0,1,1,.96,0,.979.979,0,0,0,.94,1.011h1.606a.8.8,0,0,0,.761-.819c0-.557-.2-.665-.525-.78l-2.578-.908A1.6,1.6,0,0,1,7.91,8.356,1.751,1.751,0,0,1,9.631,6.578h1.606a1.937,1.937,0,0,1,1.9,1.97.48.48,0,0,1-.96,0,.979.979,0,0,0-.94-1.011H9.631a.8.8,0,0,0-.761.819c0,.557.2.665.525.78l2.578.908a1.6,1.6,0,0,1,1.171,1.689A1.759,1.759,0,0,1,11.422,13.512Z" transform="translate(-2.4 -1.92)" fill="#21937f"/>
    <path id="Path_1206" data-name="Path 1206" d="M11.73,13.886a.483.483,0,0,1-.48-.48V5.73a.48.48,0,1,1,.96,0v7.676A.483.483,0,0,1,11.73,13.886Z" transform="translate(-3.603 -1.441)" fill="#21937f"/>
    <path id="Path_1207" data-name="Path 1207" d="M8.126,15A6.876,6.876,0,1,1,15,8.126,6.882,6.882,0,0,1,8.126,15Zm0-12.793a5.917,5.917,0,1,0,5.917,5.917A5.924,5.924,0,0,0,8.126,2.21Z" fill="#21937f"/>
  </g>
</svg>
