<svg xmlns="http://www.w3.org/2000/svg" width="100.211" height="100" viewBox="0 0 100.211 100">
  <g id="hired" transform="translate(-16.842)">
    <path id="Path_1295" data-name="Path 1295" d="M40.864,223.1a2.341,2.341,0,0,1,1.754,2.774l-.683,3.155-5.777,25.658-.639,2.556a2.341,2.341,0,0,1-2.768,1.72l-8.313-1.807a2.341,2.341,0,0,1-1.785-2.81l6.977-31.41a2.341,2.341,0,0,1,2.816-1.756Z" transform="translate(-5.751 -183.556)" fill="#21937f"/>
    <g id="Group_12069" data-name="Group 12069" transform="translate(56.778 3.178)">
      <path id="Path_1296" data-name="Path 1296" d="M185.355,17.993h-11.4a2.746,2.746,0,0,0-2.743,2.743v3.843a1.238,1.238,0,0,0,1.237,1.237h1.237V20.736a.269.269,0,0,1,.269-.269h11.4a.269.269,0,0,1,.269.269v5.081h1.237a1.238,1.238,0,0,0,1.237-1.237V20.736A2.746,2.746,0,0,0,185.355,17.993Z" transform="translate(-171.21 -17.993)" fill="#8ebac5"/>
    </g>
    <g id="Group_12070" data-name="Group 12070" transform="translate(47.607 9.765)">
      <path id="Path_1297" data-name="Path 1297" d="M151.337,57.349l2.6,10.534s-3.813,11.577-4.955,11.577H121.355a2.064,2.064,0,0,1-2.065-2.065V68.788l.586-1.169a6.159,6.159,0,0,1-.586-2.706V57.345a2.064,2.064,0,0,1,2.065-2.065h27.624C150.121,55.28,151.337,57.347,151.337,57.349Z" transform="translate(-119.29 -55.28)" fill="#bc7c63"/>
    </g>
    <path id="Path_1298" data-name="Path 1298" d="M154.517,110.026v3.7a4.524,4.524,0,0,1-1.946.437H121.3a4.53,4.53,0,0,1-2.019-.471v-3.875a2,2,0,0,0,2.019,1.873h31.266A1.92,1.92,0,0,0,154.517,110.026Z" transform="translate(-71.68 -90.416)" fill="#aa6a51"/>
    <path id="Path_1299" data-name="Path 1299" d="M267.544,55.28h-8.185v4.849a3.189,3.189,0,0,0,3.189,3.189,1.228,1.228,0,0,1,1.228,1.228V77.155a2.3,2.3,0,0,1-2.3,2.3h6.072a2.3,2.3,0,0,0,2.3-2.3V57.584A2.3,2.3,0,0,0,267.544,55.28Z" transform="translate(-187.01 -45.515)" fill="#aa6a51"/>
    <g id="Group_12073" data-name="Group 12073" transform="translate(57.167 17.118)">
      <g id="Group_12071" data-name="Group 12071" transform="translate(0 0)">
        <path id="Path_1300" data-name="Path 1300" d="M174.654,103.536a1.237,1.237,0,0,1-1.237-1.237V98.147a1.237,1.237,0,0,1,2.474,0V102.3A1.237,1.237,0,0,1,174.654,103.536Z" transform="translate(-173.417 -96.91)" fill="#d9b1ee"/>
      </g>
      <g id="Group_12072" data-name="Group 12072" transform="translate(13.634 0)">
        <path id="Path_1301" data-name="Path 1301" d="M251.839,103.536A1.237,1.237,0,0,1,250.6,102.3V98.147a1.237,1.237,0,1,1,2.474,0V102.3A1.237,1.237,0,0,1,251.839,103.536Z" transform="translate(-250.602 -96.91)" fill="#d9b1ee"/>
      </g>
    </g>
    <path id="Path_1302" data-name="Path 1302" d="M271.261,290.037l13.293-14.494,7.986-1.966-5.777-25.658L260.936,245.2,256,260.1Z" transform="translate(-189.052 -202.475)" fill="#ffeee6"/>
    <path id="Path_1303" data-name="Path 1303" d="M380.217,280.908l-6.287,1.549-6.287-27.921,8.567.9Z" transform="translate(-276.729 -209.805)" fill="#ffdfcf"/>
    <path id="Path_1304" data-name="Path 1304" d="M290.431,111.019v3.7a4.523,4.523,0,0,1-1.946.437h-4.126v-2.474h4.126A1.92,1.92,0,0,0,290.431,111.019Z" transform="translate(-207.595 -91.408)" fill="#935b44"/>
    <path id="Path_1305" data-name="Path 1305" d="M397.685,222.988a2.341,2.341,0,0,0-1.754,2.774l.683,3.155,5.777,25.658.639,2.556a2.341,2.341,0,0,0,2.768,1.72l8.313-1.807a2.341,2.341,0,0,0,1.785-2.81l-6.977-31.41a2.341,2.341,0,0,0-2.816-1.756Z" transform="translate(-298.903 -183.472)" fill="#6c7fd8"/>
    <path id="Path_1306" data-name="Path 1306" d="M427.086,257.041l-6,1.305a2.339,2.339,0,0,0,1.15-2.573l-6.977-31.41a2.4,2.4,0,0,0-2.858-1.774l6.678-1.526a2.342,2.342,0,0,1,2.816,1.756l6.977,31.41A2.34,2.34,0,0,1,427.086,257.041Z" transform="translate(-311.876 -183.469)" fill="#4f66d0"/>
    <path id="Path_1307" data-name="Path 1307" d="M149.252,278.653l-.013.027a4.184,4.184,0,0,1-3.8,2.285.471.471,0,0,0-.387.759,4.184,4.184,0,0,1,.38,4.413l-.013.027a4.184,4.184,0,0,1-3.8,2.285.471.471,0,0,0-.387.759,4.18,4.18,0,0,1,.383,4.413l-.015.029a4.183,4.183,0,0,1-4.592,2.19.624.624,0,0,0-.142-.015.645.645,0,0,0-.6.9,4.2,4.2,0,0,1-5.765,5.4l-6.3-3.214s-.007,0-.011,0l-.06-.031-12.47-6.355a28.654,28.654,0,0,1-8.1-6.159l-9.8-10.684L85.786,273.7l3.523-25.419,28.042-2.951,3.785,11.3a9.213,9.213,0,0,0,4.537,5.283l6.251,3.2,7.477,3.811,1.657.845,6.364,3.245a4.186,4.186,0,0,1,1.829,5.629Z" transform="translate(-55.377 -202.579)" fill="#ffcebf"/>
    <path id="Path_1308" data-name="Path 1308" d="M168.023,261.874l-6.252-3.2a9.213,9.213,0,0,1-4.537-5.283l-10.488,5.139a4.784,4.784,0,0,1-4.88-8.192L147,246.681l12.815-1.349Z" transform="translate(-97.843 -202.577)" fill="#ffb09e"/>
    <path id="Path_1309" data-name="Path 1309" d="M193.02,245.2h-9.871l-11.621,8.28a4.783,4.783,0,0,0,4.879,8.19l8.76-4.291a1.875,1.875,0,0,1,2.455.784,9.2,9.2,0,0,0,3.81,3.65l6.251,3.2Z" transform="translate(-121.137 -202.475)" fill="#ffeee6"/>
    <path id="Path_1310" data-name="Path 1310" d="M287.991,362.447l-6.364-3.245a4.184,4.184,0,0,1,1.827,5.63l-.013.027a.233.233,0,0,1-.013.024,2.548,2.548,0,0,1-3.418,1.06l-3.1-1.58a1.66,1.66,0,1,0-1.507,2.957l3.1,1.575a2.546,2.546,0,0,1,1.155,3.387.233.233,0,0,1-.015.033l-.013.027a.227.227,0,0,1-.013.024,2.545,2.545,0,0,1-3.416,1.06l-3.1-1.58a1.66,1.66,0,1,0-1.507,2.958l3.1,1.575a2.549,2.549,0,0,1,1.157,3.387c-.007.011-.011.022-.018.033l-.015.027a.225.225,0,0,1-.013.024,2.545,2.545,0,0,1-3.416,1.06l-3.1-1.577a1.659,1.659,0,0,0-1.506,2.956l1.436.73a2.574,2.574,0,0,1,1.17,3.42l-.013.027a4.2,4.2,0,0,1-5.583,1.865l6.3,3.214a4.2,4.2,0,0,0,5.765-5.4.648.648,0,0,1,.739-.883,4.183,4.183,0,0,0,4.592-2.19l.015-.029a4.18,4.18,0,0,0-.383-4.413.471.471,0,0,1,.387-.759,4.184,4.184,0,0,0,3.8-2.285l.013-.027a4.185,4.185,0,0,0-.38-4.413.471.471,0,0,1,.387-.759,4.184,4.184,0,0,0,3.8-2.285l.013-.027A4.186,4.186,0,0,0,287.991,362.447Z" transform="translate(-195.946 -292.003)" fill="#ffb09e"/>
    <g id="Group_12077" data-name="Group 12077" transform="translate(77.957 0)">
      <g id="Group_12074" data-name="Group 12074" transform="translate(0 0)">
        <path id="Path_1311" data-name="Path 1311" d="M306.11,17.686H294.278a3.163,3.163,0,0,1-3.163-3.163V3.163A3.163,3.163,0,0,1,294.278,0H306.11a3.163,3.163,0,0,1,3.163,3.163V14.522A3.163,3.163,0,0,1,306.11,17.686Z" transform="translate(-291.115 0)" fill="#86e2a3"/>
      </g>
      <g id="Group_12075" data-name="Group 12075" transform="translate(9.535 0.001)">
        <path id="Path_1312" data-name="Path 1312" d="M353.714,3.167v11.36a3.165,3.165,0,0,1-3.164,3.164H345.09a3.164,3.164,0,0,0,3.164-3.164V3.167A3.163,3.163,0,0,0,345.09,0h5.461a3.163,3.163,0,0,1,3.164,3.162Z" transform="translate(-345.09 -0.005)" fill="#86e2a3"/>
      </g>
      <path id="Path_1313" data-name="Path 1313" d="M322.366,31.507l-3.955,3.955a1.365,1.365,0,0,1-1.931,0l-2.432-2.432a1.366,1.366,0,0,1,1.931-1.931l1.465,1.467,3.1-3.1.97-.97a1.363,1.363,0,0,1,.85-.395c.386-.033.741,1.023.741,1.023Z" transform="translate(-309.667 -23.137)" fill="#fff"/>
      <g id="Group_12076" data-name="Group 12076" transform="translate(12.699 4.96)">
        <path id="Path_1314" data-name="Path 1314" d="M364.086,30.408l-1.081,1.081V28.083a1.365,1.365,0,0,1,1.081,2.324Z" transform="translate(-363.005 -28.078)" fill="#fff"/>
      </g>
    </g>
    <path id="Path_1315" data-name="Path 1315" d="M52.76,228.065l-.684,3.157L46.3,256.878l-.639,2.557a2.342,2.342,0,0,1-2.77,1.719l-7.384-1.606c1.236.27,3.321-.434,3.628-1.661l.639-2.555,5.778-25.658.681-3.155a2.337,2.337,0,0,0-1.287-2.61l6.059,1.383a2.342,2.342,0,0,1,1.754,2.774Z" transform="translate(-15.892 -185.752)" fill="#86e2a3"/>
  </g>
</svg>
