<svg xmlns="http://www.w3.org/2000/svg" width="19.022" height="13.319" viewBox="0 0 19.022 13.319">
  <path id="icon-you" d="M18.631-4a2.383,2.383,0,0,0-1.677-1.677c-1.489-.407-7.443-.407-7.443-.407a57.848,57.848,0,0,0-7.443.392A2.431,2.431,0,0,0,.392-4,25.111,25.111,0,0,0,0,.577,25.019,25.019,0,0,0,.392,5.153,2.383,2.383,0,0,0,2.069,6.829c1.5.407,7.443.407,7.443.407a57.848,57.848,0,0,0,7.443-.392,2.383,2.383,0,0,0,1.677-1.677A25.119,25.119,0,0,0,19.023.593,23.837,23.837,0,0,0,18.631-4ZM7.616,3.429v-5.7L12.567.577Zm0,0" transform="translate(-0.001 6.082)" fill="#21937f"/>
</svg>
