<svg xmlns="http://www.w3.org/2000/svg" width="50.507" height="35.344" viewBox="0 0 50.507 35.344">
  <path id="img-qoute" d="M343.714,200.909a11.115,11.115,0,0,1-11.161,11.161,10.119,10.119,0,0,1-7.348-2.6,13.006,13.006,0,0,1-3.628-6.511,19.4,19.4,0,0,1,0-8.464,23.61,23.61,0,0,1,3.534-8.464,23.028,23.028,0,0,1,6.79-6.6,17.984,17.984,0,0,1,9.952-2.7v3.721a8.211,8.211,0,0,0-6.79,2.883,17.011,17.011,0,0,0-3.255,6.418h.744a11.115,11.115,0,0,1,11.161,11.161Zm27.9,0a11.115,11.115,0,0,1-11.161,11.161,10.12,10.12,0,0,1-7.348-2.6,13.009,13.009,0,0,1-3.627-6.511,19.4,19.4,0,0,1,0-8.464,23.61,23.61,0,0,1,3.534-8.464,23.023,23.023,0,0,1,6.79-6.6,17.984,17.984,0,0,1,9.952-2.7v3.721a8.211,8.211,0,0,0-6.79,2.883,17.011,17.011,0,0,0-3.255,6.418h.744a11.115,11.115,0,0,1,11.161,11.161Z" transform="translate(-321.11 -176.726)" fill="#21937f"/>
</svg>
