<svg xmlns="http://www.w3.org/2000/svg" width="100.004" height="100" viewBox="0 0 100.004 100">
  <g id="job-interview" transform="translate(0 -0.011)">
    <g id="Group_12067" data-name="Group 12067" transform="translate(0 0.011)">
      <g id="Group_12048" data-name="Group 12048" transform="translate(48.923 17.77)">
        <g id="Group_12035" data-name="Group 12035" transform="translate(12.34)">
          <path id="Path_1268" data-name="Path 1268" d="M327.321,90.99h-6.185a7.483,7.483,0,0,0-7.483,7.483v7.218l1.811,1.09h12.575V92.306Z" transform="translate(-313.653 -90.99)" fill="#efc984"/>
        </g>
        <path id="Path_1269" data-name="Path 1269" d="M290.1,289.057a9.216,9.216,0,0,0-6.62-8.843L272.536,277l.007-2.345h-4.9l-10.7,3.141a9.007,9.007,0,0,0-6.47,8.642v17.093H290.1Z" transform="translate(-250.477 -238.782)" fill="#4a80aa"/>
        <g id="Group_12036" data-name="Group 12036" transform="translate(21.245 35.874)">
          <path id="Path_1270" data-name="Path 1270" d="M382.612,277.8l-10.7-3.14H359.254l-.009,3.082,10.7,3.14a9.007,9.007,0,0,1,6.469,8.642v14.011h12.671V286.439A9.007,9.007,0,0,0,382.612,277.8Z" transform="translate(-359.245 -274.657)" fill="#407093"/>
        </g>
        <path id="Path_1271" data-name="Path 1271" d="M362.307,350.3l-3.93-17.523H354.12L350.19,350.3Z" transform="translate(-330.714 -285.554)" fill="#dd636e"/>
        <g id="Group_12046" data-name="Group 12046" transform="translate(12.339 0)">
          <g id="Group_12043" data-name="Group 12043" transform="translate(7.322 28.582)">
            <g id="Group_12042" data-name="Group 12042">
              <g id="Group_12041" data-name="Group 12041">
                <g id="Group_12040" data-name="Group 12040">
                  <g id="Group_12039" data-name="Group 12039">
                    <g id="Group_12038" data-name="Group 12038">
                      <g id="Group_12037" data-name="Group 12037">
                        <path id="Path_1272" data-name="Path 1272" d="M362.893,246.772v-9.446H351.14v9.446c0,3.246,5.877,3.534,5.877,3.534S362.893,250.018,362.893,246.772Z" transform="translate(-351.14 -237.326)" fill="#ffddce"/>
                      </g>
                    </g>
                  </g>
                </g>
              </g>
            </g>
          </g>
          <path id="Path_1273" data-name="Path 1273" d="M327.782,152.041a11.038,11.038,0,0,0,.256-2.455V137.069a17.692,17.692,0,0,1-6.735-.853h0a2.388,2.388,0,0,0-3.137,2.268v1.239a2.262,2.262,0,0,1-2.262,2.262h-2.247v3.7a1.712,1.712,0,0,0,1.712,1.712.563.563,0,0,1,.56.531,10.957,10.957,0,0,0,8.393,9.958A11.132,11.132,0,0,0,327.782,152.041Z" transform="translate(-313.652 -127.283)" fill="#ffddce"/>
          <g id="Group_12044" data-name="Group 12044" transform="translate(13.668)">
            <path id="Path_1274" data-name="Path 1274" d="M393.107,95.339H393a1.1,1.1,0,0,1-1.1-1.1,3.251,3.251,0,0,0-3.251-3.251h-5.02v15.791h10.919l1.811-1.09v-7.1a3.251,3.251,0,0,0-3.251-3.251Z" transform="translate(-383.628 -90.99)" fill="#eabc6b"/>
          </g>
          <g id="Group_12045" data-name="Group 12045" transform="translate(9.72 8.81)">
            <path id="Path_1275" data-name="Path 1275" d="M377.845,141.986a2.262,2.262,0,0,1-2.262-2.262v-1.238a2.388,2.388,0,0,0-3.138-2.268,17.678,17.678,0,0,1-5.083.884v12.107a10.7,10.7,0,0,1-3.948,8.405,10.95,10.95,0,0,0,14.407-9.686.563.563,0,0,1,.56-.531,1.712,1.712,0,0,0,1.712-1.712v-3.7h-2.247Z" transform="translate(-363.414 -136.095)" fill="#ffcbbe"/>
          </g>
        </g>
        <g id="Group_12047" data-name="Group 12047" transform="translate(14.813 35.065)">
          <path id="Path_1276" data-name="Path 1276" d="M328.875,270.7l-1.674.751a1.5,1.5,0,0,0-.446,2.423l4.635,4.642a1.6,1.6,0,0,0,2.143.082l3.635-3.036-6.2-4.63A2.078,2.078,0,0,0,328.875,270.7Z" transform="translate(-326.317 -270.516)" fill="#365e7d"/>
          <path id="Path_1277" data-name="Path 1277" d="M387.813,270.989l-5.942,4.6,3.416,2.921a1.6,1.6,0,0,0,2.15-.062l4.637-4.516a1.5,1.5,0,0,0-.435-2.439l-1.706-.76a2.08,2.08,0,0,0-2.12.255Z" transform="translate(-371.02 -270.546)" fill="#365e7d"/>
        </g>
      </g>
      <path id="Path_1278" data-name="Path 1278" d="M186.506,421.925l0-19.281H121.733v21.265h63.51A2.428,2.428,0,0,0,186.506,421.925Z" transform="translate(-97.956 -324.001)" fill="#ddb7a0"/>
      <path id="Path_1279" data-name="Path 1279" d="M437.75,402.645v19.064a2.323,2.323,0,0,1-2.28,2.2h10.77a4.178,4.178,0,0,0,4.178-4.178V402.645Z" transform="translate(-350.414 -324.002)" fill="#d6a889"/>
      <g id="Group_12063" data-name="Group 12063" transform="translate(7.811 32.566)">
        <g id="Group_12062" data-name="Group 12062" transform="translate(11.31 31.237)">
          <g id="Group_12061" data-name="Group 12061">
            <g id="Group_12060" data-name="Group 12060">
              <g id="Group_12059" data-name="Group 12059">
                <g id="Group_12058" data-name="Group 12058">
                  <g id="Group_12057" data-name="Group 12057">
                    <g id="Group_12056" data-name="Group 12056">
                      <g id="Group_12055" data-name="Group 12055">
                        <g id="Group_12054" data-name="Group 12054">
                          <g id="Group_12053" data-name="Group 12053">
                            <g id="Group_12052" data-name="Group 12052">
                              <g id="Group_12051" data-name="Group 12051">
                                <g id="Group_12050" data-name="Group 12050">
                                  <g id="Group_12049" data-name="Group 12049">
                                    <path id="Path_1280" data-name="Path 1280" d="M109.325,335.859v-9.186H97.895v9.186c0,3.156,5.715,3.437,5.715,3.437S109.325,339.016,109.325,335.859Z" transform="translate(-97.895 -326.673)" fill="#ffddce"/>
                                  </g>
                                </g>
                              </g>
                            </g>
                          </g>
                        </g>
                      </g>
                    </g>
                  </g>
                </g>
              </g>
            </g>
          </g>
        </g>
        <path id="Path_1281" data-name="Path 1281" d="M57.286,205.644a6.916,6.916,0,0,0,4.647-6.535,16.776,16.776,0,0,0-.706-4.81,27.569,27.569,0,0,1-1.161-7.908v-.007a15.645,15.645,0,0,0-8.729-14.03,15.217,15.217,0,0,0-9.531,14.111v.006a26.791,26.791,0,0,1-1.129,7.686,16.3,16.3,0,0,0-.686,4.675,6.722,6.722,0,0,0,4.517,6.353,38.143,38.143,0,0,0,7.824,1.821A39.191,39.191,0,0,0,57.286,205.644Z" transform="translate(-39.992 -171.259)" fill="#407093"/>
        <path id="Path_1282" data-name="Path 1282" d="M117.284,189.644a26.8,26.8,0,0,1-1.129-7.686v-.006A15.211,15.211,0,0,0,94.579,168.14a15.211,15.211,0,0,1,8.847,13.811v.006a26.791,26.791,0,0,0,1.129,7.686,16.293,16.293,0,0,1,.686,4.675,6.722,6.722,0,0,1-4.517,6.353,38.143,38.143,0,0,1-6.144,1.574,38.141,38.141,0,0,0,18.874-1.574,6.722,6.722,0,0,0,4.517-6.353A16.309,16.309,0,0,0,117.284,189.644Z" transform="translate(-83.917 -166.744)" fill="#365e7d"/>
      </g>
      <g id="Group_12064" data-name="Group 12064" transform="translate(6.911)">
        <path id="Path_1283" data-name="Path 1283" d="M71.9,21.143V4.438C71.9.367,68.354.013,65.911.011h-26.1a4.427,4.427,0,0,0-4.427,4.427v16.7a4.427,4.427,0,0,0,4.427,4.427h26.8l1.082-.058A4.343,4.343,0,0,0,71.9,21.143Z" transform="translate(-35.384 -0.011)" fill="#1ea28b"/>
      </g>
      <path id="Path_1284" data-name="Path 1284" d="M204.508.011H191.673A4.427,4.427,0,0,1,196.1,4.438v16.7a4.428,4.428,0,0,1-3.509,4.331.613.613,0,0,0-.22.1h4.14a.645.645,0,0,1,.456.189l6.627,6.627a.781.781,0,0,0,1.333-.552V26.1a.638.638,0,0,1,.5-.628,4.428,4.428,0,0,0,3.509-4.331V4.438A4.427,4.427,0,0,0,204.508.011Z" transform="translate(-154.235 -0.011)" fill="#21937f"/>
      <g id="Group_12065" data-name="Group 12065" transform="translate(0 70.689)">
        <path id="Path_1285" data-name="Path 1285" d="M37.885,375.974c0-3.887-2.186-5.764-6.292-6.645l-2.32-.442a4.3,4.3,0,0,1-3.359-3.159,6.1,6.1,0,0,1-6.781-3.769l-.013-.033L6.292,364.406A8.759,8.759,0,0,0,0,372.81v14.248a4.178,4.178,0,0,0,4.186,4.178l32.76-.067.918-.7Z" transform="translate(0 -361.925)" fill="#e28086"/>
      </g>
      <path id="Path_1286" data-name="Path 1286" d="M150.277,391.311a1.9,1.9,0,0,0,1.885-1.9V372.962a8.759,8.759,0,0,0-6.292-8.4l-12.834-2.444a6.058,6.058,0,0,1-5.674,3.855,4.3,4.3,0,0,0,3.458,3.68l2.32.442c4.105.882,6.292,2.758,6.292,6.645v14.585Z" transform="translate(-102.486 -291.388)" fill="#dd636e"/>
      <g id="Group_12066" data-name="Group 12066" transform="translate(70.16 57.879)">
        <path id="Path_1287" data-name="Path 1287" d="M367.046,299.262l-3.416-2.921L360,299.377a1.594,1.594,0,0,1-.793.355l2.17,3.726h4.257l2.145-3.845A1.589,1.589,0,0,1,367.046,299.262Z" transform="translate(-359.202 -296.341)" fill="#e28086"/>
      </g>
    </g>
  </g>
</svg>
