<svg xmlns="http://www.w3.org/2000/svg" xmlns:xlink="http://www.w3.org/1999/xlink" width="164" height="57.487" viewBox="0 0 164 57.487">
  <defs>
    <clipPath id="clip-path">
      <path id="Path_37" data-name="Path 37" d="M60.253,16.616,44.989,7.684a10.847,10.847,0,0,0-9.819,0L19.775,16.616a10.863,10.863,0,0,0-4.424,5.892l0-.019a7.075,7.075,0,0,0-.382,1.74,7.494,7.494,0,0,0-.064.914V43.411a10.783,10.783,0,0,0,4.766,8.527l11.739,6.868,3.526,2.063a9.69,9.69,0,0,0,4.291,1.158,10.3,10.3,0,0,0,5.527-1.158l14.931-8.663.463-.269A10.782,10.782,0,0,0,64.52,46.21c.017-.049.038-.1.054-.145a7.068,7.068,0,0,0,.382-1.74,7.483,7.483,0,0,0,.064-.914V25.142A10.783,10.783,0,0,0,60.253,16.616Z" transform="translate(-14.902 -6.51)" opacity="0.55"/>
    </clipPath>
  </defs>
  <g id="LogoMedinet" transform="translate(-14.901 -6.51)">
    <g id="Group_1" data-name="Group 1" transform="translate(68.957 24.291)">
      <path id="Path_1" data-name="Path 1" d="M201.84,97.858v3.462H190.92v.589q0,1.981,1.213,2.409a7.869,7.869,0,0,0,2.141.268h.482a32.524,32.524,0,0,0,6.584-.7h.036v4.889a21.11,21.11,0,0,1-3.069.589,40.555,40.555,0,0,1-4.425.214q-6.423,0-8.3-4.336a9.436,9.436,0,0,1-.7-3.587V96.984q0-5.139,4.318-6.834a13.065,13.065,0,0,1,4.086-.625q6.049,0,7.851,3.943A11.046,11.046,0,0,1,201.84,97.858Zm-6.031-.91q0-2.034-.874-2.409a2.8,2.8,0,0,0-1.606-.446q-2.409,0-2.409,2.266v.91h4.889v-.321Z" transform="translate(-184.89 -80.908)" fill="#3e3e3e"/>
      <path id="Path_2" data-name="Path 2" d="M251.736,79.448q0-4.372.732-5.656,1.213-2.712,6.423-2.712a15.254,15.254,0,0,1,4.282.732l.018-.589.018-5.156q.018-1.356.036-2.587l5.959-1.053V90.332q-2.32.375-4.175.571-2.052.2-3.836.2-5.264,0-7.476-2.034a5.108,5.108,0,0,1-1.249-1.8q-.732-1.178-.732-5.87V79.448Zm6.031,3.836a4.7,4.7,0,0,0,.143,1.213q.481,1.678,3.1,1.677l2.159-.072V77a5.169,5.169,0,0,0-2.783-.839l-.874.036a1.977,1.977,0,0,0-1.749,2.195Z" transform="translate(-230.479 -62.426)" fill="#3e3e3e"/>
      <path id="Path_3" data-name="Path 3" d="M325.8,67.957a4.552,4.552,0,0,1,.125,1.16,2.612,2.612,0,0,1-.767,2.159,2.2,2.2,0,0,1-1.124.517,7.337,7.337,0,0,1-2.5,0,3,3,0,0,1-1.231-.517,2.063,2.063,0,0,1-.553-1.035,4.931,4.931,0,0,1-.107-1.124,5.235,5.235,0,0,1,.107-1.124,1.994,1.994,0,0,1,.553-1.07,3.976,3.976,0,0,1,2.48-.625,3.381,3.381,0,0,1,2.373.625A1.933,1.933,0,0,1,325.8,67.957Zm-6.049,25.532h6.031V74.041h-6.031Z" transform="translate(-276.796 -65.067)" fill="#3e3e3e"/>
      <path id="Path_4" data-name="Path 4" d="M369.458,98.051v11.4h-6.031V96.963a2.01,2.01,0,0,0-1.713-2.195,7.017,7.017,0,0,0-1.177-.035,9.878,9.878,0,0,0-1.16.232,5.628,5.628,0,0,0-1.392.607v13.881H351.99V89.933h4.978l.357.767a5.388,5.388,0,0,1,.178.517,2.417,2.417,0,0,0,.232-.107l.357-.2a10.9,10.9,0,0,1,1.106-.464,11.069,11.069,0,0,1,1.588-.482,11.532,11.532,0,0,1,2.016-.25,8.757,8.757,0,0,1,3.283.357,5.256,5.256,0,0,1,2.64,2.32Q369.458,93.751,369.458,98.051Z" transform="translate(-298.853 -81.03)" fill="#3e3e3e"/>
      <path id="Path_5" data-name="Path 5" d="M437.864,97.858v3.462H426.944v.589q0,1.981,1.213,2.409a7.869,7.869,0,0,0,2.141.268h.482a32.524,32.524,0,0,0,6.584-.7h.036v4.889a21.11,21.11,0,0,1-3.069.589,40.556,40.556,0,0,1-4.425.214q-6.423,0-8.3-4.336a9.436,9.436,0,0,1-.7-3.587V96.984q0-5.139,4.318-6.834a13.066,13.066,0,0,1,4.086-.625q6.049,0,7.851,3.943A11.045,11.045,0,0,1,437.864,97.858Zm-6.031-.91q0-2.034-.874-2.409a2.8,2.8,0,0,0-1.606-.446q-2.409,0-2.409,2.266v.91h4.889Z" transform="translate(-345.858 -80.908)" fill="#3e3e3e"/>
      <path id="Path_6" data-name="Path 6" d="M501.591,97.5H498.54q-.928,0-1.588-.053a8.089,8.089,0,0,1-2.891-.66,4.506,4.506,0,0,1-2.087-2.016,8.9,8.9,0,0,1-.8-4.1l-.035-7.708H488.21V77.946h2.926V73.093l5.995-1.017v5.87H501.7l-.624,5.014h-3.943v7.369q0,.25.018.428a3.042,3.042,0,0,0,.143.767,1.675,1.675,0,0,0,1.142,1.017,8.12,8.12,0,0,0,1.909.464q.214.036.446.054l.375.035.428.018V97.5Z" transform="translate(-391.754 -69.008)" fill="#3e3e3e"/>
    </g>
    <g id="Group_2" data-name="Group 2" transform="translate(69.829 55.212)">
      <path id="Path_7" data-name="Path 7" d="M192.466,165.689a3.29,3.29,0,0,1-2.469.958h-1.871a.436.436,0,0,1-.494-.494v-5.748a.436.436,0,0,1,.494-.493H190a3.445,3.445,0,0,1,2.469,5.777Zm-.7-4.192a2.352,2.352,0,0,0-1.8-.7H188.6v4.958h1.363a2.351,2.351,0,0,0,1.8-.7,2.8,2.8,0,0,0,0-3.565Z" transform="translate(-187.632 -159.832)" fill="#9f9fa0"/>
      <path id="Path_8" data-name="Path 8" d="M216.479,161.371a.558.558,0,1,1-.558.558A.491.491,0,0,1,216.479,161.371Zm.474,5.876a.476.476,0,0,1-.953,0v-3.6a.476.476,0,0,1,.953,0Z" transform="translate(-206.925 -160.828)" fill="#9f9fa0"/>
      <path id="Path_9" data-name="Path 9" d="M234.174,171.111a2.316,2.316,0,0,1-.548,1.664,2.424,2.424,0,0,1-1.817.617,3.964,3.964,0,0,1-.874-.094,3.452,3.452,0,0,1-.889-.351.433.433,0,0,1-.252-.375.371.371,0,0,1,.2-.346.454.454,0,0,1,.474.035,2.469,2.469,0,0,0,1.274.366,1.522,1.522,0,0,0,1.17-.385,1.545,1.545,0,0,0,.306-1.062v-.647a1.639,1.639,0,0,1-1.536.849,2.008,2.008,0,0,1-1.565-.662,2.475,2.475,0,0,1,0-3.155,2.014,2.014,0,0,1,1.565-.652,1.676,1.676,0,0,1,1.57.849v-.326q0-.484.454-.484a.415.415,0,0,1,.464.474Zm-1.323-2.982a1.265,1.265,0,0,0-.983-.42,1.285,1.285,0,0,0-.988.41,1.593,1.593,0,0,0,0,2.054,1.285,1.285,0,0,0,.988.41,1.265,1.265,0,0,0,.983-.42,1.582,1.582,0,0,0,0-2.034Z" transform="translate(-216.221 -164.608)" fill="#9f9fa0"/>
      <path id="Path_10" data-name="Path 10" d="M255.667,161.371a.558.558,0,1,1-.558.558A.491.491,0,0,1,255.667,161.371Zm.474,5.876a.476.476,0,0,1-.953,0v-3.6a.476.476,0,0,1,.953,0Z" transform="translate(-233.651 -160.828)" fill="#9f9fa0"/>
      <path id="Path_11" data-name="Path 11" d="M269.767,167.427a.474.474,0,1,1-.948,0v-3.2h-.77a.4.4,0,0,1,0-.79h.77v-1.323a.474.474,0,1,1,.948,0v1.323h.869a.4.4,0,1,1,0,.79h-.869Z" transform="translate(-242.206 -161.007)" fill="#9f9fa0"/>
      <path id="Path_12" data-name="Path 12" d="M290.412,171.027a.464.464,0,1,1-.929,0v-.089a1.707,1.707,0,0,1-1.427.607,1.861,1.861,0,0,1-1.21-.38,1.3,1.3,0,0,1,.025-2.015,2,2,0,0,1,1.224-.346,1.934,1.934,0,0,1,1.368.514v-.435q0-1.165-1.215-1.165a2.719,2.719,0,0,0-.553.054,3.083,3.083,0,0,0-.449.128l-.148.054a.549.549,0,0,1-.163.03.354.354,0,0,1-.4-.4q0-.277.444-.454a3.64,3.64,0,0,1,1.353-.222q2.084,0,2.084,1.911Zm-1.289-1.378a1.424,1.424,0,0,0-.741-.188q-1.052,0-1.052.716t1.027.721a1.408,1.408,0,0,0,.775-.2.576.576,0,0,0-.01-1.047Z" transform="translate(-254.976 -164.608)" fill="#9f9fa0"/>
      <path id="Path_13" data-name="Path 13" d="M311.07,166.082a.476.476,0,0,1-.953,0v-5.945a.476.476,0,0,1,.953,0Z" transform="translate(-271.167 -159.662)" fill="#9f9fa0"/>
      <path id="Path_14" data-name="Path 14" d="M346.929,159.954a.462.462,0,0,1,.435-.291.4.4,0,0,1,.454.455v5.975a.406.406,0,0,1-.454.464.412.412,0,0,1-.469-.464V162l-2.1,4.276a.461.461,0,0,1-.85,0l-2.1-4.276v4.093a.41.41,0,0,1-.464.464.406.406,0,0,1-.454-.464v-5.975a.4.4,0,0,1,.454-.455.462.462,0,0,1,.434.291l2.558,5.249Z" transform="translate(-292.174 -159.662)" fill="#9f9fa0"/>
      <path id="Path_15" data-name="Path 15" d="M377.608,171.027a.464.464,0,1,1-.929,0v-.089a1.706,1.706,0,0,1-1.427.607,1.861,1.861,0,0,1-1.21-.38,1.3,1.3,0,0,1,.025-2.015,2,2,0,0,1,1.224-.346,1.934,1.934,0,0,1,1.368.514v-.435q0-1.165-1.215-1.165a2.719,2.719,0,0,0-.553.054,3.082,3.082,0,0,0-.449.128l-.148.054a.549.549,0,0,1-.163.03.354.354,0,0,1-.4-.4q0-.277.444-.454a3.641,3.641,0,0,1,1.353-.222q2.084,0,2.084,1.911Zm-1.289-1.378a1.424,1.424,0,0,0-.741-.188q-1.052,0-1.052.716t1.027.721a1.408,1.408,0,0,0,.775-.2.576.576,0,0,0-.01-1.047Z" transform="translate(-314.444 -164.608)" fill="#9f9fa0"/>
      <path id="Path_16" data-name="Path 16" d="M399.55,167.866q-1.284,0-1.284,1.545v1.659a.476.476,0,0,1-.953,0v-3.59A.428.428,0,0,1,397.8,167a.421.421,0,0,1,.469.484v.434a1.212,1.212,0,0,1,1.284-.938.444.444,0,0,1,0,.889Z" transform="translate(-330.635 -164.651)" fill="#9f9fa0"/>
      <path id="Path_17" data-name="Path 17" d="M415.965,166.082a.476.476,0,0,1-.953,0v-5.945a.476.476,0,0,1,.953,0v3.629l2.123-1.659a.428.428,0,0,1,.292-.1q.434,0,.434.415a.463.463,0,0,1-.222.361l-1.363,1.067,1.556,2a.452.452,0,0,1,.1.272q0,.434-.455.434a.384.384,0,0,1-.321-.178l-1.56-2-.583.474Z" transform="translate(-342.705 -159.662)" fill="#9f9fa0"/>
      <path id="Path_18" data-name="Path 18" d="M440.266,167.591a2.417,2.417,0,0,1,.573,1.649q0,.321-.365.321h-3.022a1.2,1.2,0,0,0,1.363,1.224,1.682,1.682,0,0,0,1.175-.494.434.434,0,0,1,.311-.153.349.349,0,0,1,.395.4.413.413,0,0,1-.123.272,2.523,2.523,0,0,1-3.516.054,2.508,2.508,0,0,1,.054-3.289,2.187,2.187,0,0,1,1.625-.657A1.941,1.941,0,0,1,440.266,167.591Zm-.306,1.2a1.308,1.308,0,0,0-.385-.79,1.256,1.256,0,0,0-2.1.79Z" transform="translate(-357.339 -164.608)" fill="#9f9fa0"/>
      <path id="Path_19" data-name="Path 19" d="M460.77,167.427a.474.474,0,1,1-.948,0v-3.2h-.77a.4.4,0,0,1,0-.79h.77v-1.323a.474.474,0,1,1,.948,0v1.323h.869a.4.4,0,0,1,0,.79h-.869Z" transform="translate(-372.471 -161.007)" fill="#9f9fa0"/>
      <path id="Path_20" data-name="Path 20" d="M478.482,161.371a.558.558,0,1,1-.558.558A.491.491,0,0,1,478.482,161.371Zm.474,5.876a.476.476,0,0,1-.953,0v-3.6a.476.476,0,0,1,.953,0Z" transform="translate(-385.611 -160.828)" fill="#9f9fa0"/>
      <path id="Path_21" data-name="Path 21" d="M496.677,171.027a.474.474,0,0,1-.948,0v-2.02q0-1.234-1.146-1.234a1.125,1.125,0,0,0-.879.361,1.271,1.271,0,0,0-.311.884v2.01a.476.476,0,0,1-.953,0v-3.59a.476.476,0,1,1,.953,0v.326a1.511,1.511,0,0,1,1.452-.849,1.686,1.686,0,0,1,1.353.578,2.18,2.18,0,0,1,.479,1.471Z" transform="translate(-395.511 -164.608)" fill="#9f9fa0"/>
      <path id="Path_22" data-name="Path 22" d="M520.631,171.111a2.316,2.316,0,0,1-.548,1.664,2.424,2.424,0,0,1-1.817.617,3.964,3.964,0,0,1-.874-.094,3.451,3.451,0,0,1-.889-.351.433.433,0,0,1-.252-.375.371.371,0,0,1,.2-.346.454.454,0,0,1,.474.035,2.47,2.47,0,0,0,1.274.366,1.522,1.522,0,0,0,1.17-.385,1.545,1.545,0,0,0,.306-1.062v-.647a1.639,1.639,0,0,1-1.536.849,2.008,2.008,0,0,1-1.565-.662,2.475,2.475,0,0,1,0-3.155,2.014,2.014,0,0,1,1.565-.652,1.676,1.676,0,0,1,1.57.849v-.326q0-.484.454-.484a.415.415,0,0,1,.464.474Zm-1.323-2.982a1.265,1.265,0,0,0-.983-.42,1.285,1.285,0,0,0-.988.41,1.593,1.593,0,0,0,0,2.054,1.285,1.285,0,0,0,.988.41,1.265,1.265,0,0,0,.983-.42,1.582,1.582,0,0,0,0-2.034Z" transform="translate(-411.585 -164.608)" fill="#9f9fa0"/>
    </g>
    <path id="Path_23" data-name="Path 23" d="M60.253,16.616,44.989,7.684a10.847,10.847,0,0,0-9.819,0L19.775,16.616a10.863,10.863,0,0,0-4.424,5.892l0-.019a7.075,7.075,0,0,0-.382,1.74,7.494,7.494,0,0,0-.064.914V43.411a10.783,10.783,0,0,0,4.766,8.527l11.739,6.868,3.526,2.063a9.69,9.69,0,0,0,4.291,1.158,10.3,10.3,0,0,0,5.527-1.158l14.931-8.663.463-.269A10.782,10.782,0,0,0,64.52,46.21c.017-.049.038-.1.054-.145a7.068,7.068,0,0,0,.382-1.74,7.483,7.483,0,0,0,.064-.914V25.142A10.783,10.783,0,0,0,60.253,16.616Z" transform="translate(0 0)" fill="#21937f"/>
    <g id="Group_4" data-name="Group 4" transform="translate(14.901 6.51)" opacity="0.55">
      <g id="Group_3" data-name="Group 3" clip-path="url(#clip-path)">
        <path id="Path_24" data-name="Path 24" d="M69.214,2.1H84.7L78.437,21.073Z" transform="translate(-51.943 -3.506)" fill="none" stroke="#fff" stroke-miterlimit="10" stroke-width="0.109"/>
        <path id="Path_25" data-name="Path 25" d="M62.356,2.1l9.223,18.968-12.421,9.18Z" transform="translate(-45.085 -3.506)" fill="none" stroke="#fff" stroke-miterlimit="10" stroke-width="0.109"/>
        <path id="Path_26" data-name="Path 26" d="M23.75,30.252,26.948,2.1,7.24,17.331Z" transform="translate(-9.676 -3.506)" fill="none" stroke="#fff" stroke-miterlimit="10" stroke-width="0.109"/>
        <path id="Path_27" data-name="Path 27" d="M23.75,62.909,9.676,80.593,7.24,49.988Z" transform="translate(-9.676 -36.162)" fill="none" stroke="#fff" stroke-miterlimit="10" stroke-width="0.109"/>
        <path id="Path_28" data-name="Path 28" d="M28.975,90.62,38.7,105.8l-23.8,2.5Z" transform="translate(-14.901 -63.873)" fill="none" stroke="#fff" stroke-miterlimit="10" stroke-width="0.109"/>
        <path id="Path_29" data-name="Path 29" d="M71.579,61.753l-12.421,9.18,9.723,15.183Z" transform="translate(-45.085 -44.186)" fill="none" stroke="#fff" stroke-miterlimit="10" stroke-width="0.109"/>
        <path id="Path_30" data-name="Path 30" d="M98.218,21.073l29.844-3.045L104.482,2.1Z" transform="translate(-71.723 -3.506)" fill="none" stroke="#fff" stroke-miterlimit="10" stroke-width="0.109"/>
        <path id="Path_31" data-name="Path 31" d="M98.218,55.222,113.14,72.03l14.922-19.853Z" transform="translate(-71.723 -37.655)" fill="none" stroke="#fff" stroke-miterlimit="10" stroke-width="0.109"/>
        <path id="Path_32" data-name="Path 32" d="M89.735,86.116l17.62-7.555L92.433,61.753Z" transform="translate(-65.938 -44.186)" fill="none" stroke="#fff" stroke-miterlimit="10" stroke-width="0.109"/>
        <path id="Path_33" data-name="Path 33" d="M38.7,138.366l1.218,20.447L14.9,140.867Z" transform="translate(-14.901 -96.436)" fill="none" stroke="#fff" stroke-miterlimit="10" stroke-width="0.109"/>
        <path id="Path_34" data-name="Path 34" d="M107.355,114.609l-16.4,28-1.218-20.447Z" transform="translate(-65.938 -80.234)" fill="none" stroke="#fff" stroke-miterlimit="10" stroke-width="0.109"/>
        <path id="Path_35" data-name="Path 35" d="M109.967,114.609l3.35,20-19.751,8.005Z" transform="translate(-68.551 -80.234)" fill="none" stroke="#fff" stroke-miterlimit="10" stroke-width="0.109"/>
        <path id="Path_36" data-name="Path 36" d="M145.143,72.03l14.922-19.853-3.219,31.41-8.353,8.44Z" transform="translate(-103.726 -37.655)" fill="none" stroke="#fff" stroke-miterlimit="10" stroke-width="0.109"/>
      </g>
    </g>
    <path id="Path_38" data-name="Path 38" d="M53.177,63.087v0l-6.44,6.957-.722.78-3.459-4.568L34.286,54.3l0,0L14.9,75.135V76a10.783,10.783,0,0,0,4.766,8.527L31.406,91.4l3.526,2.063a9.69,9.69,0,0,0,4.291,1.158,10.3,10.3,0,0,0,5.527-1.158L59.682,84.8l.463-.269a7.8,7.8,0,0,0,1.3-.961l.43-6.874Z" transform="translate(0 -32.593)" fill="#1b7362" opacity="0.3"/>
    <path id="Path_39" data-name="Path 39" d="M93.857,60.921c-.606-1.676-1.638-3.678-3.608-4.063a4.486,4.486,0,0,0-4.866,2.413C83.846,61.87,83.2,65.1,82.494,68c-.562,2.3-1.072,4.614-1.676,6.9-.4-1.793-.715-3.606-1.015-5.413-.2-1.215-.4-2.433-.6-3.65a79.994,79.994,0,0,0-2.087-9.569c-.676-2.268-1.529-5.376-3.483-6.934-2.54-2.026-5.253-1.41-7.153,1.087h0a15.665,15.665,0,0,0-2.316,5.895,74.3,74.3,0,0,0-1.6,19.307,66.956,66.956,0,0,0,1.3,11.561l3.526,2.063a9.69,9.69,0,0,0,4.291,1.158c-.036-.07-.07-.135-.08-.157-.051-.109-.1-.218-.15-.327-.217-.546-.418-1.1-.594-1.66a35.577,35.577,0,0,1-1.008-4.083q-.21-1.113-.37-2.235a.041.041,0,0,0,0-.008c-.02-.163-.041-.325-.06-.488-.046-.393-.09-.785-.128-1.179q-.238-2.418-.317-4.849a85.919,85.919,0,0,1,.24-9.872c.063-.754.134-1.506.219-2.257.04-.352.081-.7.126-1.053.02-.136.039-.272.059-.408.191-1.277.414-2.549.709-3.806.085-.362.177-.723.274-1.083.012.04.027.078.04.118a56.309,56.309,0,0,1,1.419,5.461c.894,4.184,1.43,8.43,2.27,12.624A36.331,36.331,0,0,0,76,81.475c.725,1.824,1.627,3.61,3.639,4.259,3.84,1.237,5.647-3.395,6.519-6.156,1.023-3.238,1.721-6.576,2.531-9.872q.231-.942.473-1.882c.878,4.237,1.406,8.736,2.987,12.764l.463-.269a10.782,10.782,0,0,0,4.375-5.727c-.4-2.455-.935-5.253-1.415-7.594A45.6,45.6,0,0,0,93.857,60.921Z" transform="translate(-32.461 -28.383)" fill="#fff"/>
  </g>
</svg>
