<svg xmlns="http://www.w3.org/2000/svg" width="18.217" height="22.322" viewBox="0 0 18.217 22.322">
  <path id="map" d="M21.226,10.1A9.108,9.108,0,1,0,3.01,10.049,14.132,14.132,0,0,0,11.7,23.2a1.012,1.012,0,0,0,.421.09,1.024,1.024,0,0,0,.424-.091,14.13,14.13,0,0,0,8.685-13.1ZM12.117,21.16A11.866,11.866,0,0,1,5.034,10.118a7.083,7.083,0,1,1,14.166,0v.066A11.853,11.853,0,0,1,12.117,21.16Zm2.026-11.042a2.026,2.026,0,1,1-.593-1.433A2.026,2.026,0,0,1,14.143,10.118Z" transform="translate(-3.01 -0.965)" fill="#21937f"/>
</svg>
