<svg xmlns="http://www.w3.org/2000/svg" width="121.576" height="100" viewBox="0 0 121.576 100">
  <g id="phong-van" transform="translate(-1277 -2084)">
    <rect id="Rectangle_83" data-name="Rectangle 83" width="121" height="100" rx="15" transform="translate(1277 2084)" fill="none"/>
    <g id="interview" transform="translate(1277.423 2039.302)">
      <circle id="Ellipse_153" data-name="Ellipse 153" cx="11.538" cy="11.538" r="11.538" transform="translate(5.769 44.698)" fill="#ffc269"/>
      <path id="Path_1248" data-name="Path 1248" d="M94.974,90.233c0-11.683-7.483-21.154-19.166-21.154a21.084,21.084,0,0,0-14.7,5.945A57.739,57.739,0,0,0,59,88.306c0,9.615,5.125,17.311,16.808,17.311S94.974,99.848,94.974,90.233Z" transform="translate(-45.039 -18.612)" fill="#ffa95f"/>
      <path id="Path_1249" data-name="Path 1249" d="M54.1,101.722a17.606,17.606,0,0,1-7.01-7.516,21.077,21.077,0,0,0-6.452,15.208c0,9.564,9.372,15.317,20.968,15.379Z" transform="translate(-31.02 -37.793)" fill="#ff8b5a"/>
      <path id="Path_1250" data-name="Path 1250" d="M61.348,272.254H47.885A15.385,15.385,0,0,0,32.5,287.639v25H70.963V281.869A9.615,9.615,0,0,0,61.348,272.254Z" transform="translate(-24.81 -173.71)" fill="#86e2a3"/>
      <path id="Path_1251" data-name="Path 1251" d="M41.689,272.254H39.766a15.385,15.385,0,0,0-15.385,15.385v25h3.846v-25A11.538,11.538,0,0,1,39.766,276.1h1.923Z" transform="translate(-18.612 -173.71)" fill="#21937f"/>
      <path id="Path_1252" data-name="Path 1252" d="M97.089,271.678a7.692,7.692,0,0,1-7.692-7.692v-2.563l15.385,1.653v.911A7.692,7.692,0,0,1,97.089,271.678Z" transform="translate(-68.243 -165.442)" fill="#f7d291"/>
      <path id="Path_1253" data-name="Path 1253" d="M89.4,238.671a19.1,19.1,0,0,0,15.385,1.652v-8.7H89.4Z" transform="translate(-68.243 -142.69)" fill="#ecbd83"/>
      <path id="Path_1254" data-name="Path 1254" d="M109.378,346.331H76.592a3.846,3.846,0,0,1-3.846-3.846V324.862l2.017-3.846h34.615a3.846,3.846,0,0,1,3.846,3.846v19.231Z" transform="translate(-55.532 -210.933)" fill="#eceaec"/>
      <path id="Path_1255" data-name="Path 1255" d="M68.862,321.016a3.846,3.846,0,0,0-3.846,3.846v19.231a3.846,3.846,0,0,0,3.846,3.846h34.615a3.846,3.846,0,0,0,3.846-3.846H74.631a5.769,5.769,0,0,1-5.769-5.769Z" transform="translate(-49.631 -210.933)" fill="#dad8db"/>
      <path id="Path_1256" data-name="Path 1256" d="M77.4,125.968c6.114,4.335,14.848,5.74,19.627,6.194a3.828,3.828,0,0,1,3.45,3.825v5.365a15.388,15.388,0,0,1-13.387,15.257,20.8,20.8,0,0,1-2.3-.02c-8.5,0-13.547-6.74-13.547-15.237v0c0-4.06-.147-7.978,2.371-11.134.231-.29.462-.582.713-.858Z" transform="translate(-54.385 -62.039)" fill="#ffe1a0"/>
      <path id="Path_1257" data-name="Path 1257" d="M68.862,155.053V143.915a14.861,14.861,0,0,0-3.846,9.976v1.162A15.385,15.385,0,0,0,80.4,170.437a15.653,15.653,0,0,0,1.933-.128A15.392,15.392,0,0,1,68.862,155.053Z" transform="translate(-49.631 -75.739)" fill="#f7d291"/>
      <circle id="Ellipse_154" data-name="Ellipse 154" cx="3.846" cy="3.846" r="3.846" transform="translate(32.692 119.698)" fill="#fff"/>
      <path id="Path_1258" data-name="Path 1258" d="M119.275,211.862a11.353,11.353,0,0,1-4.635-.951,1.922,1.922,0,1,1,1.578-3.506,8.08,8.08,0,0,0,6.115,0,1.923,1.923,0,0,1,1.578,3.508A11.39,11.39,0,0,1,119.275,211.862Z" transform="translate(-86.647 -124.075)" fill="#fff"/>
      <circle id="Ellipse_155" data-name="Ellipse 155" cx="1.923" cy="1.923" r="1.923" transform="translate(25 74.506)" fill="#21937f"/>
      <circle id="Ellipse_156" data-name="Ellipse 156" cx="1.923" cy="1.923" r="1.923" transform="translate(36.538 74.506)" fill="#21937f"/>
      <path id="Path_1259" data-name="Path 1259" d="M69.231,434.794H1.923a1.923,1.923,0,0,0,0,3.846H69.231Z" transform="translate(0 -297.788)" fill="#ecbd83"/>
      <path id="Path_1260" data-name="Path 1260" d="M327.124,254.807l-7.283-3.641-9.553-1.5-13.527,1.5-11.132,5.566a7.682,7.682,0,0,0-2.684,2.225L285.222,294h46.154V261.687A7.693,7.693,0,0,0,327.124,254.807Z" transform="translate(-215.991 -156.468)" fill="#c3ddff"/>
      <path id="Path_1261" data-name="Path 1261" d="M289.778,303.066a9.616,9.616,0,0,0-3.609-7.508l-8.284-6.629a7.7,7.7,0,0,0-1.569,4.654v33.707a3.846,3.846,0,0,0,3.846,3.846h9.615V303.066Z" transform="translate(-210.932 -186.439)" fill="#a4ccff"/>
      <path id="Path_1262" data-name="Path 1262" d="M370.336,353.524H347.259c-4.248,0-9.892,2.538-10.759,7.921l3.067,19h34.615a3.846,3.846,0,0,0,3.846-3.846V361.216a7.692,7.692,0,0,0-7.692-7.692Z" transform="translate(-256.875 -235.749)" fill="#21937f"/>
      <path id="Path_1263" data-name="Path 1263" d="M344.744,353.524H340.9a7.692,7.692,0,0,0-7.692,7.692v19.231h3.846V361.216A7.692,7.692,0,0,1,344.744,353.524Z" transform="translate(-254.36 -235.749)" fill="#21937f"/>
      <path id="Path_1264" data-name="Path 1264" d="M317.047,130.317v5.659a1.923,1.923,0,0,1-1.063,1.72l-.86.43H338.2l-1.721-.86a3.846,3.846,0,0,1-2.126-3.44l0-32.238H307v15.385C307,124.138,310.415,128.606,317.047,130.317Z" transform="translate(-234.355 -43.427)" fill="#f5b97d"/>
      <path id="Path_1265" data-name="Path 1265" d="M304.544,116.972V101.587H300.7v15.385A15.388,15.388,0,0,0,313.9,132.2a1.934,1.934,0,0,0,2.186-1.92,1.9,1.9,0,0,0-1.637-1.887A11.541,11.541,0,0,1,304.544,116.972Z" transform="translate(-229.544 -43.427)" fill="#e3aa75"/>
      <path id="Path_1266" data-name="Path 1266" d="M318.644,52.825H305.183c-5.31,0-8.687,3.544-8.687,8.855a3.846,3.846,0,0,0,3.846,3.846c3.186,0,4.84,3.344,4.84,6.53v5.769A9.615,9.615,0,0,0,314.8,87.44h9.615a7.692,7.692,0,0,0,7.692-7.692V66.287A13.461,13.461,0,0,0,318.644,52.825Z" transform="translate(-226.337 -6.204)" fill="#9f6e50"/>
      <path id="Path_1267" data-name="Path 1267" d="M294.059,52.825a9.615,9.615,0,0,0-9.615,9.615,3.846,3.846,0,0,0,3.846,3.846h1.923a5.769,5.769,0,0,1,5.769,5.769V52.825Z" transform="translate(-217.137 -6.204)" fill="#785353"/>
    </g>
  </g>
</svg>
