<svg xmlns="http://www.w3.org/2000/svg" width="100.392" height="100" viewBox="0 0 100.392 100">
  <g id="sang-loc" transform="translate(0 -1)">
    <g id="Group_12004" data-name="Group 12004" transform="translate(23.922 1)">
      <g id="Group_12003" data-name="Group 12003" transform="translate(0 0)">
        <path id="Path_1225" data-name="Path 1225" d="M198.3,20.608,178.863,1.172a2.91,2.91,0,0,0-.98-.172h-49.02A6.871,6.871,0,0,0,122,7.863V94.137A6.871,6.871,0,0,0,128.863,101h62.745a6.871,6.871,0,0,0,6.863-6.863V21.588A2.941,2.941,0,0,0,198.3,20.608Z" transform="translate(-122 -1)" fill="#d6f6f1"/>
      </g>
    </g>
    <g id="Group_12005" data-name="Group 12005" transform="translate(62.157 1)">
      <path id="Path_1226" data-name="Path 1226" d="M355.064,20.608,335.627,1.172a2.91,2.91,0,0,0-.98-.172H317V101h31.373a6.871,6.871,0,0,0,6.863-6.863V21.588A2.941,2.941,0,0,0,355.064,20.608Z" transform="translate(-317 -1)" fill="#86e2a3"/>
    </g>
    <g id="Group_12028" data-name="Group 12028" transform="translate(0 1.172)">
      <g id="Group_12007" data-name="Group 12007" transform="translate(0 63.616)">
        <g id="Group_12006" data-name="Group 12006">
          <path id="Path_1227" data-name="Path 1227" d="M1.723,360.808a5.882,5.882,0,0,0,8.319,0l26.17-26.17-8.319-8.319-26.17,26.17a5.882,5.882,0,0,0,0,8.319Z" transform="translate(0 -326.319)" fill="#219090"/>
        </g>
      </g>
      <g id="Group_12009" data-name="Group 12009" transform="translate(1.723 67.775)">
        <g id="Group_12008" data-name="Group 12008">
          <path id="Path_1228" data-name="Path 1228" d="M8.787,377.862a5.882,5.882,0,0,0,8.319,0l26.17-26.17-4.159-4.159Z" transform="translate(-8.787 -347.532)" fill="#21937f"/>
        </g>
      </g>
      <g id="Group_12010" data-name="Group 12010" transform="translate(80.784 0)">
        <path id="Path_1229" data-name="Path 1229" d="M430.745,20.214,413.1,2.567a2.934,2.934,0,0,0-1.1-.69V18.372a2.941,2.941,0,0,0,2.941,2.941h16.495A2.933,2.933,0,0,0,430.745,20.214Z" transform="translate(-411.999 -1.877)" fill="#d6f6f1"/>
      </g>
      <g id="Group_12012" data-name="Group 12012" transform="translate(35.686 17.475)">
        <g id="Group_12011" data-name="Group 12011">
          <path id="Path_1230" data-name="Path 1230" d="M214.353,96.882H184.941a2.941,2.941,0,0,1,0-5.882h29.412a2.941,2.941,0,1,1,0,5.882Z" transform="translate(-182 -91)" fill="#f2fffd"/>
        </g>
      </g>
      <g id="Group_12013" data-name="Group 12013" transform="translate(67.059 76.299)">
        <path id="Path_1231" data-name="Path 1231" d="M360.627,396.882H344.941a2.941,2.941,0,0,1,0-5.882h15.686a2.941,2.941,0,0,1,0,5.882Z" transform="translate(-342 -391)" fill="#f6fdfb"/>
      </g>
      <g id="Group_12018" data-name="Group 12018" transform="translate(41.176 29.24)">
        <g id="Group_12014" data-name="Group 12014">
          <path id="Path_1232" data-name="Path 1232" d="M254.51,156.882H212.941a2.941,2.941,0,1,1,0-5.882H254.51a2.941,2.941,0,1,1,0,5.882Z" transform="translate(-210 -151)" fill="#f6fdfb"/>
        </g>
        <g id="Group_12015" data-name="Group 12015" transform="translate(0 11.765)">
          <path id="Path_1233" data-name="Path 1233" d="M254.51,216.882H212.941a2.941,2.941,0,1,1,0-5.882H254.51a2.941,2.941,0,1,1,0,5.882Z" transform="translate(-210 -211)" fill="#f6fdfb"/>
        </g>
        <path id="Path_1234" data-name="Path 1234" d="M343.471,213.941A2.941,2.941,0,0,0,340.529,211H317v5.882h23.529A2.941,2.941,0,0,0,343.471,213.941Z" transform="translate(-296.02 -199.235)" fill="#f6fdfb"/>
        <g id="Group_12016" data-name="Group 12016" transform="translate(0 23.529)">
          <path id="Path_1235" data-name="Path 1235" d="M254.51,276.882H212.941a2.941,2.941,0,1,1,0-5.882H254.51a2.941,2.941,0,1,1,0,5.882Z" transform="translate(-210 -271)" fill="#f6fdfb"/>
        </g>
        <path id="Path_1236" data-name="Path 1236" d="M340.529,276.882a2.941,2.941,0,0,0,0-5.882H317v5.882Z" transform="translate(-296.02 -247.471)" fill="#f6fdfb"/>
        <g id="Group_12017" data-name="Group 12017" transform="translate(0 35.294)">
          <path id="Path_1237" data-name="Path 1237" d="M254.51,336.882H212.941a2.941,2.941,0,0,1,0-5.882H254.51a2.941,2.941,0,0,1,0,5.882Z" transform="translate(-210 -331)" fill="#f6fdfb"/>
        </g>
        <path id="Path_1238" data-name="Path 1238" d="M340.529,336.882a2.941,2.941,0,0,0,0-5.882H317v5.882Z" transform="translate(-296.02 -295.706)" fill="#f6fdfb"/>
      </g>
      <g id="Group_12027" data-name="Group 12027" transform="translate(21 31.828)">
        <g id="Group_12020" data-name="Group 12020" transform="translate(0 0)">
          <g id="Group_12019" data-name="Group 12019">
            <circle id="Ellipse_152" data-name="Ellipse 152" cx="23.5" cy="23.5" r="23.5" fill="#f7fefa"/>
          </g>
        </g>
        <g id="Group_12023" data-name="Group 12023" transform="translate(4.704 28.784)">
          <path id="Path_1240" data-name="Path 1240" d="M153.428,311h-7.843a14.647,14.647,0,0,0-14.492,12.275l7.365,4.577,7.365,3.917h7.365l7.365-3.917,7.365-4.577A14.648,14.648,0,0,0,153.428,311Z" transform="translate(-131.093 -311)" fill="#ff8493"/>
        </g>
        <g id="Group_12024" data-name="Group 12024" transform="translate(23.117 28.784)">
          <path id="Path_1241" data-name="Path 1241" d="M228.922,311H225v20.769h3.683l7.365-3.917,7.365-4.577A14.647,14.647,0,0,0,228.922,311Z" transform="translate(-225 -311)" fill="#ff1f3d"/>
        </g>
        <g id="Group_12026" data-name="Group 12026" transform="translate(11.353 9.177)">
          <g id="Group_12025" data-name="Group 12025">
            <path id="Path_1242" data-name="Path 1242" d="M176.765,234.529a11.765,11.765,0,1,1,11.765-11.765A11.778,11.778,0,0,1,176.765,234.529Z" transform="translate(-165 -211)" fill="#ffd7aa"/>
          </g>
        </g>
      </g>
    </g>
    <g id="Group_12029" data-name="Group 12029" transform="translate(17.647 30.412)">
      <path id="Path_1243" data-name="Path 1243" d="M116.471,203.941a26.471,26.471,0,1,1,26.471-26.471A26.5,26.5,0,0,1,116.471,203.941Zm0-47.059a20.588,20.588,0,1,0,20.588,20.588A20.612,20.612,0,0,0,116.471,156.882Z" transform="translate(-90 -151)" fill="#21937f"/>
    </g>
    <g id="Group_12031" data-name="Group 12031" transform="translate(25.409 38.174)">
      <g id="Group_12030" data-name="Group 12030">
        <path id="Path_1244" data-name="Path 1244" d="M167,190.585l-4.157,4.157a20.579,20.579,0,1,1-29.1,29.1L129.586,228A26.458,26.458,0,1,0,167,190.585Z" transform="translate(-129.586 -190.585)" fill="#219090"/>
      </g>
    </g>
    <g id="Group_12032" data-name="Group 12032" transform="translate(44.118 42.176)">
      <path id="Path_1245" data-name="Path 1245" d="M225,211v23.529A11.765,11.765,0,0,0,225,211Z" transform="translate(-225 -211)" fill="#ffc58f"/>
    </g>
    <g id="Group_12034" data-name="Group 12034" transform="translate(62.157 18.647)">
      <g id="Group_12033" data-name="Group 12033">
        <path id="Path_1246" data-name="Path 1246" d="M325.824,93.941A2.941,2.941,0,0,0,322.882,91H317v5.882h5.882A2.941,2.941,0,0,0,325.824,93.941Z" transform="translate(-317 -91)" fill="#f6fdfb"/>
        <path id="Path_1247" data-name="Path 1247" d="M343.471,153.941A2.941,2.941,0,0,0,340.529,151H317v5.882h23.529A2.941,2.941,0,0,0,343.471,153.941Z" transform="translate(-317 -139.235)" fill="#f6fdfb"/>
      </g>
    </g>
  </g>
</svg>
