<svg xmlns="http://www.w3.org/2000/svg" width="12.891" height="12.891" viewBox="0 0 12.891 12.891">
  <path id="so-calling" d="M14.49,12.15a1.358,1.358,0,0,1-.336,2.165,4.861,4.861,0,0,1-3.529.414C7.477,13.935,2.951,9.41,2.159,6.261a4.861,4.861,0,0,1,.414-3.529A1.358,1.358,0,0,1,4.737,2.4L6.08,3.739a1.349,1.349,0,0,1,.287,1.5,2.5,2.5,0,0,1-.5.755c-1.536,1.536,3.491,6.563,5.026,5.026a2.5,2.5,0,0,1,.756-.5,1.348,1.348,0,0,1,1.5.287ZM7.523,2.5A.644.644,0,1,0,8.075,3.66a3.866,3.866,0,0,1,5.151,5.151.645.645,0,0,0,1.164.553A5.155,5.155,0,0,0,7.523,2.5Zm3.121,6.481a.644.644,0,0,0,.911,0A2.578,2.578,0,1,0,7.91,5.332a.644.644,0,0,0,.911.911,1.32,1.32,0,0,1,1.823,0,1.289,1.289,0,0,1,0,1.822.644.644,0,0,0,0,.911Z" transform="translate(-1.998 -1.997)" fill="#21937f"/>
</svg>
