<svg xmlns="http://www.w3.org/2000/svg" width="19.333" height="21.5" viewBox="0 0 19.333 21.5">
  <path id="user-01" d="M21.333,22.5a10.85,10.85,0,0,0-.187-2.883,4.334,4.334,0,0,0-2.889-2.889,10.85,10.85,0,0,0-2.883-.187H9.958a10.85,10.85,0,0,0-2.883.187,4.333,4.333,0,0,0-2.889,2.889A10.848,10.848,0,0,0,4,22.5M17.542,7.875A4.875,4.875,0,1,1,12.667,3,4.875,4.875,0,0,1,17.542,7.875Z" transform="translate(-3 -2)" fill="none" stroke="#21937f" stroke-linecap="round" stroke-linejoin="round" stroke-width="2"/>
</svg>
