<svg id="youtube" xmlns="http://www.w3.org/2000/svg" width="56.317" height="39.431" viewBox="0 0 56.317 39.431">
  <path id="Path_3536" data-name="Path 3536" d="M55.157,6.17a7.056,7.056,0,0,0-4.964-4.964C45.787,0,28.158,0,28.158,0S10.53,0,6.123,1.16A7.2,7.2,0,0,0,1.16,6.17C0,10.577,0,19.716,0,19.716S0,28.9,1.16,33.261a7.057,7.057,0,0,0,4.964,4.964c4.453,1.206,22.035,1.206,22.035,1.206s17.628,0,22.035-1.16a7.056,7.056,0,0,0,4.964-4.964c1.16-4.407,1.16-13.546,1.16-13.546s.046-9.185-1.16-13.592Zm0,0" fill="red"/>
  <path id="Path_3537" data-name="Path 3537" d="M204.969,119.37l14.659-8.443-14.659-8.443Zm0,0" transform="translate(-182.423 -91.212)" fill="#fff"/>
</svg>
