<svg id="icon-hand" xmlns="http://www.w3.org/2000/svg" width="38" height="31.405" viewBox="0 0 38 31.405">
  <rect id="Rectangle_89" data-name="Rectangle 89" width="38" height="31" rx="5" transform="translate(0 0.405)" fill="none"/>
  <g id="cooperation">
    <path id="Path_163" data-name="Path 163" d="M85.071,158.263l.71-5.726c0-2.054,2.482-3.808,4.252-1.963l1.207,1.258Z" transform="translate(-78.273 -144.432)" fill="#ffcebf"/>
    <path id="Path_164" data-name="Path 164" d="M104.434,151.833l-.809.845h0l-1.207-1.258a2.223,2.223,0,0,0-3.006-.347,2.349,2.349,0,0,1,3.816-.5Z" transform="translate(-91.467 -144.433)" fill="#ffb09e"/>
    <path id="Path_165" data-name="Path 165" d="M197.163,85.925l1.207,1.258L195.956,89.7l-1.207-1.258a1.833,1.833,0,0,1,0-2.516,1.658,1.658,0,0,1,2.413,0Z" transform="translate(-178.727 -85.404)" fill="#ffcebf"/>
    <path id="Path_166" data-name="Path 166" d="M207.416,96.178l.388.4L205.389,99.1l-.388-.4a1.833,1.833,0,0,1,0-2.516,1.658,1.658,0,0,1,2.413,0Z" transform="translate(-188.161 -94.803)" fill="#ffb09e"/>
    <path id="Path_167" data-name="Path 167" d="M166.962,116.126l1.207,1.258-2.413,2.516-1.207-1.258a1.833,1.833,0,0,1,0-2.516,1.656,1.656,0,0,1,2.413,0Z" transform="translate(-150.941 -113.089)" fill="#ffcebf"/>
    <path id="Path_168" data-name="Path 168" d="M177.216,126.38l.387.4L175.19,129.3l-.387-.4a1.833,1.833,0,0,1,0-2.516,1.656,1.656,0,0,1,2.413,0Z" transform="translate(-160.375 -122.488)" fill="#ffb09e"/>
    <path id="Path_169" data-name="Path 169" d="M136.757,146.326l1.207,1.258L135.55,150.1l-1.207-1.258a1.833,1.833,0,0,1,0-2.516,1.656,1.656,0,0,1,2.413,0Z" transform="translate(-123.149 -140.773)" fill="#ffcebf"/>
    <path id="Path_170" data-name="Path 170" d="M147.011,156.58l.387.4-2.414,2.516-.387-.4a1.834,1.834,0,0,1,0-2.516,1.656,1.656,0,0,1,2.414,0Z" transform="translate(-132.583 -150.172)" fill="#ffb09e"/>
    <path id="Path_171" data-name="Path 171" d="M106.554,176.534l1.207,1.258-2.413,2.516-1.207-1.258a1.833,1.833,0,0,1,0-2.516,1.656,1.656,0,0,1,2.413,0Z" transform="translate(-95.36 -168.465)" fill="#ffcebf"/>
    <path id="Path_172" data-name="Path 172" d="M116.808,186.788l.387.4-2.413,2.516-.387-.4a1.833,1.833,0,0,1,0-2.516,1.656,1.656,0,0,1,2.413,0Z" transform="translate(-104.794 -177.864)" fill="#ffb09e"/>
    <g id="Group_11345" data-name="Group 11345" transform="translate(5.78 0)">
      <path id="Path_173" data-name="Path 173" d="M134.65,106.759l12.578,13.113-3.391,4.847-5.225,4.136a19.956,19.956,0,0,0-1.558-1.56,7.059,7.059,0,0,0-2.161-1.233,7.066,7.066,0,0,1-2.742-1.777L125,116.824Z" transform="translate(-120.788 -104.98)" fill="#ffcebf"/>
      <path id="Path_174" data-name="Path 174" d="M84.916,106.759l9.654,10.064-7.156,7.46a7.066,7.066,0,0,1-2.742,1.777,9.8,9.8,0,0,0-3.718,2.794L76.44,125.1l-4.1-5.232Z" transform="translate(-72.338 -104.98)" fill="#ffcebf"/>
      <path id="Path_175" data-name="Path 175" d="M232.164,89.7l1.207-1.258a1.833,1.833,0,0,0,0-2.516,1.658,1.658,0,0,0-2.413,0l-1.207,1.258Z" transform="translate(-217.173 -85.404)" fill="#ffcebf"/>
      <path id="Path_176" data-name="Path 176" d="M262.367,119.9l1.207-1.258a1.833,1.833,0,0,0,0-2.516,1.658,1.658,0,0,0-2.413,0l-1.207,1.258Z" transform="translate(-244.962 -113.092)" fill="#ffcebf"/>
      <path id="Path_177" data-name="Path 177" d="M292.57,150.106l1.207-1.258a1.833,1.833,0,0,0,0-2.516,1.658,1.658,0,0,0-2.413,0l-1.207,1.258Z" transform="translate(-272.752 -140.779)" fill="#ffcebf"/>
      <path id="Path_178" data-name="Path 178" d="M323.983,176.534a1.833,1.833,0,0,1,0,2.516l-1.207,1.258-2.413-2.516,1.207-1.258a1.658,1.658,0,0,1,2.413,0Z" transform="translate(-300.544 -168.465)" fill="#ffcebf"/>
    </g>
    <path id="Path_179" data-name="Path 179" d="M323.982,179.713l-1.207,1.259-2.413-2.516,1.207,1.257,1.207-1.258a1.829,1.829,0,0,0,.442-1.719,1.688,1.688,0,0,1,.765.461A1.834,1.834,0,0,1,323.982,179.713Z" transform="translate(-294.762 -169.129)" fill="#ffb09e"/>
    <path id="Path_180" data-name="Path 180" d="M181.755,166.262l-2.1.482-1.987.457a2.163,2.163,0,0,0-1.075.614l-3.861,4.025a7.059,7.059,0,0,1-2.742,1.777,9.78,9.78,0,0,0-3.719,2.794l-.75-.345-.456-.913a9.779,9.779,0,0,1,3.718-2.794,7.075,7.075,0,0,0,2.741-1.777l3.4-3.547a1.239,1.239,0,0,0,0-1.7c-.867-.9-1.736-2.076-2.954-2.451l-3-.926a1.687,1.687,0,0,1,.323-3.32h4.258c.046,0,.092,0,.138,0a4.767,4.767,0,0,1,3.222,1.7l2.228,2.322A16.01,16.01,0,0,1,181.755,166.262Z" transform="translate(-151.88 -152.537)" fill="#ffb09e"/>
    <path id="Path_181" data-name="Path 181" d="M222.587,160.338l2.227,2.322a15.977,15.977,0,0,1,2.608,3.6l-2.094.482-2.766.636-3.428-3.574c-1.084-1.131-3.067-1.41-4.488-1.849a1.687,1.687,0,0,1,.323-3.32h4.258l.138,0A4.767,4.767,0,0,1,222.587,160.338Z" transform="translate(-196.322 -152.539)" fill="#ffcebf"/>
    <path id="Path_182" data-name="Path 182" d="M264.178,160.339l2.227,2.322a15.977,15.977,0,0,1,2.608,3.6l1.119,1.167-3.391,4.847-5.225,4.136a19.964,19.964,0,0,0-1.558-1.56l5-5.212,1.091-1.138a2.25,2.25,0,0,0,.235-2.79,29.348,29.348,0,0,0-2.262-3.053l-2.227-2.322a4.772,4.772,0,0,0-3.221-1.7l2.243,0,.138,0A4.767,4.767,0,0,1,264.178,160.339Z" transform="translate(-237.913 -152.54)" fill="#ffb09e"/>
    <path id="Path_188" data-name="Path 188" d="M290.745,264.168l4.134,4.309-4.435,5.2-5.624,5.284-3.636-3.791a.756.756,0,0,1,0-1.037Z" transform="translate(-258.525 -249.276)" fill="#ddeafb"/>
    <path id="Path_189" data-name="Path 189" d="M326.23,303.063l-4.435,5.2-5.624,5.285-1.119-1.167,10.06-10.487Z" transform="translate(-289.876 -283.862)" fill="#cbe2ff"/>
    <path id="Path_190" data-name="Path 190" d="M339.12,315.9l1.441,1.5a.756.756,0,0,1,0,1.037l-9.065,9.45a.684.684,0,0,1-.995,0l-1.441-1.5Z" transform="translate(-302.766 -296.699)" fill="#ffd15b"/>
    <path id="Path_191" data-name="Path 191" d="M346.587,324.35l-9.065,9.449a.684.684,0,0,1-1,0l-.917-.956a.683.683,0,0,0,.986-.008l9.065-9.45a.757.757,0,0,0,0-1.037l.925.965A.756.756,0,0,1,346.587,324.35Z" transform="translate(-308.793 -302.609)" fill="#ffc344"/>
    <path id="Path_192" data-name="Path 192" d="M24.741,264.168l9.562,9.969a.756.756,0,0,1,0,1.037l-3.636,3.791-5.132-4.739-4.928-5.749Z" transform="translate(-18.96 -249.276)" fill="#ddeafb"/>
    <path id="Path_193" data-name="Path 193" d="M68.892,275.173l-.633.66L58.2,265.345l1.13-1.178,9.562,9.969A.756.756,0,0,1,68.892,275.173Z" transform="translate(-53.549 -249.275)" fill="#cbe2ff"/>
    <ellipse id="Ellipse_121" data-name="Ellipse 121" cx="0.675" cy="0.704" rx="0.675" ry="0.704" transform="translate(11.031 24.752)" fill="#fff9df"/>
    <path id="Path_194" data-name="Path 194" d="M1.647,315.9l10.06,10.487-1.441,1.5a.684.684,0,0,1-.995,0l-9.065-9.45a.756.756,0,0,1,0-1.037Z" transform="translate(-0.001 -296.699)" fill="#21937f"/>
    <path id="Path_195" data-name="Path 195" d="M.3.029,1.7,0,1.4,14.529,0,14.558Z" transform="translate(0.44 20.403) rotate(-45)" fill="#86e2a3"/>
  </g>
</svg>
