<svg id="icon-users" xmlns="http://www.w3.org/2000/svg" xmlns:xlink="http://www.w3.org/1999/xlink" width="38" height="31.483" viewBox="0 0 38 31.483">
  <defs>
    <clipPath id="clip-path">
      <path id="Path_37" data-name="Path 37" d="M16.809,6.935l-.642-.376a.456.456,0,0,0-.413,0l-.648.376a.457.457,0,0,0-.186.248h0a.3.3,0,0,0-.016.073.315.315,0,0,0,0,.038v.769a.454.454,0,0,0,.2.359l.494.289.148.087a.408.408,0,0,0,.181.049.433.433,0,0,0,.233-.049l.628-.364.019-.011a.454.454,0,0,0,.184-.241l0-.006a.3.3,0,0,0,.016-.073.315.315,0,0,0,0-.038V7.294A.454.454,0,0,0,16.809,6.935Z" transform="translate(-14.902 -6.51)" opacity="0.55"/>
    </clipPath>
    <clipPath id="clip-path-2">
      <path id="Path_37-2" data-name="Path 37" d="M16.329,6.828l-.48-.281a.341.341,0,0,0-.309,0l-.484.281a.342.342,0,0,0-.139.185h0a.223.223,0,0,0-.012.055.236.236,0,0,0,0,.029v.575a.339.339,0,0,0,.15.268l.369.216.111.065a.3.3,0,0,0,.135.036.324.324,0,0,0,.174-.036l.47-.273.015-.008a.339.339,0,0,0,.138-.18l0,0a.223.223,0,0,0,.012-.055.236.236,0,0,0,0-.029V7.1A.339.339,0,0,0,16.329,6.828Z" transform="translate(-14.902 -6.51)" opacity="0.55"/>
    </clipPath>
  </defs>
  <rect id="Rectangle_87" data-name="Rectangle 87" width="38" height="31" rx="5" fill="none"/>
  <g id="employee" transform="translate(1.574)">
    <path id="Path_196" data-name="Path 196" d="M345.574,88.241a8.659,8.659,0,0,0-4.247.005,1.017,1.017,0,0,1-.3-1.041,2.427,2.427,0,0,1,2.425-1.242C345.362,85.963,346.538,87.253,345.574,88.241Z" transform="translate(-317.412 -82.648)" fill="#fc9b16"/>
    <path id="Path_197" data-name="Path 197" d="M345.906,93.492a1.146,1.146,0,0,1-.326.6,8.659,8.659,0,0,0-4.247.005c-.612-.642-.366-1.355.347-1.823a.739.739,0,0,0,.758,1.149A8.935,8.935,0,0,1,345.906,93.492Z" transform="translate(-317.418 -88.496)" fill="#ea8a04"/>
    <path id="Path_198" data-name="Path 198" d="M39.112,278.047l-.488,7.594H18.988l-.488-7.594a4.933,4.933,0,0,1,2.17-4.339L25.551,271l3.255,3.26L32.061,271l4.882,2.712a4.93,4.93,0,0,1,2.17,4.339Z" transform="translate(-18.5 -254.158)" fill="#eaf6ff"/>
    <path id="Path_199" data-name="Path 199" d="M22.091,320.934l-.282,4.54H18.988L18.5,317.88a5.041,5.041,0,0,1,1.611-3.911,10.593,10.593,0,0,1,1.98,6.965Z" transform="translate(-18.5 -293.992)" fill="#c4e1ff"/>
    <path id="Path_200" data-name="Path 200" d="M254.65,317.881l-.488,7.594h-2.821l-.282-4.54a10.593,10.593,0,0,1,1.98-6.965A5.028,5.028,0,0,1,254.65,317.881Z" transform="translate(-234.038 -293.992)" fill="#c4e1ff"/>
    <path id="Path_201" data-name="Path 201" d="M83.432,125.466a1.436,1.436,0,0,1-1.356,1.432l-.418.071c-.424,4.237-4.579,6.112-7.447,3.878a5.552,5.552,0,0,1-2.023-3.878l-.418-.071a1.524,1.524,0,0,1-.966-2.555c.666-.665,1.052-.5,1.974-.391l1.188-1.2s3.537,1.432,5.126-.2l1.974,1.4c.892-.1.992-.144,1.28-.065a1.615,1.615,0,0,1,1.085,1.578Z" transform="translate(-66.617 -116.564)" fill="#ffd8a0"/>
    <path id="Path_202" data-name="Path 202" d="M308.447,309.571l-.407,6.46H293.861l.488-7.594a5.828,5.828,0,0,0-.4-2.2c.9-.387,1.108-.675,2.728-2.294a.547.547,0,0,1,.77,0l2.327,2.327,2.327-2.327a.547.547,0,0,1,.77,0c2.208,2.208,1.836,1.915,3.7,2.7A3.019,3.019,0,0,1,308.447,309.571Z" transform="translate(-273.737 -284.549)" fill="#86e2a3"/>
    <path id="Path_203" data-name="Path 203" d="M297.89,304.383c-.175.1-.588.595-1.672,1.606a2.619,2.619,0,0,0-.829,2.213c.081.692.088.1-.412,7.826H293.86l.488-7.594a5.828,5.828,0,0,0-.4-2.2,4.226,4.226,0,0,0,1.486-1.052l1.242-1.242a.546.546,0,0,1,.77,0Z" transform="translate(-273.736 -284.546)" fill="#21937f"/>
    <path id="Path_204" data-name="Path 204" d="M455.273,350.729l-.407,6.46h-2.289l-.287-3.428a7.659,7.659,0,0,1,1.785-5.576A3,3,0,0,1,455.273,350.729Z" transform="translate(-420.564 -325.706)" fill="#21937f"/>
    <path id="Path_205" data-name="Path 205" d="M127.834,236.037v3.1l-2.712,2.718-2.712-2.718v-3.1A4.384,4.384,0,0,0,127.834,236.037Z" transform="translate(-114.816 -221.755)" fill="#ffe1b5"/>
    <path id="Path_206" data-name="Path 206" d="M125.665,241.31l-.542.542-2.712-2.718v-3.1a4.245,4.245,0,0,0,1.085.618,6,6,0,0,0,1.751,4.234Z" transform="translate(-114.817 -221.756)" fill="#ffd79c"/>
    <path id="Path_207" data-name="Path 207" d="M86.94,274.256l-2.712,1.622-3.01-3.509L83.685,271Z" transform="translate(-76.634 -254.159)" fill="#c4e1ff"/>
    <path id="Path_208" data-name="Path 208" d="M26.29,271.733l-4.535,2.517a4.933,4.933,0,0,0-2.17,4.339l.456,7.052H18.989l-.488-7.594a4.933,4.933,0,0,1,2.17-4.339L25.552,271Z" transform="translate(-18.5 -254.158)" fill="#c6e7ff"/>
    <path id="Path_209" data-name="Path 209" d="M19.585,318.422l.456,7.052H18.988L18.5,317.88a5.041,5.041,0,0,1,1.611-3.911,10.734,10.734,0,0,1,.64,1A5.165,5.165,0,0,0,19.585,318.422Z" transform="translate(-18.5 -293.991)" fill="#a0cfff"/>
    <path id="Path_210" data-name="Path 210" d="M86.94,274.256l-2.712,1.622-3.01-3.509L83.685,271Z" transform="translate(-76.634 -254.159)" fill="#c4e1ff"/>
    <path id="Path_211" data-name="Path 211" d="M84.423,271.734l-2.539,1.41-.667-.776L83.685,271Z" transform="translate(-76.634 -254.159)" fill="#a0cfff"/>
    <path id="Path_212" data-name="Path 212" d="M165.243,272.368l-3.01,3.509-2.712-1.622,3.255-3.26Z" transform="translate(-149.214 -254.159)" fill="#c4e1ff"/>
    <path id="Path_215" data-name="Path 215" d="M142.029,316.5l-.613,1.654h-1.768l-.613-1.654,1.5-.895Z" transform="translate(-130.226 -295.506)" fill="#86e2a3"/>
    <path id="Path_216" data-name="Path 216" d="M142.346,359.322h-2.94l.586-8.836h1.768Z" transform="translate(-130.57 -327.839)" fill="#86e2a3"/>
    <path id="Path_217" data-name="Path 217" d="M140.073,317.837l.117.315h-.542l-.613-1.654,1.5-.895.271.163A1.717,1.717,0,0,0,140.073,317.837Z" transform="translate(-130.226 -295.506)" fill="#21937f"/>
    <path id="Path_218" data-name="Path 218" d="M140.534,350.486l-.586,8.836h-.542l.586-8.836Z" transform="translate(-130.57 -327.839)" fill="#21937f"/>
    <path id="Path_219" data-name="Path 219" d="M319.724,306.269l-2.17,1.085-2.17-2.17,1.242-1.242a.547.547,0,0,1,.77,0Z" transform="translate(-293.688 -284.55)" fill="#21937f"/>
    <path id="Path_220" data-name="Path 220" d="M317.842,304.387c-.2.109-1.041,1.058-1.66,1.595l-.8-.8,1.242-1.242a.547.547,0,0,1,.77,0Z" transform="translate(-293.688 -284.55)" fill="#21937f"/>
    <path id="Path_221" data-name="Path 221" d="M379.1,305.184l-2.17,2.17-2.17-1.085,2.327-2.327a.547.547,0,0,1,.77,0Z" transform="translate(-348.725 -284.55)" fill="#21937f"/>
    <path id="Path_224" data-name="Path 224" d="M355.75,284.5v2.267l-1.627,1.627-1.627-1.627V284.5A3.627,3.627,0,0,0,355.75,284.5Z" transform="translate(-328.086 -266.68)" fill="#ffe1b5"/>
    <path id="Path_225" data-name="Path 225" d="M354.665,287.856l-.542.542-1.627-1.627V284.5a3.614,3.614,0,0,0,1.085.342v.391A3.7,3.7,0,0,0,354.665,287.856Z" transform="translate(-328.086 -266.68)" fill="#ffd391"/>
    <path id="Path_226" data-name="Path 226" d="M311.364,184.528a1.2,1.2,0,0,1-1.128,1.2h-.255a4.041,4.041,0,1,1-8.082,0h-.255a1.2,1.2,0,0,1-1.128-1.2,1.268,1.268,0,0,1,1.2-1.356l.77.092.982-1.009s4.193,1.687,5.18-.325l1.231,1.334C310.561,183.265,311.4,183.8,311.364,184.528Z" transform="translate(-279.904 -171.602)" fill="#ffd8a0"/>
    <path id="Path_227" data-name="Path 227" d="M308.094,204.924c-2.4,1.777-5.857.075-6.194-3.379h-.255a1.2,1.2,0,0,1-1.128-1.2A1.248,1.248,0,0,1,301.824,199a1.272,1.272,0,0,0,.906,2h.255C303.265,203.871,305.769,205.662,308.094,204.924Z" transform="translate(-279.905 -187.419)" fill="#ffc97c"/>
    <path id="Path_228" data-name="Path 228" d="M317.356,120.118a1.707,1.707,0,0,0-.819-.233l-1.231-1.334c-.987,2.012-5.18.325-5.18.325l-.982,1.009c-.727-.087-.82-.133-1.123-.033-.309-1.036-1.22-4.969,2.452-6.032a8.659,8.659,0,0,1,4.247-.005C318.62,114.911,317.644,119.131,317.356,120.118Z" transform="translate(-286.558 -108.222)" fill="#fca62f"/>
    <path id="Path_229" data-name="Path 229" d="M316.087,114.376a8.506,8.506,0,0,0-4.529-.081c-3.2.928-2.918,4.03-2.593,5.5a1.844,1.844,0,0,0-.944-.011c-.309-1.036-1.22-4.969,2.452-6.032A7.441,7.441,0,0,1,316.087,114.376Z" transform="translate(-286.557 -108.154)" fill="#fb970c"/>
    <g id="Group_11351" data-name="Group 11351" transform="translate(25.494 23.889)">
      <path id="Path_230" data-name="Path 230" d="M367.34,367.483h1.085v1.085H367.34Z" transform="translate(-367.34 -367.483)" fill="#d6f6f1"/>
      <path id="Path_231" data-name="Path 231" d="M367.34,397.172h1.085v1.085H367.34Z" transform="translate(-367.34 -395.002)" fill="#d6f6f1"/>
      <path id="Path_232" data-name="Path 232" d="M367.34,426.86h1.085v1.085H367.34Z" transform="translate(-367.34 -422.521)" fill="#d6f6f1"/>
    </g>
    <path id="Path_233" data-name="Path 233" d="M97.048,43.444c0,1.1-.9,1.075-.9,2.17V47.94c-.292-.08-.35-.044-1.28.065l-1.974-1.4c-1.589,1.627-5.126.2-5.126.2l-1.188,1.2c-.744-.088-.975-.156-1.28-.054V44.979c0-3.718,4.648-5.166,8.093-3.927l2.636.938A1.532,1.532,0,0,1,97.048,43.444Z" transform="translate(-80.418 -40.617)" fill="#606060"/>
    <path id="Path_234" data-name="Path 234" d="M79.39,147.457c-2.941,2.005-6.8,0-7.209-4.046l-.418-.071a1.524,1.524,0,0,1-.966-2.555,1.353,1.353,0,0,1,1.047-.494,1.519,1.519,0,0,0,1,2.506l.418.071C73.62,146.411,76.628,148.412,79.39,147.457Z" transform="translate(-66.611 -133.007)" fill="#ffce87"/>
    <path id="Path_235" data-name="Path 235" d="M91.369,40.624c-2.609.19-4.985,1.692-4.985,4.345v3.005a2.387,2.387,0,0,0-1.085-.033V44.968C85.3,41.947,88.369,40.428,91.369,40.624Z" transform="translate(-80.418 -40.607)" fill="#535353"/>
    <g id="Group_11352" data-name="Group 11352" transform="translate(13.239 22.646)">
      <path id="Path_23" data-name="Path 23" d="M16.809,6.935l-.642-.376a.456.456,0,0,0-.413,0l-.648.376a.457.457,0,0,0-.186.248h0a.3.3,0,0,0-.016.073.315.315,0,0,0,0,.038v.769a.454.454,0,0,0,.2.359l.494.289.148.087a.408.408,0,0,0,.181.049.433.433,0,0,0,.233-.049l.628-.364.019-.011a.454.454,0,0,0,.184-.241l0-.006a.3.3,0,0,0,.016-.073.315.315,0,0,0,0-.038V7.294A.454.454,0,0,0,16.809,6.935Z" transform="translate(-14.902 -6.51)" fill="#21937f"/>
      <g id="Group_4" data-name="Group 4" transform="translate(0 0)" opacity="0.55">
        <g id="Group_3" data-name="Group 3" clip-path="url(#clip-path)">
          <path id="Path_24" data-name="Path 24" d="M69.214,2.1h.652l-.264.8Z" transform="translate(-68.488 -2.164)" fill="none" stroke="#fff" stroke-miterlimit="10" stroke-width="0.109"/>
          <path id="Path_25" data-name="Path 25" d="M59.293,2.1l.388.8-.523.386Z" transform="translate(-58.567 -2.164)" fill="none" stroke="#fff" stroke-miterlimit="10" stroke-width="0.109"/>
          <path id="Path_26" data-name="Path 26" d="M7.935,3.289,8.069,2.1l-.829.641Z" transform="translate(-7.342 -2.164)" fill="none" stroke="#fff" stroke-miterlimit="10" stroke-width="0.109"/>
          <path id="Path_27" data-name="Path 27" d="M7.935,50.531l-.592.744-.1-1.288Z" transform="translate(-7.342 -49.406)" fill="none" stroke="#fff" stroke-miterlimit="10" stroke-width="0.109"/>
          <path id="Path_28" data-name="Path 28" d="M15.493,90.62l.409.639-1,.105Z" transform="translate(-14.901 -89.495)" fill="none" stroke="#fff" stroke-miterlimit="10" stroke-width="0.109"/>
          <path id="Path_29" data-name="Path 29" d="M59.681,61.753l-.523.386.409.639Z" transform="translate(-58.567 -61.014)" fill="none" stroke="#fff" stroke-miterlimit="10" stroke-width="0.109"/>
          <path id="Path_30" data-name="Path 30" d="M98.218,2.9l1.256-.128-.992-.67Z" transform="translate(-97.103 -2.164)" fill="none" stroke="#fff" stroke-miterlimit="10" stroke-width="0.109"/>
          <path id="Path_31" data-name="Path 31" d="M98.218,52.3l.628.707.628-.835Z" transform="translate(-97.103 -51.566)" fill="none" stroke="#fff" stroke-miterlimit="10" stroke-width="0.109"/>
          <path id="Path_32" data-name="Path 32" d="M89.735,62.778l.741-.318-.628-.707Z" transform="translate(-88.734 -61.014)" fill="none" stroke="#fff" stroke-miterlimit="10" stroke-width="0.109"/>
          <path id="Path_33" data-name="Path 33" d="M15.9,138.366l.051.86-1.052-.755Z" transform="translate(-14.901 -136.602)" fill="none" stroke="#fff" stroke-miterlimit="10" stroke-width="0.109"/>
          <path id="Path_34" data-name="Path 34" d="M90.477,114.609l-.69,1.178-.051-.86Z" transform="translate(-88.734 -113.163)" fill="none" stroke="#fff" stroke-miterlimit="10" stroke-width="0.109"/>
          <path id="Path_35" data-name="Path 35" d="M94.256,114.609l.141.841-.831.337Z" transform="translate(-92.514 -113.163)" fill="none" stroke="#fff" stroke-miterlimit="10" stroke-width="0.109"/>
          <path id="Path_36" data-name="Path 36" d="M145.143,53.012l.628-.835-.135,1.321-.351.355Z" transform="translate(-143.401 -51.566)" fill="none" stroke="#fff" stroke-miterlimit="10" stroke-width="0.109"/>
        </g>
      </g>
      <path id="Path_38" data-name="Path 38" d="M16.511,54.67h0l-.271.293L16.21,55l-.146-.192-.348-.5h0l-.815.877v.037a.454.454,0,0,0,.2.359l.494.289.148.087a.408.408,0,0,0,.181.049.433.433,0,0,0,.233-.049l.628-.364.019-.011a.329.329,0,0,0,.055-.04l.018-.289Z" transform="translate(-14.901 -53.661)" fill="#1b7362" opacity="0.3"/>
      <path id="Path_39" data-name="Path 39" d="M63.818,48.666c-.026-.071-.069-.155-.152-.171a.189.189,0,0,0-.2.1,1.355,1.355,0,0,0-.122.367c-.024.1-.045.194-.071.29-.017-.075-.03-.152-.043-.228l-.025-.154a3.367,3.367,0,0,0-.088-.4.59.59,0,0,0-.147-.292.2.2,0,0,0-.3.046h0a.659.659,0,0,0-.1.248,3.126,3.126,0,0,0-.067.812,2.816,2.816,0,0,0,.055.486l.148.087a.408.408,0,0,0,.181.049l0-.007-.006-.014c-.009-.023-.018-.046-.025-.07a1.5,1.5,0,0,1-.042-.172q-.009-.047-.016-.094h0l0-.021c0-.017,0-.033-.005-.05q-.01-.1-.013-.2a3.615,3.615,0,0,1,.01-.415c0-.032.006-.063.009-.095,0-.015,0-.03.005-.044l0-.017c.008-.054.017-.107.03-.16,0-.015.007-.03.012-.046l0,0a2.368,2.368,0,0,1,.06.23c.038.176.06.355.1.531a1.529,1.529,0,0,0,.07.266.266.266,0,0,0,.153.179c.162.052.238-.143.274-.259.043-.136.072-.277.106-.415l.02-.079a3.3,3.3,0,0,0,.126.537l.019-.011a.454.454,0,0,0,.184-.241c-.017-.1-.039-.221-.06-.319A1.92,1.92,0,0,0,63.818,48.666Z" transform="translate(-61.862 -47.571)" fill="#fff"/>
    </g>
    <g id="Group_11353" data-name="Group 11353" transform="translate(28.713 23.983)">
      <path id="Path_23-2" data-name="Path 23" d="M16.329,6.828l-.48-.281a.341.341,0,0,0-.309,0l-.484.281a.342.342,0,0,0-.139.185h0a.223.223,0,0,0-.012.055.236.236,0,0,0,0,.029v.575a.339.339,0,0,0,.15.268l.369.216.111.065a.3.3,0,0,0,.135.036.324.324,0,0,0,.174-.036l.47-.273.015-.008a.339.339,0,0,0,.138-.18l0,0a.223.223,0,0,0,.012-.055.236.236,0,0,0,0-.029V7.1A.339.339,0,0,0,16.329,6.828Z" transform="translate(-14.902 -6.51)" fill="#21937f"/>
      <g id="Group_4-2" data-name="Group 4" transform="translate(0 0)" opacity="0.55">
        <g id="Group_3-2" data-name="Group 3" clip-path="url(#clip-path-2)">
          <path id="Path_24-2" data-name="Path 24" d="M69.214,2.1H69.7l-.2.6Z" transform="translate(-68.671 -2.149)" fill="none" stroke="#fff" stroke-miterlimit="10" stroke-width="0.109"/>
          <path id="Path_25-2" data-name="Path 25" d="M59.259,2.1l.29.6-.391.289Z" transform="translate(-58.716 -2.149)" fill="none" stroke="#fff" stroke-miterlimit="10" stroke-width="0.109"/>
          <path id="Path_26-2" data-name="Path 26" d="M7.76,2.99l.1-.886-.62.479Z" transform="translate(-7.317 -2.149)" fill="none" stroke="#fff" stroke-miterlimit="10" stroke-width="0.109"/>
          <path id="Path_27-2" data-name="Path 27" d="M7.76,50.394l-.443.556-.077-.963Z" transform="translate(-7.317 -49.553)" fill="none" stroke="#fff" stroke-miterlimit="10" stroke-width="0.109"/>
          <path id="Path_28-2" data-name="Path 28" d="M15.344,90.62l.306.478-.749.079Z" transform="translate(-14.901 -89.778)" fill="none" stroke="#fff" stroke-miterlimit="10" stroke-width="0.109"/>
          <path id="Path_29-2" data-name="Path 29" d="M59.55,61.753l-.391.289.306.478Z" transform="translate(-58.716 -61.201)" fill="none" stroke="#fff" stroke-miterlimit="10" stroke-width="0.109"/>
          <path id="Path_30-2" data-name="Path 30" d="M98.218,2.7l.939-.1-.742-.5Z" transform="translate(-97.384 -2.149)" fill="none" stroke="#fff" stroke-miterlimit="10" stroke-width="0.109"/>
          <path id="Path_31-2" data-name="Path 31" d="M98.218,52.273l.47.529.47-.625Z" transform="translate(-97.384 -51.72)" fill="none" stroke="#fff" stroke-miterlimit="10" stroke-width="0.109"/>
          <path id="Path_32-2" data-name="Path 32" d="M89.735,62.52l.554-.238-.47-.529Z" transform="translate(-88.987 -61.201)" fill="none" stroke="#fff" stroke-miterlimit="10" stroke-width="0.109"/>
          <path id="Path_33-2" data-name="Path 33" d="M15.65,138.366l.038.643-.787-.565Z" transform="translate(-14.901 -137.047)" fill="none" stroke="#fff" stroke-miterlimit="10" stroke-width="0.109"/>
          <path id="Path_34-2" data-name="Path 34" d="M90.29,114.609l-.516.881-.038-.643Z" transform="translate(-88.987 -113.527)" fill="none" stroke="#fff" stroke-miterlimit="10" stroke-width="0.109"/>
          <path id="Path_35-2" data-name="Path 35" d="M94.082,114.609l.105.629-.621.252Z" transform="translate(-92.779 -113.527)" fill="none" stroke="#fff" stroke-miterlimit="10" stroke-width="0.109"/>
          <path id="Path_36-2" data-name="Path 36" d="M145.143,52.8l.47-.625-.1.988-.263.266Z" transform="translate(-143.84 -51.72)" fill="none" stroke="#fff" stroke-miterlimit="10" stroke-width="0.109"/>
        </g>
      </g>
      <path id="Path_38-2" data-name="Path 38" d="M16.106,54.576h0l-.2.219-.023.025-.109-.144-.26-.376h0l-.61.656v.027a.339.339,0,0,0,.15.268l.369.216.111.065a.305.305,0,0,0,.135.036.324.324,0,0,0,.174-.036l.47-.273.015-.008a.246.246,0,0,0,.041-.03L16.379,55Z" transform="translate(-14.901 -53.822)" fill="#1b7362" opacity="0.3"/>
      <path id="Path_39-2" data-name="Path 39" d="M63.485,48.53c-.019-.053-.052-.116-.114-.128a.141.141,0,0,0-.153.076,1.013,1.013,0,0,0-.091.275c-.018.072-.034.145-.053.217-.012-.056-.022-.113-.032-.17l-.019-.115a2.516,2.516,0,0,0-.066-.3.441.441,0,0,0-.11-.218.147.147,0,0,0-.225.034h0a.493.493,0,0,0-.073.186,2.338,2.338,0,0,0-.05.608,2.106,2.106,0,0,0,.041.364l.111.065a.3.3,0,0,0,.135.036l0,0,0-.01c-.007-.017-.013-.035-.019-.052a1.118,1.118,0,0,1-.032-.128q-.007-.035-.012-.07h0l0-.015c0-.012,0-.025,0-.037q-.007-.076-.01-.153a2.7,2.7,0,0,1,.008-.311c0-.024,0-.047.007-.071l0-.033,0-.013c.006-.04.013-.08.022-.12l.009-.034v0a1.771,1.771,0,0,1,.045.172c.028.132.045.265.071.4a1.143,1.143,0,0,0,.052.2.2.2,0,0,0,.114.134c.121.039.178-.107.205-.194.032-.1.054-.207.08-.311l.015-.059a2.471,2.471,0,0,0,.094.4l.015-.008a.339.339,0,0,0,.138-.18c-.013-.077-.029-.165-.045-.239A1.437,1.437,0,0,0,63.485,48.53Z" transform="translate(-62.022 -47.711)" fill="#fff"/>
    </g>
  </g>
</svg>
