<svg xmlns="http://www.w3.org/2000/svg" width="17.458" height="17.457" viewBox="0 0 17.458 17.457">
  <path id="so-calling" d="M18.916,15.746a1.84,1.84,0,0,1-.456,2.931,6.583,6.583,0,0,1-4.779.56C9.417,18.164,3.289,12.035,2.215,7.771a6.583,6.583,0,0,1,.56-4.779,1.84,1.84,0,0,1,2.931-.456l1.82,1.819a1.827,1.827,0,0,1,.388,2.032A3.383,3.383,0,0,1,7.236,7.41c-2.08,2.08,4.727,8.888,6.807,6.807a3.384,3.384,0,0,1,1.024-.682,1.826,1.826,0,0,1,2.032.388ZM9.479,2.672a.873.873,0,1,0,.749,1.576A5.236,5.236,0,0,1,17.2,11.225a.873.873,0,0,0,1.577.749,6.981,6.981,0,0,0-9.3-9.3Zm4.227,8.776a.873.873,0,0,0,1.234,0A3.491,3.491,0,1,0,10,6.513a.873.873,0,0,0,1.234,1.234,1.787,1.787,0,0,1,2.469,0,1.745,1.745,0,0,1,0,2.468.873.873,0,0,0,0,1.234Z" transform="translate(-1.998 -1.997)" fill="#fff"/>
</svg>
