<svg id="social-media" xmlns="http://www.w3.org/2000/svg" width="37.933" height="30.786" viewBox="0 0 37.933 30.786">
  <circle id="Ellipse_117" data-name="Ellipse 117" cx="4.177" cy="4.177" r="4.177" transform="translate(18.13 0)" fill="#42c3fc"/>
  <path id="Path_124" data-name="Path 124" d="M263.034,10.67a.333.333,0,0,0-.1-.06,1.261,1.261,0,0,1-.883-1.681.348.348,0,0,0-.134-.381.791.791,0,0,1-.2-1.007.339.339,0,0,0,.008-.249l-.765-2.116a.349.349,0,0,0-.182-.2,1.584,1.584,0,0,1-.7-1.921.336.336,0,0,0,0-.166,4.177,4.177,0,1,0,2.961,7.777Z" transform="translate(-238.899 -2.736)" fill="#1aa9e8"/>
  <path id="Path_125" data-name="Path 125" d="M277.336,33.063a3.334,3.334,0,0,0-2.9,1.681.424.424,0,0,0,0,.422,3.336,3.336,0,0,0,5.794,0,.424.424,0,0,0,0-.422A3.334,3.334,0,0,0,277.336,33.063Z" transform="translate(-255.029 -30.778)" fill="#fff"/>
  <path id="Path_126" data-name="Path 126" d="M278.044,36.846a.791.791,0,0,1-.2-1.007.339.339,0,0,0,.008-.249l-.765-2.116a.337.337,0,0,0-.094-.135A3.335,3.335,0,0,0,274.439,35a.424.424,0,0,0,0,.422A3.331,3.331,0,0,0,278.165,37,.351.351,0,0,0,278.044,36.846Z" transform="translate(-255.029 -31.035)" fill="#fff"/>
  <circle id="Ellipse_118" data-name="Ellipse 118" cx="4.177" cy="4.177" r="4.177" transform="translate(26.478 13.178) rotate(-76.7)" fill="#ff4155"/>
  <path id="Path_127" data-name="Path 127" d="M392.875,91.934a.328.328,0,0,0-.248-.287.448.448,0,0,1-.226-.145.3.3,0,0,1-.04-.062,3.149,3.149,0,0,0-1.3-1.309.865.865,0,0,1-.508-1.124.326.326,0,0,0-.081-.343,1.511,1.511,0,0,1-.2-2.011.333.333,0,0,0,.051-.153,4.177,4.177,0,1,0,4.3,6.778C393.178,93.34,392.915,92.42,392.875,91.934Z" transform="translate(-359.993 -80.446)" fill="#e80054"/>
  <path id="Path_128" data-name="Path 128" d="M416.948,120.062a1.429,1.429,0,0,0-1.952-.535l-.168.094a.25.25,0,0,1-.244,0l-.2-.111a1.406,1.406,0,0,0-1.935.577h0a1.4,1.4,0,0,0,.534,1.862,6.378,6.378,0,0,1,1.5,1.189.3.3,0,0,0,.444,0,6.378,6.378,0,0,1,1.5-1.189,1.4,1.4,0,0,0,.521-1.887Z" transform="translate(-383.209 -110.96)" fill="#fff"/>
  <path id="Path_129" data-name="Path 129" d="M412.984,121.969a6.378,6.378,0,0,1,1.5,1.189.3.3,0,0,0,.444,0,6.139,6.139,0,0,1,1.052-.905.346.346,0,0,0-.137-.071.448.448,0,0,1-.226-.145.3.3,0,0,1-.04-.062,3.149,3.149,0,0,0-1.3-1.309.865.865,0,0,1-.509-1.124.322.322,0,0,0,.009-.188,1.405,1.405,0,0,0-1.324.753h0A1.4,1.4,0,0,0,412.984,121.969Z" transform="translate(-383.208 -110.981)" fill="#fff"/>
  <circle id="Ellipse_119" data-name="Ellipse 119" cx="4.177" cy="4.177" r="4.177" transform="translate(26.121 20.794) rotate(-45)" fill="#ffc344"/>
  <path id="Path_130" data-name="Path 130" d="M399.907,244.65l-1-4.517a1.468,1.468,0,0,1-.877-1.991,4.177,4.177,0,1,0,2.6,7.924A1.131,1.131,0,0,1,399.907,244.65Z" transform="translate(-367.052 -221.392)" fill="#ffad00"/>
  <path id="Path_131" data-name="Path 131" d="M419.576,266.362h3.753a.6.6,0,0,1,.6.6v2.667a.6.6,0,0,1-.6.6h-.537a.177.177,0,0,0-.148.08l-.37.564a.227.227,0,0,1-.38,0l-.37-.564a.178.178,0,0,0-.148-.08h-1.8a.6.6,0,0,1-.6-.6v-2.667A.6.6,0,0,1,419.576,266.362Z" transform="translate(-389.42 -247.621)" fill="#fff"/>
  <g id="Group_11334" data-name="Group 11334" transform="translate(29.554 18.741)">
    <path id="Path_132" data-name="Path 132" d="M420.673,269.632v-2.667a.6.6,0,0,1,.6-.6h-1.7a.6.6,0,0,0-.6.6v2.667a.6.6,0,0,0,.6.6h1.7A.6.6,0,0,1,420.673,269.632Z" transform="translate(-418.975 -266.362)" fill="#fff"/>
  </g>
  <path id="Path_133" data-name="Path 133" d="M296.568,33.235a1.413,1.413,0,1,0,2.114,0,3.351,3.351,0,0,0-2.114,0Z" transform="translate(-275.318 -30.779)" fill="#47477f"/>
  <g id="Group_11335" data-name="Group 11335" transform="translate(0 18.211)">
    <path id="Path_138" data-name="Path 138" d="M2.947,261.044l-.966-1.673a1.062,1.062,0,1,0-1.839,1.062l.966,1.673Z" transform="translate(0 -258.84)" fill="#e9efff"/>
  </g>
  <path id="Path_139" data-name="Path 139" d="M5.559,268.775c0,.038.006.077.006.117a1.177,1.177,0,0,1-1.821.986l.844,1.462,1.839-1.062Z" transform="translate(-3.48 -249.864)" fill="#d3dcfb"/>
  <path id="Path_140" data-name="Path 140" d="M9.361,287.041l4.557-2.631a1.043,1.043,0,0,1-.175-.224l-4.775-8.27a1.042,1.042,0,0,1-.107-.264L4.8,277.994a17.231,17.231,0,0,0,4.556,9.048Z" transform="translate(-4.466 -256.255)" fill="#21937f"/>
  <path id="Path_141" data-name="Path 141" d="M11.126,280.113l0-.454-2.161-3.743a1.041,1.041,0,0,1-.107-.264l-4.056,2.342a17.163,17.163,0,0,0,1.544,4.757,1.483,1.483,0,0,1,.7-1.2s1.234-.723,2.309-1.314A1.716,1.716,0,0,1,11.126,280.113Z" transform="translate(-4.466 -256.255)" fill="#1b7e6d"/>
  <g id="Group_11336" data-name="Group 11336" transform="translate(9.288 7.97)">
    <path id="Path_142" data-name="Path 142" d="M137.08,131.211a16.228,16.228,0,0,1,9.871-.684l-9.742-16.874a16.228,16.228,0,0,1-5.527,8.207,1.038,1.038,0,0,1,.493.436l4.774,8.27A1.038,1.038,0,0,1,137.08,131.211Z" transform="translate(-131.681 -113.654)" fill="#d3dcfb"/>
  </g>
  <g id="Group_11337" data-name="Group 11337" transform="translate(9.288 7.97)">
    <path id="Path_143" data-name="Path 143" d="M140.615,119.556l-3.407-5.9a16.228,16.228,0,0,1-5.527,8.207,1.038,1.038,0,0,1,.493.436l2.325,4.027A20.544,20.544,0,0,0,140.615,119.556Z" transform="translate(-131.68 -113.654)" fill="#bec8f7"/>
  </g>
  <path id="Path_144" data-name="Path 144" d="M69.161,237.883l-3.807,2.2a1.044,1.044,0,0,1-1.426-.382l-4.774-8.27A1.044,1.044,0,0,1,59.535,230l3.807-2.2a1.044,1.044,0,0,1,1.426.382l4.774,8.27A1.044,1.044,0,0,1,69.161,237.883Z" transform="translate(-54.851 -211.654)" fill="#21937f"/>
  <path id="Path_145" data-name="Path 145" d="M64.768,228.189a1.044,1.044,0,0,0-1.426-.382l-3.807,2.2a1.044,1.044,0,0,0-.382,1.426l2.357,4.082a.823.823,0,0,1,1.256-.655l3.164-1.827a.872.872,0,0,1,1.155-.83Z" transform="translate(-54.851 -211.655)" fill="#1b7e6d"/>
  <g id="Group_11338" data-name="Group 11338" transform="translate(5.895 17.735)">
    <path id="Path_146" data-name="Path 146" d="M84.1,254.45a.529.529,0,0,1-.265-.987l2.247-1.3a.529.529,0,0,1,.529.916l-2.247,1.3A.527.527,0,0,1,84.1,254.45Z" transform="translate(-83.573 -252.095)" fill="#86e2a3"/>
  </g>
  <g id="Group_11339" data-name="Group 11339" transform="translate(6.87 19.423)">
    <path id="Path_147" data-name="Path 147" d="M97.922,278.386a.529.529,0,0,1-.265-.987l2.247-1.3a.529.529,0,1,1,.529.916l-2.247,1.3A.527.527,0,0,1,97.922,278.386Z" transform="translate(-97.392 -276.03)" fill="#86e2a3"/>
  </g>
  <g id="Group_11340" data-name="Group 11340" transform="translate(7.845 21.112)">
    <path id="Path_148" data-name="Path 148" d="M111.741,302.321a.529.529,0,0,1-.265-.987l2.247-1.3a.529.529,0,0,1,.529.916L112,302.25A.527.527,0,0,1,111.741,302.321Z" transform="translate(-111.211 -299.966)" fill="#86e2a3"/>
  </g>
  <g id="Group_11341" data-name="Group 11341" transform="translate(8.819 22.8)">
    <path id="Path_149" data-name="Path 149" d="M125.56,326.256a.529.529,0,0,1-.265-.987l2.247-1.3a.529.529,0,1,1,.529.916l-2.247,1.3A.526.526,0,0,1,125.56,326.256Z" transform="translate(-125.03 -323.9)" fill="#86e2a3"/>
  </g>
  <g id="Group_11342" data-name="Group 11342" transform="translate(9.794 24.488)">
    <path id="Path_150" data-name="Path 150" d="M139.379,350.191a.529.529,0,0,1-.265-.987l2.247-1.3a.529.529,0,1,1,.529.916l-2.247,1.3A.527.527,0,0,1,139.379,350.191Z" transform="translate(-138.849 -347.835)" fill="#86e2a3"/>
  </g>
  <g id="Group_11343" data-name="Group 11343" transform="translate(14.516 6.386)">
    <path id="Path_151" data-name="Path 151" d="M217.191,110.181a1.062,1.062,0,0,1-1.45-.389l-9.813-17a1.062,1.062,0,1,1,1.839-1.062l9.813,17A1.061,1.061,0,0,1,217.191,110.181Z" transform="translate(-205.785 -91.203)" fill="#e9efff"/>
  </g>
  <path id="Path_152" data-name="Path 152" d="M210.022,97.678a1.243,1.243,0,0,1,1.149-.049l-3.4-5.9a1.062,1.062,0,0,0-1.839,1.062L209.4,98.81A1.244,1.244,0,0,1,210.022,97.678Z" transform="translate(-191.271 -84.816)" fill="#d3dcfb"/>
  <circle id="Ellipse_120" data-name="Ellipse 120" cx="0.516" cy="0.516" r="0.516" transform="translate(22.204 2.667)" fill="#5f5f9b"/>
</svg>
