<svg xmlns="http://www.w3.org/2000/svg" width="38" height="31.483" viewBox="0 0 38 31.483"><defs><clipPath id="a"><path data-name="Path 37" d="M16.809 6.935l-.642-.376a.456.456 0 0 0-.413 0l-.648.376a.457.457 0 0 0-.186.248.3.3 0 0 0-.016.073.315.315 0 0 0 0 .038v.769a.454.454 0 0 0 .2.359l.494.289.148.087a.408.408 0 0 0 .181.049.433.433 0 0 0 .233-.049l.628-.364.019-.011a.454.454 0 0 0 .184-.241v-.006a.3.3 0 0 0 .016-.073.315.315 0 0 0 0-.038v-.771a.454.454 0 0 0-.198-.359z" transform="translate(-14.902 -6.51)" opacity=".55"/></clipPath><clipPath id="b"><path data-name="Path 37" d="M16.329 6.828l-.48-.281a.341.341 0 0 0-.309 0l-.484.281a.342.342 0 0 0-.139.185.223.223 0 0 0-.012.055.236.236 0 0 0 0 .029v.575a.339.339 0 0 0 .15.268l.369.216.111.065a.3.3 0 0 0 .135.036.324.324 0 0 0 .174-.036l.47-.273.015-.008a.339.339 0 0 0 .138-.18.223.223 0 0 0 .012-.055.236.236 0 0 0 0-.029V7.1a.339.339 0 0 0-.15-.272z" transform="translate(-14.902 -6.51)" opacity=".55"/></clipPath></defs><rect data-name="Rectangle 87" width="38" height="31" rx="5" fill="none"/><path data-name="Path 196" d="M29.736 5.593a8.659 8.659 0 0 0-4.247.005 1.017 1.017 0 0 1-.3-1.041 2.427 2.427 0 0 1 2.425-1.242c1.91 0 3.086 1.29 2.122 2.278z" fill="#fc9b16"/><path data-name="Path 197" d="M30.062 4.996a1.146 1.146 0 0 1-.326.6 8.659 8.659 0 0 0-4.247.005c-.612-.642-.366-1.355.347-1.823a.739.739 0 0 0 .758 1.149 8.935 8.935 0 0 1 3.468.069z" fill="#ea8a04"/><path data-name="Path 198" d="M22.186 23.889l-.488 7.594H2.062l-.488-7.594a4.933 4.933 0 0 1 2.17-4.339l4.881-2.708 3.255 3.26 3.255-3.26 4.882 2.712a4.93 4.93 0 0 1 2.17 4.339z" fill="#eaf6ff"/><path data-name="Path 199" d="M5.165 26.942l-.282 4.54H2.062l-.488-7.594a5.041 5.041 0 0 1 1.611-3.911 10.593 10.593 0 0 1 1.98 6.965z" fill="#c4e1ff"/><path data-name="Path 200" d="M22.186 23.889l-.488 7.594h-2.821l-.282-4.54a10.593 10.593 0 0 1 1.98-6.965 5.028 5.028 0 0 1 1.611 3.911z" fill="#c4e1ff"/><path data-name="Path 201" d="M18.389 8.902a1.436 1.436 0 0 1-1.356 1.432l-.418.071c-.424 4.237-4.579 6.112-7.447 3.878a5.552 5.552 0 0 1-2.023-3.878l-.418-.071a1.524 1.524 0 0 1-.966-2.555c.666-.665 1.052-.5 1.974-.391l1.188-1.2s3.537 1.432 5.126-.2l1.974 1.4c.892-.1.992-.144 1.28-.065a1.615 1.615 0 0 1 1.085 1.578z" fill="#ffd8a0"/><path data-name="Path 202" d="M36.284 25.022l-.407 6.46H21.698l.488-7.594a5.828 5.828 0 0 0-.4-2.2c.9-.387 1.108-.675 2.728-2.294a.547.547 0 0 1 .77 0l2.327 2.327 2.327-2.327a.547.547 0 0 1 .77 0c2.208 2.208 1.836 1.915 3.7 2.7a3.019 3.019 0 0 1 1.876 2.928z" fill="#86e2a3"/><path data-name="Path 203" d="M25.728 19.837c-.175.1-.588.595-1.672 1.606a2.619 2.619 0 0 0-.829 2.213c.081.692.088.1-.412 7.826h-1.117l.488-7.594a5.828 5.828 0 0 0-.4-2.2 4.226 4.226 0 0 0 1.486-1.052l1.242-1.242a.546.546 0 0 1 .77 0z" fill="#21937f"/><path data-name="Path 204" d="M36.283 25.023l-.407 6.46h-2.289l-.287-3.428a7.659 7.659 0 0 1 1.785-5.576 3 3 0 0 1 1.198 2.544z" fill="#21937f"/><path data-name="Path 205" d="M14.592 14.282v3.1L11.88 20.1l-2.712-2.718v-3.1a4.384 4.384 0 0 0 5.424 0z" fill="#ffe1b5"/><path data-name="Path 206" d="M12.422 19.554l-.542.542-2.712-2.718v-3.1a4.245 4.245 0 0 0 1.085.618 6 6 0 0 0 1.751 4.234z" fill="#ffd79c"/><path data-name="Path 207" d="M11.88 20.097l-2.712 1.622-3.01-3.509 2.467-1.369z" fill="#c4e1ff"/><path data-name="Path 208" d="M9.364 17.575l-4.535 2.517a4.933 4.933 0 0 0-2.17 4.339l.456 7.052H2.063l-.488-7.594a4.933 4.933 0 0 1 2.17-4.339l4.881-2.708z" fill="#c6e7ff"/><path data-name="Path 209" d="M2.659 24.431l.456 7.052H2.062l-.488-7.594a5.041 5.041 0 0 1 1.611-3.911 10.734 10.734 0 0 1 .64 1 5.165 5.165 0 0 0-1.166 3.453z" fill="#a0cfff"/><path data-name="Path 210" d="M11.88 20.097l-2.712 1.622-3.01-3.509 2.467-1.369z" fill="#c4e1ff"/><path data-name="Path 211" d="M9.363 17.575l-2.539 1.41-.667-.776 2.468-1.368z" fill="#a0cfff"/><path data-name="Path 212" d="M17.603 18.209l-3.01 3.509-2.712-1.622 3.255-3.26z" fill="#c4e1ff"/><path data-name="Path 215" d="M13.377 20.994l-.613 1.654h-1.768l-.613-1.654 1.5-.895z" fill="#86e2a3"/><path data-name="Path 216" d="M13.35 31.483h-2.94l.586-8.836h1.768z" fill="#86e2a3"/><path data-name="Path 217" d="M11.421 22.331l.117.315h-.542l-.613-1.654 1.5-.895.271.163a1.717 1.717 0 0 0-.733 2.071z" fill="#21937f"/><path data-name="Path 218" d="M11.538 22.647l-.586 8.836h-.542l.586-8.836z" fill="#21937f"/><path data-name="Path 219" d="M27.61 21.719l-2.17 1.085-2.17-2.17 1.242-1.242a.547.547 0 0 1 .77 0z" fill="#21937f"/><path data-name="Path 220" d="M25.728 19.837c-.2.109-1.041 1.058-1.66 1.595l-.8-.8 1.242-1.242a.547.547 0 0 1 .77 0z" fill="#21937f"/><path data-name="Path 221" d="M31.949 20.634l-2.17 2.17-2.17-1.085 2.327-2.327a.547.547 0 0 1 .77 0z" fill="#21937f"/><path data-name="Path 224" d="M29.238 17.82v2.267l-1.627 1.627-1.627-1.627V17.82a3.627 3.627 0 0 0 3.254 0z" fill="#ffe1b5"/><path data-name="Path 225" d="M28.153 21.176l-.542.542-1.627-1.627V17.82a3.614 3.614 0 0 0 1.085.342v.391a3.7 3.7 0 0 0 1.084 2.623z" fill="#ffd391"/><path data-name="Path 226" d="M33.034 12.926a1.2 1.2 0 0 1-1.128 1.2h-.255a4.041 4.041 0 1 1-8.082 0h-.255a1.2 1.2 0 0 1-1.128-1.2 1.268 1.268 0 0 1 1.2-1.356l.77.092.982-1.009s4.193 1.687 5.18-.325l1.231 1.334c.682.001 1.521.536 1.485 1.264z" fill="#ffd8a0"/><path data-name="Path 227" d="M29.763 17.505c-2.4 1.777-5.857.075-6.194-3.379h-.255a1.2 1.2 0 0 1-1.128-1.2 1.248 1.248 0 0 1 1.307-1.345 1.272 1.272 0 0 0 .906 2h.255c.28 2.871 2.784 4.662 5.109 3.924z" fill="#ffc97c"/><path data-name="Path 228" d="M32.372 11.896a1.707 1.707 0 0 0-.819-.233l-1.231-1.334c-.987 2.012-5.18.325-5.18.325l-.982 1.009c-.727-.087-.82-.133-1.123-.033-.309-1.036-1.22-4.969 2.452-6.032a8.659 8.659 0 0 1 4.247-.005c3.9 1.096 2.924 5.316 2.636 6.303z" fill="#fca62f"/><path data-name="Path 229" d="M31.104 6.222a8.506 8.506 0 0 0-4.529-.081c-3.2.928-2.918 4.03-2.593 5.5a1.844 1.844 0 0 0-.944-.011c-.309-1.036-1.22-4.969 2.452-6.032a7.441 7.441 0 0 1 5.614.624z" fill="#fb970c"/><g data-name="Group 11351" fill="#d6f6f1"><path data-name="Path 230" d="M27.068 23.889h1.085v1.085h-1.085z"/><path data-name="Path 231" d="M27.068 26.059h1.085v1.085h-1.085z"/><path data-name="Path 232" d="M27.068 28.228h1.085v1.085h-1.085z"/></g><path data-name="Path 233" d="M18.204 2.827c0 1.1-.9 1.075-.9 2.17v2.326c-.292-.08-.35-.044-1.28.065l-1.974-1.4c-1.589 1.627-5.126.2-5.126.2l-1.188 1.2c-.744-.088-.975-.156-1.28-.054V4.362c0-3.718 4.648-5.166 8.093-3.927l2.636.938a1.532 1.532 0 0 1 1.019 1.454z" fill="#606060"/><path data-name="Path 234" d="M14.353 14.45c-2.941 2.005-6.8 0-7.209-4.046l-.418-.071a1.524 1.524 0 0 1-.966-2.555 1.353 1.353 0 0 1 1.047-.494 1.519 1.519 0 0 0 1 2.506l.418.071c.358 3.543 3.366 5.544 6.128 4.589z" fill="#ffce87"/><path data-name="Path 235" d="M12.525.017C9.916.207 7.54 1.709 7.54 4.362v3.005a2.387 2.387 0 0 0-1.085-.033V4.361c.001-3.021 3.07-4.54 6.07-4.344z" fill="#535353"/><g data-name="Group 11352"><path data-name="Path 23" d="M16.72 23.071l-.642-.376a.456.456 0 0 0-.413 0l-.648.376a.457.457 0 0 0-.186.248.3.3 0 0 0-.016.073.315.315 0 0 0 0 .038v.769a.454.454 0 0 0 .2.359l.494.289.148.087a.408.408 0 0 0 .181.049.433.433 0 0 0 .233-.049l.628-.364.019-.011a.454.454 0 0 0 .184-.241v-.006a.3.3 0 0 0 .016-.073.315.315 0 0 0 0-.038v-.771a.454.454 0 0 0-.198-.359z" fill="#21937f"/><g data-name="Group 3" clip-path="url(#a)" fill="none" stroke="#fff" stroke-miterlimit="10" stroke-width=".109" transform="translate(14.813 22.646)" opacity=".55"><path data-name="Path 24" d="M.726-.064h.652l-.264.8z"/><path data-name="Path 25" d="M.726-.064l.388.8-.523.386z"/><path data-name="Path 26" d="M.593 1.125L.727-.064l-.829.641z"/><path data-name="Path 27" d="M.593 1.125l-.592.744-.1-1.288z"/><path data-name="Path 28" d="M.592 1.125l.409.639-1 .105z"/><path data-name="Path 29" d="M1.114.739l-.523.386.409.639z"/><path data-name="Path 30" d="M1.115.736L2.371.608l-.992-.67z"/><path data-name="Path 31" d="M1.115.734l.628.707.628-.835z"/><path data-name="Path 32" d="M1.001 1.764l.741-.318-.628-.707z"/><path data-name="Path 33" d="M.999 1.764l.051.86-1.052-.755z"/><path data-name="Path 34" d="M1.743 1.446l-.69 1.178-.051-.86z"/><path data-name="Path 35" d="M1.742 1.446l.141.841-.831.337z"/><path data-name="Path 36" d="M1.742 1.446L2.37.611l-.135 1.321-.351.355z"/></g><path data-name="Path 38" d="M16.423 23.655l-.271.293-.03.037-.146-.192-.348-.5-.815.877v.037a.454.454 0 0 0 .2.359l.494.289.148.087a.408.408 0 0 0 .181.049.433.433 0 0 0 .233-.049l.628-.364.019-.011a.329.329 0 0 0 .055-.04l.018-.289z" fill="#1b7362" opacity=".3"/><path data-name="Path 39" d="M16.769 23.741c-.026-.071-.069-.155-.152-.171a.189.189 0 0 0-.2.1 1.355 1.355 0 0 0-.122.367c-.024.1-.045.194-.071.29-.017-.075-.03-.152-.043-.228l-.025-.154a3.367 3.367 0 0 0-.088-.4.59.59 0 0 0-.147-.292.2.2 0 0 0-.3.046.659.659 0 0 0-.1.248 3.126 3.126 0 0 0-.067.812 2.816 2.816 0 0 0 .055.486l.148.087a.408.408 0 0 0 .181.049v-.007l-.006-.014c-.009-.023-.018-.046-.025-.07a1.5 1.5 0 0 1-.042-.172l-.016-.094v-.021c0-.017 0-.033-.005-.05q-.01-.1-.013-.2a3.615 3.615 0 0 1 .01-.415c0-.032.006-.063.009-.095 0-.015 0-.03.005-.044v-.017c.008-.054.017-.107.03-.16 0-.015.007-.03.012-.046a2.368 2.368 0 0 1 .06.23c.038.176.06.355.1.531a1.529 1.529 0 0 0 .07.266.266.266 0 0 0 .153.179c.162.052.238-.143.274-.259.043-.136.072-.277.106-.415l.02-.079a3.3 3.3 0 0 0 .126.537l.019-.011a.454.454 0 0 0 .184-.241 8.167 8.167 0 0 0-.06-.319 1.92 1.92 0 0 0-.08-.254z" fill="#fff"/></g><g data-name="Group 11353"><path data-name="Path 23" d="M31.714 24.301l-.48-.281a.341.341 0 0 0-.309 0l-.484.281a.342.342 0 0 0-.139.185.223.223 0 0 0-.012.055.236.236 0 0 0 0 .029v.575a.339.339 0 0 0 .15.268l.369.216.111.065a.3.3 0 0 0 .135.036.324.324 0 0 0 .174-.036l.47-.273.015-.008a.339.339 0 0 0 .138-.18.223.223 0 0 0 .012-.055.236.236 0 0 0 0-.029v-.576a.339.339 0 0 0-.15-.272z" fill="#21937f"/><g data-name="Group 3" clip-path="url(#b)" fill="none" stroke="#fff" stroke-miterlimit="10" stroke-width=".109" transform="translate(30.287 23.983)" opacity=".55"><path data-name="Path 24" d="M.543-.049h.486l-.2.6z"/><path data-name="Path 25" d="M.543-.049l.29.6L.442.84z"/><path data-name="Path 26" d="M.443.841l.1-.886-.62.479z"/><path data-name="Path 27" d="M.443.841L0 1.397-.077.434z"/><path data-name="Path 28" d="M.443.842l.306.478L0 1.399z"/><path data-name="Path 29" d="M.834.552L.443.841l.306.478z"/><path data-name="Path 30" d="M.834.551l.939-.1-.742-.5z"/><path data-name="Path 31" d="M.834.553l.47.529.47-.625z"/><path data-name="Path 32" d="M.748 1.319l.554-.238-.47-.529z"/><path data-name="Path 33" d="M.749 1.319l.038.643L0 1.397z"/><path data-name="Path 34" d="M1.303 1.082l-.516.881-.038-.643z"/><path data-name="Path 35" d="M1.303 1.082l.105.629-.621.252z"/><path data-name="Path 36" d="M1.303 1.08l.47-.625-.1.988-.263.266z"/></g><path data-name="Path 38" d="M31.492 24.737l-.2.219-.023.025-.109-.144-.26-.376-.61.656v.027a.339.339 0 0 0 .15.268l.369.216.111.065a.305.305 0 0 0 .135.036.324.324 0 0 0 .174-.036l.47-.273.015-.008a.246.246 0 0 0 .041-.03l.01-.221z" fill="#1b7362" opacity=".3"/><path data-name="Path 39" d="M31.75 24.802c-.019-.053-.052-.116-.114-.128a.141.141 0 0 0-.153.076 1.013 1.013 0 0 0-.091.275c-.018.072-.034.145-.053.217-.012-.056-.022-.113-.032-.17l-.019-.115a2.516 2.516 0 0 0-.066-.3.441.441 0 0 0-.11-.218.147.147 0 0 0-.225.034.493.493 0 0 0-.073.186 2.338 2.338 0 0 0-.05.608 2.106 2.106 0 0 0 .041.364l.111.065a.3.3 0 0 0 .135.036v-.01l-.019-.052a1.118 1.118 0 0 1-.032-.128l-.012-.07v-.015-.037q-.007-.076-.01-.153a2.7 2.7 0 0 1 .008-.311c0-.024 0-.047.007-.071v-.046c.006-.04.013-.08.022-.12l.009-.034a1.771 1.771 0 0 1 .045.172c.028.132.045.265.071.4a1.143 1.143 0 0 0 .052.2.2.2 0 0 0 .114.134c.121.039.178-.107.205-.194.032-.1.054-.207.08-.311l.015-.059a2.471 2.471 0 0 0 .094.4l.015-.008a.339.339 0 0 0 .138-.18 5.628 5.628 0 0 0-.045-.239 1.437 1.437 0 0 0-.058-.198z" fill="#fff"/></g></svg>