<svg xmlns="http://www.w3.org/2000/svg" width="38" height="31.405" viewBox="0 0 38 31.405"><rect data-name="Rectangle 89" width="38" height="31" rx="5" transform="translate(0 .405)" fill="none"/><path data-name="Path 163" d="M6.798 13.831l.71-5.726c0-2.054 2.482-3.808 4.252-1.963L12.967 7.4z" fill="#ffcebf"/><path data-name="Path 164" d="M12.967 7.4l-.809.845-1.207-1.258a2.223 2.223 0 0 0-3.006-.347 2.349 2.349 0 0 1 3.816-.5z" fill="#ffb09e"/><path data-name="Path 165" d="M18.436.521l1.207 1.258-2.414 2.517-1.207-1.258a1.833 1.833 0 0 1 0-2.516 1.658 1.658 0 0 1 2.413 0z" fill="#ffcebf"/><path data-name="Path 166" d="M19.255 1.375l.388.4-2.415 2.522-.388-.4a1.833 1.833 0 0 1 0-2.516 1.658 1.658 0 0 1 2.413 0z" fill="#ffb09e"/><path data-name="Path 167" d="M16.021 3.037l1.207 1.258-2.413 2.516-1.207-1.258a1.833 1.833 0 0 1 0-2.516 1.656 1.656 0 0 1 2.413 0z" fill="#ffcebf"/><path data-name="Path 168" d="M16.841 3.892l.387.4-2.413 2.52-.387-.4a1.833 1.833 0 0 1 0-2.516 1.656 1.656 0 0 1 2.413 0z" fill="#ffb09e"/><path data-name="Path 169" d="M13.608 5.553l1.207 1.258-2.414 2.516-1.207-1.258a1.833 1.833 0 0 1 0-2.516 1.656 1.656 0 0 1 2.413 0z" fill="#ffcebf"/><path data-name="Path 170" d="M14.428 6.408l.387.4-2.414 2.516-.387-.4a1.834 1.834 0 0 1 0-2.516 1.656 1.656 0 0 1 2.414 0z" fill="#ffb09e"/><path data-name="Path 171" d="M11.194 8.069l1.207 1.258-2.413 2.516-1.207-1.258a1.833 1.833 0 0 1 0-2.516 1.656 1.656 0 0 1 2.413 0z" fill="#ffcebf"/><path data-name="Path 172" d="M12.014 8.924l.387.4-2.413 2.516-.387-.4a1.833 1.833 0 0 1 0-2.516 1.656 1.656 0 0 1 2.413 0z" fill="#ffb09e"/><g data-name="Group 11345" fill="#ffcebf"><path data-name="Path 173" d="M19.642 1.779L32.22 14.892l-3.391 4.847-5.225 4.136a19.956 19.956 0 0 0-1.558-1.56 7.059 7.059 0 0 0-2.161-1.233 7.066 7.066 0 0 1-2.742-1.777l-7.151-7.461z"/><path data-name="Path 174" d="M18.358 1.779l9.654 10.064-7.156 7.46a7.066 7.066 0 0 1-2.742 1.777 9.8 9.8 0 0 0-3.718 2.794L9.882 20.12l-4.1-5.232z"/><path data-name="Path 175" d="M20.771 4.296l1.207-1.258a1.833 1.833 0 0 0 0-2.516 1.658 1.658 0 0 0-2.413 0L18.358 1.78z"/><path data-name="Path 176" d="M23.185 6.808l1.207-1.258a1.833 1.833 0 0 0 0-2.516 1.658 1.658 0 0 0-2.413 0l-1.207 1.258z"/><path data-name="Path 177" d="M25.598 9.327l1.207-1.258a1.833 1.833 0 0 0 0-2.516 1.658 1.658 0 0 0-2.413 0l-1.207 1.258z"/><path data-name="Path 178" d="M29.219 8.069a1.833 1.833 0 0 1 0 2.516l-1.207 1.258-2.413-2.516 1.207-1.258a1.658 1.658 0 0 1 2.413 0z"/></g><path data-name="Path 179" d="M29.22 10.584l-1.207 1.259L25.6 9.327l1.207 1.257 1.207-1.258a1.829 1.829 0 0 0 .442-1.719 1.688 1.688 0 0 1 .765.461 1.834 1.834 0 0 1-.001 2.516z" fill="#ffb09e"/><path data-name="Path 180" d="M29.875 13.725l-2.1.482-1.987.457a2.163 2.163 0 0 0-1.075.614l-3.861 4.025a7.059 7.059 0 0 1-2.742 1.777 9.78 9.78 0 0 0-3.719 2.794l-.75-.345-.456-.913a9.779 9.779 0 0 1 3.718-2.794 7.075 7.075 0 0 0 2.741-1.777l3.4-3.547a1.239 1.239 0 0 0 0-1.7c-.867-.9-1.736-2.076-2.954-2.451l-3-.926a1.687 1.687 0 0 1 .323-3.32h4.396a4.767 4.767 0 0 1 3.222 1.7l2.228 2.322a16.01 16.01 0 0 1 2.616 3.602z" fill="#ffb09e"/><path data-name="Path 181" d="M26.265 7.799l2.227 2.322a15.977 15.977 0 0 1 2.608 3.6l-2.094.482-2.766.636-3.428-3.574c-1.084-1.131-3.067-1.41-4.488-1.849a1.687 1.687 0 0 1 .323-3.32h4.396a4.767 4.767 0 0 1 3.222 1.703z" fill="#ffcebf"/><path data-name="Path 182" d="M26.265 7.799l2.227 2.322a15.977 15.977 0 0 1 2.608 3.6l1.119 1.167-3.391 4.847-5.225 4.136a19.964 19.964 0 0 0-1.558-1.56l5-5.212 1.091-1.138a2.25 2.25 0 0 0 .235-2.79 29.348 29.348 0 0 0-2.262-3.053l-2.227-2.322a4.772 4.772 0 0 0-3.221-1.7h2.381a4.767 4.767 0 0 1 3.223 1.703z" fill="#ffb09e"/><path data-name="Path 188" d="M32.22 14.892l4.134 4.309-4.435 5.2-5.624 5.284-3.636-3.791a.756.756 0 0 1 0-1.037z" fill="#ddeafb"/><path data-name="Path 189" d="M36.354 19.201l-4.435 5.2-5.624 5.285-1.119-1.167 10.06-10.487z" fill="#cbe2ff"/><path data-name="Path 190" d="M36.354 19.201l1.441 1.5a.756.756 0 0 1 0 1.037l-9.065 9.45a.684.684 0 0 1-.995 0l-1.441-1.5z" fill="#ffd15b"/><path data-name="Path 191" d="M37.794 21.741l-9.065 9.449a.684.684 0 0 1-1 0l-.917-.956a.683.683 0 0 0 .986-.008l9.065-9.45a.757.757 0 0 0 0-1.037l.925.965a.756.756 0 0 1 .006 1.037z" fill="#ffc344"/><path data-name="Path 192" d="M5.781 14.892l9.562 9.969a.756.756 0 0 1 0 1.037l-3.636 3.791-5.132-4.739-4.928-5.749z" fill="#ddeafb"/><path data-name="Path 193" d="M15.343 25.898l-.633.66L4.651 16.07l1.13-1.178 9.562 9.969a.756.756 0 0 1 0 1.037z" fill="#cbe2ff"/><ellipse data-name="Ellipse 121" cx=".675" cy=".704" rx=".675" ry=".704" transform="translate(11.031 24.752)" fill="#fff9df"/><path data-name="Path 194" d="M1.646 19.201l10.06 10.487-1.441 1.5a.684.684 0 0 1-.995 0l-9.065-9.45a.756.756 0 0 1 0-1.037z" fill="#21937f"/><path data-name="Path 195" d="M.673 20.211l.97-1.01 10.06 10.486-.969 1.01z" fill="#86e2a3"/></svg>