<svg xmlns="http://www.w3.org/2000/svg" width="38" height="31.008" viewBox="0 0 38 31.008"><g transform="translate(0 .008)"><rect data-name="Rectangle 85" width="38" height="31" rx="5" transform="translate(0 -.008)" fill="none"/><path data-name="Path 3526" d="M34.227 16.859a.907.907 0 0 0-.408-.278l-7.1-2.366L19 16.787v11.69l7.433 2.477a.909.909 0 0 0 .574 0l6.812-2.27a.908.908 0 0 0 .621-.862V17.441a.907.907 0 0 0-.213-.582z" fill="#86e2a3"/><path data-name="Path 3527" d="M26.72 19.359V31a.908.908 0 0 0 .287-.047l6.811-2.27a.908.908 0 0 0 .621-.862V17.442a.907.907 0 0 0-.213-.584z" fill="#1b7e6d"/><path data-name="Path 3528" d="M19 16.786v11.69l7.433 2.477a.908.908 0 0 0 .287.047V19.359z" fill="#21937f"/><g data-name="Group 12274"><path data-name="Path 3529" d="M26.508 2.595a.907.907 0 0 0-.408-.278L19.288.047a.908.908 0 0 0-.574 0l-6.812 2.27a.909.909 0 0 0-.621.862v11.035l7.72 2.573 7.72-2.573V3.179a.907.907 0 0 0-.213-.584z" fill="#ffdd54"/><path data-name="Path 3530" d="M26.721 3.178a.907.907 0 0 0-.213-.584l-7.507 2.502v11.69l7.72-2.573z" fill="#ff8e00"/><g data-name="Group 12273" fill="#ffb454"><path data-name="Path 3531" d="M19.001 5.096l-7.507-2.5a.907.907 0 0 0-.213.584v11.033l7.72 2.573z"/><path data-name="Path 3532" d="M26.508 2.594a.907.907 0 0 0-.408-.278L19.288.047A.908.908 0 0 0 19.001 0v5.1z"/></g></g><g data-name="Group 12275"><path data-name="Path 3533" d="M11.281 14.214l-7.1 2.366a.909.909 0 0 0-.621.862v10.381a.908.908 0 0 0 .621.862l6.812 2.27a.909.909 0 0 0 .574 0L19 28.478v-11.69z" fill="#ff6b6b"/><path data-name="Path 3534" d="M3.774 16.857a.907.907 0 0 0-.213.585v10.38a.908.908 0 0 0 .621.862l6.812 2.27a.908.908 0 0 0 .287.047V19.359z" fill="#f90024"/><path data-name="Path 3535" d="M11.281 19.36v11.641a.907.907 0 0 0 .287-.047l7.433-2.477v-11.69z" fill="#a50017"/></g></g></svg>