<svg xmlns="http://www.w3.org/2000/svg" width="17.458" height="17.457" viewBox="0 0 17.458 17.457"><path d="M16.918 13.749a1.84 1.84 0 0 1-.456 2.931 6.583 6.583 0 0 1-4.779.56C7.419 16.167 1.291 10.038.217 5.774A6.583 6.583 0 0 1 .777.995 1.84 1.84 0 0 1 3.708.539l1.82 1.819a1.827 1.827 0 0 1 .388 2.032 3.383 3.383 0 0 1-.678 1.023c-2.08 2.08 4.727 8.888 6.807 6.807a3.384 3.384 0 0 1 1.024-.682 1.826 1.826 0 0 1 2.032.388zM7.481.675a.873.873 0 1 0 .749 1.576 5.236 5.236 0 0 1 6.972 6.977.873.873 0 0 0 1.577.749 6.981 6.981 0 0 0-9.3-9.3zm4.227 8.776a.873.873 0 0 0 1.234 0 3.491 3.491 0 1 0-4.94-4.935.873.873 0 0 0 1.234 1.234 1.787 1.787 0 0 1 2.469 0 1.745 1.745 0 0 1 0 2.468.873.873 0 0 0 0 1.234z" fill="#fff"/></svg>