<svg xmlns="http://www.w3.org/2000/svg" width="37.933" height="30.786" viewBox="0 0 37.933 30.786"><circle data-name="Ellipse 117" cx="4.177" cy="4.177" r="4.177" transform="translate(18.13)" fill="#42c3fc"/><path data-name="Path 124" d="M24.135 7.934a.333.333 0 0 0-.1-.06 1.261 1.261 0 0 1-.883-1.681.348.348 0 0 0-.134-.381.791.791 0 0 1-.2-1.007.339.339 0 0 0 .008-.249l-.765-2.116a.349.349 0 0 0-.182-.2 1.584 1.584 0 0 1-.7-1.921.336.336 0 0 0 0-.166A4.177 4.177 0 1 0 24.14 7.93z" fill="#1aa9e8"/><path data-name="Path 125" d="M22.307 2.285a3.334 3.334 0 0 0-2.9 1.681.424.424 0 0 0 0 .422 3.336 3.336 0 0 0 5.794 0 .424.424 0 0 0 0-.422 3.334 3.334 0 0 0-2.894-1.681z" fill="#fff"/><path data-name="Path 126" d="M23.015 5.811a.791.791 0 0 1-.2-1.007.339.339 0 0 0 .008-.249l-.765-2.116a.337.337 0 0 0-.094-.135 3.335 3.335 0 0 0-2.554 1.661.424.424 0 0 0 0 .422 3.331 3.331 0 0 0 3.726 1.578.351.351 0 0 0-.121-.154z" fill="#fff"/><circle data-name="Ellipse 118" cx="4.177" cy="4.177" r="4.177" transform="rotate(-76.7 21.567 -10.144)" fill="#ff4155"/><path data-name="Path 127" d="M32.882 11.488a.328.328 0 0 0-.248-.287.448.448 0 0 1-.226-.145.3.3 0 0 1-.04-.062 3.149 3.149 0 0 0-1.3-1.309.865.865 0 0 1-.508-1.124.326.326 0 0 0-.081-.343 1.511 1.511 0 0 1-.2-2.011.333.333 0 0 0 .051-.153 4.177 4.177 0 1 0 4.3 6.778c-1.445.062-1.708-.858-1.748-1.344z" fill="#e80054"/><path data-name="Path 128" d="M33.739 9.102a1.429 1.429 0 0 0-1.952-.535l-.168.094a.25.25 0 0 1-.244 0l-.2-.111a1.406 1.406 0 0 0-1.935.577 1.4 1.4 0 0 0 .534 1.862 6.378 6.378 0 0 1 1.5 1.189.3.3 0 0 0 .444 0 6.378 6.378 0 0 1 1.5-1.189 1.4 1.4 0 0 0 .521-1.887z" fill="#fff"/><path data-name="Path 129" d="M29.776 10.988a6.378 6.378 0 0 1 1.5 1.189.3.3 0 0 0 .444 0 6.139 6.139 0 0 1 1.052-.905.346.346 0 0 0-.137-.071.448.448 0 0 1-.226-.145.3.3 0 0 1-.04-.062 3.149 3.149 0 0 0-1.3-1.309.865.865 0 0 1-.509-1.124.322.322 0 0 0 .009-.188 1.405 1.405 0 0 0-1.324.753 1.4 1.4 0 0 0 .531 1.862z" fill="#fff"/><circle data-name="Ellipse 119" cx="4.177" cy="4.177" r="4.177" transform="rotate(-45 38.161 -21.134)" fill="#ffc344"/><path data-name="Path 130" d="M32.855 23.258l-1-4.517a1.468 1.468 0 0 1-.877-1.991 4.177 4.177 0 1 0 2.6 7.924 1.131 1.131 0 0 1-.723-1.416z" fill="#ffad00"/><path data-name="Path 131" d="M30.156 18.741h3.753a.6.6 0 0 1 .6.6v2.667a.6.6 0 0 1-.6.6h-.537a.177.177 0 0 0-.148.08l-.37.564a.227.227 0 0 1-.38 0l-.37-.564a.178.178 0 0 0-.148-.08h-1.8a.6.6 0 0 1-.6-.6v-2.667a.6.6 0 0 1 .6-.6z" fill="#fff"/><path data-name="Path 132" d="M31.252 22.011v-2.667a.6.6 0 0 1 .6-.6h-1.7a.6.6 0 0 0-.6.6v2.667a.6.6 0 0 0 .6.6h1.7a.6.6 0 0 1-.6-.6z" fill="#fff"/><path data-name="Path 133" d="M21.25 2.456a1.413 1.413 0 1 0 2.114 0 3.351 3.351 0 0 0-2.114 0z" fill="#47477f"/><path data-name="Path 138" d="M2.947 20.415l-.966-1.673a1.062 1.062 0 1 0-1.839 1.062l.966 1.673z" fill="#e9efff"/><path data-name="Path 139" d="M2.079 18.911c0 .038.006.077.006.117a1.177 1.177 0 0 1-1.821.986l.844 1.462 1.839-1.062z" fill="#d3dcfb"/><path data-name="Path 140" d="M4.895 30.786l4.557-2.631a1.043 1.043 0 0 1-.175-.224l-4.775-8.27a1.042 1.042 0 0 1-.107-.264L.334 21.739a17.231 17.231 0 0 0 4.556 9.048z" fill="#21937f"/><path data-name="Path 141" d="M6.66 23.858v-.454l-2.161-3.743a1.041 1.041 0 0 1-.107-.264L.336 21.739a17.163 17.163 0 0 0 1.544 4.757 1.483 1.483 0 0 1 .7-1.2s1.234-.723 2.309-1.314a1.716 1.716 0 0 1 1.771-.124z" fill="#1b7e6d"/><path data-name="Path 142" d="M14.687 25.527a16.228 16.228 0 0 1 9.871-.684L14.816 7.969a16.228 16.228 0 0 1-5.527 8.207 1.038 1.038 0 0 1 .493.436l4.774 8.27a1.038 1.038 0 0 1 .131.645z" fill="#d3dcfb"/><path data-name="Path 143" d="M18.223 13.872l-3.407-5.9a16.228 16.228 0 0 1-5.527 8.207 1.038 1.038 0 0 1 .493.436l2.325 4.027a20.544 20.544 0 0 0 6.116-6.77z" fill="#bec8f7"/><path data-name="Path 144" d="M14.31 26.229l-3.807 2.2a1.044 1.044 0 0 1-1.426-.382l-4.774-8.27a1.044 1.044 0 0 1 .381-1.431l3.807-2.2a1.044 1.044 0 0 1 1.426.382l4.774 8.27a1.044 1.044 0 0 1-.381 1.431z" fill="#21937f"/><path data-name="Path 145" d="M9.917 16.534a1.044 1.044 0 0 0-1.426-.382l-3.807 2.2a1.044 1.044 0 0 0-.382 1.426l2.357 4.082a.823.823 0 0 1 1.256-.655l3.164-1.827a.872.872 0 0 1 1.155-.83z" fill="#1b7e6d"/><path data-name="Path 146" d="M6.422 20.09a.529.529 0 0 1-.265-.987l2.247-1.3a.529.529 0 0 1 .529.916l-2.247 1.3a.527.527 0 0 1-.264.071z" fill="#86e2a3"/><path data-name="Path 147" d="M7.4 21.779a.529.529 0 0 1-.265-.987l2.247-1.3a.529.529 0 1 1 .529.916l-2.247 1.3a.527.527 0 0 1-.264.071z" fill="#86e2a3"/><path data-name="Path 148" d="M8.375 23.467a.529.529 0 0 1-.265-.987l2.247-1.3a.529.529 0 0 1 .529.916l-2.252 1.3a.527.527 0 0 1-.259.071z" fill="#86e2a3"/><path data-name="Path 149" d="M9.349 25.156a.529.529 0 0 1-.265-.987l2.247-1.3a.529.529 0 1 1 .529.916l-2.247 1.3a.526.526 0 0 1-.264.071z" fill="#86e2a3"/><path data-name="Path 150" d="M10.324 26.844a.529.529 0 0 1-.265-.987l2.247-1.3a.529.529 0 1 1 .529.916l-2.247 1.3a.527.527 0 0 1-.264.071z" fill="#86e2a3"/><path data-name="Path 151" d="M25.922 25.364a1.062 1.062 0 0 1-1.45-.389l-9.813-17a1.062 1.062 0 1 1 1.839-1.062l9.813 17a1.061 1.061 0 0 1-.389 1.451z" fill="#e9efff"/><path data-name="Path 152" d="M18.751 12.862a1.243 1.243 0 0 1 1.149-.049l-3.4-5.9a1.062 1.062 0 0 0-1.839 1.062l3.468 6.019a1.244 1.244 0 0 1 .622-1.132z" fill="#d3dcfb"/><circle data-name="Ellipse 120" cx=".516" cy=".516" r=".516" transform="translate(22.204 2.667)" fill="#5f5f9b"/></svg>